{
.appVersion = "1141";
DisplayStrings = (
"/T_h/c_t/f_adieresis.liga/f_b.liga/f_eth.liga/f_f.liga/f_f_adieresis.liga/f_f_b.liga/f_f_eth.liga/f_f_h.liga/f_f_i.liga/f_f_idieresis.liga/f_f_igrave.liga/f_f_iogonek.liga/f_f_j.liga/f_f_k.liga/f_f_kcommaaccent.liga/f_f_l.liga/f_f_lcaron.liga/f_f_lcommaaccent.liga/f_f_odieresis.liga/f_h.liga/f_idieresis.liga/f_igrave.liga/f_iogonek.liga/f_j.liga/f_k.liga/f_kcommaaccent.liga/f_lcaron.liga/f_lcommaaccent.liga/f_odieresis.liga/fi/fl/longs_t.liga/s_t/longs_b.liga/longs_h.liga/longs_i.liga/longs_k.liga/longs_l.liga/longs_longs.liga/longs_longs_i.liga/longs_longs_l.liga",
"ABCDEFGHIJKLMNOPQRSTUVWXYZ\012abcdefgh/idotless i/jdotless jlklmnopqrstuvwxyz",

glyphs = (
{
glyphname = A;
lastChange = "2018-11-09 15:04:11 +0000";
layers = (
{
anchors = (
{
name = bottom;
position = "{472, 0}";
},
{
name = ogonek;
position = "{913, 0}";
},
{
name = top;
position = "{465, 786}";
}
);
background = {
paths = (
{
closed = 1;
nodes = (
"636 354 LINE",
"228 354 LINE",
"208 269 LINE",
"636 269 LINE"
);
}
);
};
components = (
{
name = V;
transform = "{-1, 0, 0, -1, 943, 786}";
}
);
layerId = "2CCCAF06-0AAA-44C6-8F00-0A68246BB68E";
paths = (
{
closed = 1;
nodes = (
"636 354 LINE",
"228 354 LINE",
"208 259 LINE",
"636 259 LINE"
);
}
);
width = 943;
},
{
anchors = (
{
name = bottom;
position = "{431, 0}";
},
{
name = ogonek;
position = "{842, 0}";
},
{
name = top;
position = "{431, 786}";
}
);
components = (
{
alignment = -1;
name = V;
transform = "{-1, 0, 0, -1, 861, 786}";
}
);
layerId = "EED98765-8720-4D79-BBF2-40D7DAF3490F";
paths = (
{
closed = 1;
nodes = (
"636 332 LINE",
"228 332 LINE",
"208 293 LINE",
"636 293 LINE"
);
}
);
width = 861;
}
);
leftKerningGroup = A;
rightKerningGroup = A;
unicode = 0041;
},
{
color = 7;
glyphname = AE;
lastChange = "2018-10-29 15:11:46 +0000";
layers = (
{
background = {
paths = (
{
closed = 1;
nodes = (
"495 754 LINE",
"90 31 LINE",
"166 65 LINE",
"557 759 LINE"
);
},
{
closed = 1;
nodes = (
"48 31 LINE",
"48 0 LINE",
"322 0 LINE",
"342 40 LINE",
"154 114 LINE"
);
},
{
closed = 1;
nodes = (
"427 31 LINE",
"427 0 LINE",
"568 0 LINE",
"588 40 LINE",
"533 114 LINE"
);
},
{
closed = 1;
nodes = (
"585 45 LINE",
"585 0 LINE",
"1043 0 LINE",
"1043 45 LINE"
);
},
{
closed = 1;
nodes = (
"333 424 LINE",
"313 379 LINE",
"833 379 LINE",
"833 424 LINE"
);
},
{
closed = 1;
nodes = (
"521 786 LINE",
"521 0 LINE",
"646 0 LINE",
"646 786 LINE"
);
},
{
closed = 1;
nodes = (
"878 30 LINE",
"976 7 LINE",
"1051 -18 LINE",
"1051 232 LINE",
"1021 242 LINE"
);
},
{
closed = 1;
nodes = (
"357 786 LINE",
"337 746 LINE",
"555 672 LINE",
"546 786 LINE"
);
},
{
closed = 1;
nodes = (
"846 552 LINE",
"763 406 LINE",
"837 228 LINE",
"877 248 LINE",
"877 552 LINE"
);
},
{
closed = 1;
nodes = (
"585 786 LINE",
"585 741 LINE",
"1033 741 LINE",
"1033 786 LINE"
);
},
{
closed = 1;
nodes = (
"966 779 LINE",
"868 776 LINE",
"1011 564 LINE",
"1041 574 LINE",
"1041 804 LINE"
);
}
);
};
layerId = "2CCCAF06-0AAA-44C6-8F00-0A68246BB68E";
paths = (
{
closed = 1;
nodes = (
"0 71 LINE",
"0 0 LINE",
"294 0 LINE",
"334 80 LINE",
"166 194 LINE"
);
},
{
closed = 1;
nodes = (
"387 754 LINE",
"82 71 LINE",
"226 105 LINE",
"514 759 LINE"
);
},
{
closed = 1;
nodes = (
"267 786 LINE",
"227 706 LINE",
"415 654 LINE",
"506 786 LINE"
);
},
{
closed = 1;
nodes = (
"585 786 LINE",
"585 691 LINE",
"1063 691 LINE",
"1063 786 LINE"
);
},
{
closed = 1;
nodes = (
"956 779 LINE",
"818 776 LINE",
"1001 504 LINE",
"1071 534 LINE",
"1071 804 LINE"
);
},
{
closed = 1;
nodes = (
"481 786 LINE",
"481 0 LINE",
"696 0 LINE",
"696 786 LINE"
);
},
{
closed = 1;
nodes = (
"313 449 LINE",
"263 354 LINE",
"853 354 LINE",
"853 449 LINE"
);
},
{
closed = 1;
nodes = (
"826 552 LINE",
"723 406 LINE",
"817 228 LINE",
"897 268 LINE",
"897 552 LINE"
);
},
{
closed = 1;
nodes = (
"387 71 LINE",
"387 0 LINE",
"568 0 LINE",
"588 80 LINE",
"493 154 LINE"
);
},
{
closed = 1;
nodes = (
"585 95 LINE",
"585 0 LINE",
"1073 0 LINE",
"1073 95 LINE"
);
},
{
closed = 1;
nodes = (
"848 70 LINE",
"966 7 LINE",
"1081 -18 LINE",
"1081 272 LINE",
"1011 302 LINE"
);
}
);
width = 1131;
},
{
layerId = "EED98765-8720-4D79-BBF2-40D7DAF3490F";
paths = (
{
closed = 1;
nodes = (
"-3 26 LINE",
"-3 0 LINE",
"268 0 LINE",
"286 35 LINE",
"95 104 LINE"
);
},
{
closed = 1;
nodes = (
"451 754 LINE",
"34 26 LINE",
"101 60 LINE",
"505 759 LINE"
);
},
{
closed = 1;
nodes = (
"311 786 LINE",
"293 751 LINE",
"449 697 LINE",
"494 786 LINE"
);
},
{
closed = 1;
nodes = (
"528 786 LINE",
"528 747 LINE",
"972 747 LINE",
"972 786 LINE"
);
},
{
closed = 1;
nodes = (
"910 779 LINE",
"817 776 LINE",
"955 572 LINE",
"980 579 LINE",
"980 804 LINE"
);
},
{
closed = 1;
nodes = (
"469 786 LINE",
"469 0 LINE",
"582 0 LINE",
"582 786 LINE"
);
},
{
closed = 1;
nodes = (
"278 421 LINE",
"262 382 LINE",
"773 382 LINE",
"773 421 LINE"
);
},
{
closed = 1;
nodes = (
"791 552 LINE",
"711 406 LINE",
"782 228 LINE",
"817 246 LINE",
"817 552 LINE"
);
},
{
closed = 1;
nodes = (
"375 26 LINE",
"375 0 LINE",
"511 0 LINE",
"531 35 LINE",
"481 109 LINE"
);
},
{
closed = 1;
nodes = (
"528 39 LINE",
"528 0 LINE",
"982 0 LINE",
"982 39 LINE"
);
},
{
closed = 1;
nodes = (
"824 25 LINE",
"920 7 LINE",
"990 -18 LINE",
"990 227 LINE",
"965 235 LINE"
);
}
);
width = 1096;
}
);
leftKerningGroup = A;
leftMetricsKey = A;
rightKerningGroup = E;
rightMetricsKey = E;
unicode = 00C6;
},
{
color = 1;
glyphname = B;
lastChange = "2018-11-07 19:47:02 +0000";
layers = (
{
anchors = (
{
name = bottom;
position = "{403, 0}";
},
{
name = top;
position = "{403, 786}";
}
);
background = {
paths = (
{
closed = 1;
nodes = (
"134 786 LINE",
"134 0 LINE",
"349 0 LINE",
"349 786 LINE"
);
},
{
closed = 1;
nodes = (
"250 715 LINE",
"250 786 LINE",
"60 786 LINE",
"20 706 LINE",
"206 662 LINE"
);
},
{
closed = 1;
nodes = (
"40 71 LINE",
"40 0 LINE",
"247 0 LINE",
"267 80 LINE",
"146 154 LINE"
);
},
{
closed = 1;
nodes = (
"223 565 LINE",
"263 643 OFFCURVE",
"326 692 OFFCURVE",
"407 692 CURVE SMOOTH",
"488 692 OFFCURVE",
"524 629 OFFCURVE",
"524 553 CURVE SMOOTH",
"524 468 OFFCURVE",
"496 434 OFFCURVE",
"442 434 CURVE SMOOTH",
"336 434 OFFCURVE",
"268 467 OFFCURVE",
"225 517 CURVE",
"207 360 LINE",
"311 360 OFFCURVE",
"331 350 OFFCURVE",
"414 350 CURVE SMOOTH",
"553 350 OFFCURVE",
"749 461 OFFCURVE",
"749 600 CURVE SMOOTH",
"749 709 OFFCURVE",
"646 796 OFFCURVE",
"485 796 CURVE SMOOTH",
"401 796 OFFCURVE",
"352 786 OFFCURVE",
"206 786 CURVE"
);
},
{
closed = 1;
nodes = (
"422 351 LINE",
"519 351 OFFCURVE",
"564 277 OFFCURVE",
"564 183 CURVE SMOOTH",
"564 132 OFFCURVE",
"523 104 OFFCURVE",
"457 104 CURVE SMOOTH",
"346 104 OFFCURVE",
"270 149 OFFCURVE",
"225 217 CURVE",
"207 0 LINE",
"316 0 OFFCURVE",
"342 -10 OFFCURVE",
"429 -10 CURVE SMOOTH",
"580 -10 OFFCURVE",
"789 97 OFFCURVE",
"789 230 CURVE SMOOTH",
"789 334 OFFCURVE",
"706 419 OFFCURVE",
"574 447 CURVE"
);
}
);
};
layerId = "2CCCAF06-0AAA-44C6-8F00-0A68246BB68E";
paths = (
{
closed = 1;
nodes = (
"134 786 LINE",
"134 0 LINE",
"349 0 LINE",
"349 786 LINE"
);
},
{
closed = 1;
nodes = (
"250 715 LINE",
"250 786 LINE",
"60 786 LINE",
"20 706 LINE",
"206 662 LINE"
);
},
{
closed = 1;
nodes = (
"40 71 LINE",
"40 0 LINE",
"247 0 LINE",
"267 80 LINE",
"146 154 LINE"
);
},
{
closed = 1;
nodes = (
"223 565 LINE",
"263 643 OFFCURVE",
"326 692 OFFCURVE",
"407 692 CURVE SMOOTH",
"488 692 OFFCURVE",
"524 629 OFFCURVE",
"524 543 CURVE SMOOTH",
"524 468 OFFCURVE",
"496 434 OFFCURVE",
"442 434 CURVE SMOOTH",
"225 434 LINE",
"225 350 LINE",
"414 350 LINE SMOOTH",
"553 350 OFFCURVE",
"749 461 OFFCURVE",
"749 600 CURVE SMOOTH",
"749 709 OFFCURVE",
"646 796 OFFCURVE",
"485 796 CURVE SMOOTH",
"401 796 OFFCURVE",
"352 786 OFFCURVE",
"206 786 CURVE"
);
},
{
closed = 1;
nodes = (
"422 351 LINE",
"519 351 OFFCURVE",
"564 285 OFFCURVE",
"564 203 CURVE SMOOTH",
"564 140 OFFCURVE",
"523 104 OFFCURVE",
"457 104 CURVE SMOOTH",
"346 104 OFFCURVE",
"270 149 OFFCURVE",
"225 217 CURVE",
"207 0 LINE",
"316 0 OFFCURVE",
"342 -10 OFFCURVE",
"429 -10 CURVE SMOOTH",
"580 -10 OFFCURVE",
"789 97 OFFCURVE",
"789 230 CURVE SMOOTH",
"789 334 OFFCURVE",
"706 419 OFFCURVE",
"574 447 CURVE"
);
}
);
width = 799;
},
{
anchors = (
{
name = bottom;
position = "{397, 0}";
},
{
name = top;
position = "{394, 786}";
}
);
layerId = "EED98765-8720-4D79-BBF2-40D7DAF3490F";
paths = (
{
closed = 1;
nodes = (
"157 786 LINE",
"157 0 LINE",
"270 0 LINE",
"270 786 LINE"
);
},
{
closed = 1;
nodes = (
"228 760 LINE",
"228 786 LINE",
"71 786 LINE",
"54 751 LINE",
"184 707 LINE"
);
},
{
closed = 1;
nodes = (
"63 26 LINE",
"63 0 LINE",
"225 0 LINE",
"245 35 LINE",
"169 109 LINE"
);
},
{
closed = 1;
nodes = (
"201 610 LINE",
"241 688 OFFCURVE",
"304 737 OFFCURVE",
"385 737 CURVE SMOOTH",
"505 737 OFFCURVE",
"558 654 OFFCURVE",
"558 554 CURVE SMOOTH",
"558 477 OFFCURVE",
"506 432 OFFCURVE",
"420 432 CURVE SMOOTH",
"203 432 LINE",
"203 376 LINE",
"392 376 LINE SMOOTH",
"513 376 OFFCURVE",
"682 478 OFFCURVE",
"682 600 CURVE SMOOTH",
"682 709 OFFCURVE",
"597 796 OFFCURVE",
"463 796 CURVE SMOOTH",
"379 796 OFFCURVE",
"330 786 OFFCURVE",
"184 786 CURVE"
);
},
{
closed = 1;
nodes = (
"400 377 LINE",
"536 377 OFFCURVE",
"598 302 OFFCURVE",
"598 196 CURVE SMOOTH",
"598 113 OFFCURVE",
"534 59 OFFCURVE",
"435 59 CURVE SMOOTH",
"324 59 OFFCURVE",
"248 86 OFFCURVE",
"203 127 CURVE",
"185 0 LINE",
"294 0 OFFCURVE",
"320 -10 OFFCURVE",
"407 -10 CURVE SMOOTH",
"540 -10 OFFCURVE",
"722 97 OFFCURVE",
"722 230 CURVE SMOOTH",
"722 335 OFFCURVE",
"637 418 OFFCURVE",
"507 434 CURVE"
);
}
);
width = 788;
}
);
leftKerningGroup = I;
leftMetricsKey = I;
rightMetricsKey = P;
unicode = 0042;
},
{
glyphname = C;
lastChange = "2018-10-29 15:11:46 +0000";
layers = (
{
anchors = (
{
name = bottom;
position = "{450, 0}";
},
{
name = top;
position = "{455, 786}";
}
);
background = {
paths = (
{
closed = 1;
nodes = (
"341 806 OFFCURVE",
"90 623 OFFCURVE",
"90 375 CURVE SMOOTH",
"90 146 OFFCURVE",
"234 -20 OFFCURVE",
"447 -20 CURVE SMOOTH",
"489 -20 OFFCURVE",
"538 -18 OFFCURVE",
"593 2 CURVE",
"777 145 LINE",
"747 193 LINE",
"629 98 OFFCURVE",
"554 65 OFFCURVE",
"505 65 CURVE SMOOTH",
"312 64 OFFCURVE",
"225 234 OFFCURVE",
"225 423 CURVE SMOOTH",
"225 596 OFFCURVE",
"328 722 OFFCURVE",
"462 722 CURVE SMOOTH",
"555 722 OFFCURVE",
"640 678 OFFCURVE",
"706 565 CURVE",
"744 565 LINE",
"744 759 LINE",
"702 782 OFFCURVE",
"591 806 OFFCURVE",
"520 806 CURVE SMOOTH"
);
}
);
};
layerId = "2CCCAF06-0AAA-44C6-8F00-0A68246BB68E";
paths = (
{
closed = 1;
nodes = (
"325 806 OFFCURVE",
"50 623 OFFCURVE",
"50 375 CURVE SMOOTH",
"50 146 OFFCURVE",
"210 -20 OFFCURVE",
"447 -20 CURVE SMOOTH",
"501 -20 OFFCURVE",
"562 -18 OFFCURVE",
"633 2 CURVE",
"817 145 LINE",
"771 219 LINE",
"641 156 OFFCURVE",
"559 135 OFFCURVE",
"505 135 CURVE SMOOTH",
"354 134 OFFCURVE",
"285 269 OFFCURVE",
"285 423 CURVE SMOOTH",
"285 566 OFFCURVE",
"364 672 OFFCURVE",
"462 672 CURVE SMOOTH",
"535 672 OFFCURVE",
"605 634 OFFCURVE",
"656 535 CURVE",
"784 535 LINE",
"784 759 LINE",
"734 782 OFFCURVE",
"603 806 OFFCURVE",
"520 806 CURVE SMOOTH"
);
}
);
width = 847;
},
{
anchors = (
{
name = bottom;
position = "{428, 0}";
},
{
name = top;
position = "{433, 786}";
}
);
layerId = "EED98765-8720-4D79-BBF2-40D7DAF3490F";
paths = (
{
closed = 1;
nodes = (
"321 806 OFFCURVE",
"73 623 OFFCURVE",
"73 375 CURVE SMOOTH",
"73 146 OFFCURVE",
"215 -20 OFFCURVE",
"425 -20 CURVE SMOOTH",
"465 -20 OFFCURVE",
"513 -18 OFFCURVE",
"566 2 CURVE",
"750 145 LINE",
"722 190 LINE",
"605 91 OFFCURVE",
"531 56 OFFCURVE",
"483 56 CURVE SMOOTH",
"284 55 OFFCURVE",
"195 230 OFFCURVE",
"195 423 CURVE SMOOTH",
"195 600 OFFCURVE",
"301 728 OFFCURVE",
"440 728 CURVE SMOOTH",
"535 728 OFFCURVE",
"622 684 OFFCURVE",
"690 569 CURVE",
"717 569 LINE",
"717 759 LINE",
"676 782 OFFCURVE",
"567 806 OFFCURVE",
"498 806 CURVE SMOOTH"
);
}
);
width = 817;
}
);
leftKerningGroup = O;
leftMetricsKey = O;
rightKerningGroup = C;
unicode = 0043;
},
{
glyphname = D;
lastChange = "2018-11-19 15:45:04 +0000";
layers = (
{
anchors = (
{
name = bottom;
position = "{470, 0}";
},
{
name = centre;
position = "{269, 436}";
},
{
name = top;
position = "{425, 786}";
}
);
background = {
paths = (
{
closed = 1;
nodes = (
"80 31 LINE",
"80 0 LINE",
"221 0 LINE",
"241 40 LINE",
"186 114 LINE"
);
},
{
closed = 1;
nodes = (
"174 786 LINE",
"174 0 LINE",
"299 0 LINE",
"299 786 LINE"
);
},
{
closed = 1;
nodes = (
"223 605 LINE",
"263 683 OFFCURVE",
"331 732 OFFCURVE",
"412 732 CURVE SMOOTH",
"614 732 OFFCURVE",
"704 559 OFFCURVE",
"704 363 CURVE SMOOTH",
"704 190 OFFCURVE",
"593 64 OFFCURVE",
"447 64 CURVE SMOOTH",
"341 64 OFFCURVE",
"268 93 OFFCURVE",
"225 137 CURVE",
"207 0 LINE",
"311 0 OFFCURVE",
"336 -10 OFFCURVE",
"419 -10 CURVE SMOOTH",
"594 -10 OFFCURVE",
"839 169 OFFCURVE",
"839 410 CURVE SMOOTH",
"839 633 OFFCURVE",
"700 796 OFFCURVE",
"490 796 CURVE SMOOTH",
"406 796 OFFCURVE",
"357 786 OFFCURVE",
"206 786 CURVE"
);
},
{
closed = 1;
nodes = (
"250 755 LINE",
"250 786 LINE",
"90 786 LINE",
"70 746 LINE",
"206 702 LINE"
);
}
);
};
guideLines = (
{
position = "{450, 683}";
}
);
layerId = "2CCCAF06-0AAA-44C6-8F00-0A68246BB68E";
paths = (
{
closed = 1;
nodes = (
"40 71 LINE",
"40 0 LINE",
"271 0 LINE",
"291 80 LINE",
"146 154 LINE"
);
},
{
closed = 1;
nodes = (
"134 786 LINE",
"134 0 LINE",
"349 0 LINE",
"349 786 LINE"
);
},
{
closed = 1;
nodes = (
"273 575 LINE",
"296 647 OFFCURVE",
"351 692 OFFCURVE",
"412 692 CURVE SMOOTH",
"579 692 OFFCURVE",
"654 539 OFFCURVE",
"654 363 CURVE SMOOTH",
"654 208 OFFCURVE",
"563 94 OFFCURVE",
"447 94 CURVE SMOOTH",
"366 94 OFFCURVE",
"312 119 OFFCURVE",
"275 157 CURVE",
"217 0 LINE",
"316 0 OFFCURVE",
"340 -10 OFFCURVE",
"419 -10 CURVE SMOOTH",
"614 -10 OFFCURVE",
"889 169 OFFCURVE",
"889 410 CURVE SMOOTH",
"889 633 OFFCURVE",
"730 796 OFFCURVE",
"490 796 CURVE SMOOTH",
"409 796 OFFCURVE",
"362 786 OFFCURVE",
"216 786 CURVE"
);
},
{
closed = 1;
nodes = (
"300 715 LINE",
"300 786 LINE",
"60 786 LINE",
"20 706 LINE",
"166 662 LINE"
);
}
);
width = 939;
},
{
anchors = (
{
name = bottom;
position = "{434, 0}";
},
{
name = centre;
position = "{264, 411}";
},
{
name = top;
position = "{403, 786}";
}
);
layerId = "EED98765-8720-4D79-BBF2-40D7DAF3490F";
paths = (
{
closed = 1;
nodes = (
"63 26 LINE",
"63 0 LINE",
"192 0 LINE",
"212 35 LINE",
"169 109 LINE"
);
},
{
closed = 1;
nodes = (
"157 786 LINE",
"157 0 LINE",
"270 0 LINE",
"270 786 LINE"
);
},
{
closed = 1;
nodes = (
"194 609 LINE",
"236 688 OFFCURVE",
"306 737 OFFCURVE",
"390 737 CURVE SMOOTH",
"596 737 OFFCURVE",
"688 562 OFFCURVE",
"688 363 CURVE SMOOTH",
"688 188 OFFCURVE",
"574 60 OFFCURVE",
"425 60 CURVE SMOOTH",
"315 60 OFFCURVE",
"240 90 OFFCURVE",
"196 135 CURVE",
"183 0 LINE",
"288 0 OFFCURVE",
"313 -10 OFFCURVE",
"397 -10 CURVE SMOOTH",
"569 -10 OFFCURVE",
"810 169 OFFCURVE",
"810 410 CURVE SMOOTH",
"810 633 OFFCURVE",
"674 796 OFFCURVE",
"468 796 CURVE SMOOTH",
"383 796 OFFCURVE",
"334 786 OFFCURVE",
"182 786 CURVE"
);
},
{
closed = 1;
nodes = (
"221 760 LINE",
"221 786 LINE",
"71 786 LINE",
"54 751 LINE",
"189 707 LINE"
);
}
);
width = 883;
}
);
leftKerningGroup = I;
leftMetricsKey = I;
rightKerningGroup = O;
rightMetricsKey = O;
unicode = 0044;
},
{
color = 5;
glyphname = Eth;
lastChange = "2018-11-19 15:45:04 +0000";
layers = (
{
background = {
paths = (
{
closed = 1;
nodes = (
"478 434 LINE",
"0 434 LINE",
"0 349 LINE",
"478 349 LINE"
);
}
);
};
components = (
{
name = D;
},
{
name = strokeshortcomb;
transform = "{1, 0, 0, 1, -35, 0}";
}
);
guideLines = (
{
angle = 90;
position = "{40, 171}";
}
);
layerId = "2CCCAF06-0AAA-44C6-8F00-0A68246BB68E";
width = 939;
},
{
components = (
{
name = D;
},
{
name = strokeshortcomb;
transform = "{1, 0, 0, 1, -40, 0}";
}
);
layerId = "EED98765-8720-4D79-BBF2-40D7DAF3490F";
width = 883;
}
);
leftKerningGroup = I;
rightKerningGroup = O;
unicode = 00D0;
},
{
color = 1;
glyphname = E;
lastChange = "2018-11-19 17:00:16 +0000";
layers = (
{
anchors = (
{
name = bottom;
position = "{427, 0}";
},
{
name = ogonek;
position = "{726, 0}";
},
{
name = top;
position = "{427, 786}";
}
);
background = {
paths = (
{
closed = 1;
nodes = (
"80 31 LINE",
"80 0 LINE",
"221 0 LINE",
"241 40 LINE",
"186 114 LINE"
);
},
{
closed = 1;
nodes = (
"174 786 LINE",
"174 0 LINE",
"299 0 LINE",
"299 786 LINE"
);
},
{
closed = 1;
nodes = (
"279 755 LINE",
"279 786 LINE",
"90 786 LINE",
"70 746 LINE",
"288 672 LINE"
);
},
{
closed = 1;
nodes = (
"726 45 LINE",
"238 45 LINE",
"238 0 LINE",
"726 0 LINE"
);
},
{
closed = 1;
nodes = (
"734 -18 LINE",
"734 232 LINE",
"704 242 LINE",
"561 30 LINE",
"659 7 LINE"
);
},
{
closed = 1;
nodes = (
"716 786 LINE",
"238 786 LINE",
"238 741 LINE",
"716 741 LINE"
);
},
{
closed = 1;
nodes = (
"551 756 LINE",
"694 544 LINE",
"724 554 LINE",
"724 804 LINE",
"649 779 LINE"
);
},
{
closed = 1;
nodes = (
"516 424 LINE",
"238 424 LINE",
"238 379 LINE",
"516 379 LINE"
);
},
{
closed = 1;
nodes = (
"520 228 LINE",
"560 248 LINE",
"560 552 LINE",
"529 552 LINE",
"446 406 LINE"
);
}
);
};
layerId = "2CCCAF06-0AAA-44C6-8F00-0A68246BB68E";
paths = (
{
closed = 1;
nodes = (
"40 71 LINE",
"40 0 LINE",
"221 0 LINE",
"241 80 LINE",
"146 154 LINE"
);
},
{
closed = 1;
nodes = (
"134 786 LINE",
"134 0 LINE",
"349 0 LINE",
"349 786 LINE"
);
},
{
closed = 1;
nodes = (
"279 715 LINE",
"279 786 LINE",
"60 786 LINE",
"20 706 LINE",
"288 632 LINE"
);
},
{
closed = 1;
nodes = (
"766 95 LINE",
"238 95 LINE",
"238 0 LINE",
"766 0 LINE"
);
},
{
closed = 1;
nodes = (
"774 -18 LINE",
"774 272 LINE",
"704 302 LINE",
"541 70 LINE",
"659 7 LINE"
);
},
{
closed = 1;
nodes = (
"756 786 LINE",
"238 786 LINE",
"238 691 LINE",
"756 691 LINE"
);
},
{
closed = 1;
nodes = (
"511 776 LINE",
"694 504 LINE",
"764 534 LINE",
"764 804 LINE",
"649 779 LINE"
);
},
{
closed = 1;
nodes = (
"546 449 LINE",
"238 449 LINE",
"238 354 LINE",
"546 354 LINE"
);
},
{
closed = 1;
nodes = (
"510 228 LINE",
"590 268 LINE",
"590 552 LINE",
"519 552 LINE",
"416 406 LINE"
);
}
);
width = 824;
},
{
anchors = (
{
name = bottom;
position = "{405, 0}";
},
{
name = ogonek;
position = "{704, 0}";
},
{
name = top;
position = "{405, 786}";
}
);
layerId = "EED98765-8720-4D79-BBF2-40D7DAF3490F";
paths = (
{
closed = 1;
nodes = (
"63 26 LINE",
"63 0 LINE",
"199 0 LINE",
"219 35 LINE",
"169 109 LINE"
);
},
{
closed = 1;
nodes = (
"157 786 LINE",
"157 0 LINE",
"270 0 LINE",
"270 786 LINE"
);
},
{
closed = 1;
nodes = (
"257 760 LINE",
"257 786 LINE",
"71 786 LINE",
"54 751 LINE",
"266 677 LINE"
);
},
{
closed = 1;
nodes = (
"699 39 LINE",
"216 39 LINE",
"216 0 LINE",
"699 0 LINE"
);
},
{
closed = 1;
nodes = (
"707 -18 LINE",
"707 227 LINE",
"682 235 LINE",
"541 25 LINE",
"637 7 LINE"
);
},
{
closed = 1;
nodes = (
"689 786 LINE",
"216 786 LINE",
"216 747 LINE",
"689 747 LINE"
);
},
{
closed = 1;
nodes = (
"534 776 LINE",
"672 572 LINE",
"697 579 LINE",
"697 804 LINE",
"627 779 LINE"
);
},
{
closed = 1;
nodes = (
"490 421 LINE",
"216 421 LINE",
"216 382 LINE",
"490 382 LINE"
);
},
{
closed = 1;
nodes = (
"499 228 LINE",
"534 246 LINE",
"534 552 LINE",
"508 552 LINE",
"427 406 LINE"
);
}
);
width = 813;
}
);
leftKerningGroup = I;
leftMetricsKey = I;
rightKerningGroup = E;
unicode = 0045;
},
{
glyphname = F;
lastChange = "2018-11-07 19:47:57 +0000";
layers = (
{
anchors = (
{
name = bottom;
position = "{247, 0}";
},
{
name = top;
position = "{427, 786}";
}
);
background = {
paths = (
{
closed = 1;
nodes = (
"174 786 LINE",
"174 0 LINE",
"299 0 LINE",
"299 786 LINE"
);
},
{
closed = 1;
nodes = (
"279 755 LINE",
"279 786 LINE",
"90 786 LINE",
"70 746 LINE",
"288 672 LINE"
);
},
{
closed = 1;
nodes = (
"716 786 LINE",
"238 786 LINE",
"238 741 LINE",
"716 741 LINE"
);
},
{
closed = 1;
nodes = (
"551 776 LINE",
"694 564 LINE",
"724 574 LINE",
"724 804 LINE",
"649 779 LINE"
);
},
{
closed = 1;
nodes = (
"516 424 LINE",
"238 424 LINE",
"238 379 LINE",
"516 379 LINE"
);
},
{
closed = 1;
nodes = (
"520 258 LINE",
"560 278 LINE",
"560 552 LINE",
"529 552 LINE",
"446 406 LINE"
);
},
{
closed = 1;
nodes = (
"80 31 LINE",
"80 0 LINE",
"434 0 LINE",
"454 40 LINE",
"186 114 LINE"
);
}
);
};
layerId = "2CCCAF06-0AAA-44C6-8F00-0A68246BB68E";
paths = (
{
closed = 1;
nodes = (
"134 786 LINE",
"134 0 LINE",
"349 0 LINE",
"349 786 LINE"
);
},
{
closed = 1;
nodes = (
"40 71 LINE",
"40 0 LINE",
"494 0 LINE",
"534 80 LINE",
"146 154 LINE"
);
},
{
closed = 1;
nodes = (
"238 449 LINE",
"238 354 LINE",
"476 354 LINE",
"476 449 LINE"
);
},
{
closed = 1;
nodes = (
"60 786 LINE",
"20 706 LINE",
"288 632 LINE",
"279 715 LINE",
"279 786 LINE"
);
},
{
closed = 1;
nodes = (
"519 552 LINE",
"416 406 LINE",
"510 208 LINE",
"590 248 LINE",
"590 552 LINE"
);
},
{
closed = 1;
nodes = (
"238 786 LINE",
"238 691 LINE",
"756 691 LINE",
"756 786 LINE"
);
},
{
closed = 1;
nodes = (
"649 779 LINE",
"531 736 LINE",
"694 504 LINE",
"764 534 LINE",
"764 804 LINE"
);
}
);
width = 784;
},
{
anchors = (
{
name = bottom;
position = "{216, 0}";
},
{
name = top;
position = "{405, 786}";
}
);
layerId = "EED98765-8720-4D79-BBF2-40D7DAF3490F";
paths = (
{
closed = 1;
nodes = (
"157 786 LINE",
"157 0 LINE",
"270 0 LINE",
"270 786 LINE"
);
},
{
closed = 1;
nodes = (
"63 26 LINE",
"63 0 LINE",
"404 0 LINE",
"422 35 LINE",
"169 109 LINE"
);
},
{
closed = 1;
nodes = (
"216 421 LINE",
"216 382 LINE",
"499 382 LINE",
"499 421 LINE"
);
},
{
closed = 1;
nodes = (
"71 786 LINE",
"54 751 LINE",
"266 677 LINE",
"257 760 LINE",
"257 786 LINE"
);
},
{
closed = 1;
nodes = (
"508 552 LINE",
"427 406 LINE",
"499 264 LINE",
"534 282 LINE",
"534 552 LINE"
);
},
{
closed = 1;
nodes = (
"216 786 LINE",
"216 747 LINE",
"689 747 LINE",
"689 786 LINE"
);
},
{
closed = 1;
nodes = (
"627 779 LINE",
"531 781 LINE",
"672 572 LINE",
"697 579 LINE",
"697 804 LINE"
);
}
);
width = 773;
}
);
leftKerningGroup = I;
leftMetricsKey = I;
rightKerningGroup = F;
rightMetricsKey = L;
unicode = 0046;
},
{
glyphname = G;
lastChange = "2018-10-29 15:11:46 +0000";
layers = (
{
anchors = (
{
name = bottom;
position = "{510, 0}";
},
{
name = top;
position = "{500, 786}";
}
);
background = {
paths = (
{
closed = 1;
nodes = (
"363 806 OFFCURVE",
"100 623 OFFCURVE",
"100 375 CURVE SMOOTH",
"100 146 OFFCURVE",
"252 -20 OFFCURVE",
"477 -20 CURVE SMOOTH",
"525 -20 OFFCURVE",
"580 -18 OFFCURVE",
"643 2 CURVE",
"827 115 LINE",
"797 163 LINE",
"669 58 OFFCURVE",
"588 65 OFFCURVE",
"535 65 CURVE SMOOTH",
"328 64 OFFCURVE",
"235 234 OFFCURVE",
"235 423 CURVE SMOOTH",
"235 596 OFFCURVE",
"346 722 OFFCURVE",
"492 722 CURVE SMOOTH",
"593 722 OFFCURVE",
"684 678 OFFCURVE",
"756 565 CURVE",
"794 565 LINE",
"794 759 LINE",
"748 782 OFFCURVE",
"627 806 OFFCURVE",
"550 806 CURVE SMOOTH"
);
},
{
closed = 1;
nodes = (
"675 46 LINE",
"800 126 LINE",
"800 353 LINE",
"675 380 LINE"
);
},
{
closed = 1;
nodes = (
"541 406 LINE",
"521 366 LINE",
"789 292 LINE",
"895 375 LINE",
"895 406 LINE"
);
}
);
};
layerId = "2CCCAF06-0AAA-44C6-8F00-0A68246BB68E";
paths = (
{
closed = 1;
nodes = (
"343 806 OFFCURVE",
"50 623 OFFCURVE",
"50 375 CURVE SMOOTH",
"50 146 OFFCURVE",
"222 -20 OFFCURVE",
"477 -20 CURVE SMOOTH",
"537 -20 OFFCURVE",
"604 -18 OFFCURVE",
"683 2 CURVE",
"867 115 LINE",
"837 193 LINE",
"731 110 OFFCURVE",
"596 115 OFFCURVE",
"535 115 CURVE SMOOTH",
"363 114 OFFCURVE",
"285 259 OFFCURVE",
"285 423 CURVE SMOOTH",
"285 566 OFFCURVE",
"376 672 OFFCURVE",
"492 672 CURVE SMOOTH",
"573 672 OFFCURVE",
"649 622 OFFCURVE",
"706 495 CURVE",
"834 495 LINE",
"834 759 LINE",
"780 782 OFFCURVE",
"639 806 OFFCURVE",
"550 806 CURVE SMOOTH"
);
},
{
closed = 1;
nodes = (
"625 46 LINE",
"840 126 LINE",
"840 378 LINE",
"625 378 LINE"
);
},
{
closed = 1;
nodes = (
"501 406 LINE",
"461 326 LINE",
"829 242 LINE",
"935 335 LINE",
"935 406 LINE"
);
}
);
width = 960;
},
{
anchors = (
{
name = bottom;
position = "{476, 0}";
},
{
name = top;
position = "{466, 786}";
}
);
layerId = "EED98765-8720-4D79-BBF2-40D7DAF3490F";
paths = (
{
closed = 1;
nodes = (
"332 806 OFFCURVE",
"73 623 OFFCURVE",
"73 375 CURVE SMOOTH",
"73 146 OFFCURVE",
"222 -20 OFFCURVE",
"443 -20 CURVE SMOOTH",
"490 -20 OFFCURVE",
"543 -18 OFFCURVE",
"604 2 CURVE",
"788 115 LINE",
"758 159 LINE",
"628 52 OFFCURVE",
"553 59 OFFCURVE",
"501 59 CURVE SMOOTH",
"290 58 OFFCURVE",
"195 231 OFFCURVE",
"195 423 CURVE SMOOTH",
"195 600 OFFCURVE",
"309 728 OFFCURVE",
"458 728 CURVE SMOOTH",
"562 728 OFFCURVE",
"655 685 OFFCURVE",
"729 574 CURVE",
"755 574 LINE",
"755 759 LINE",
"710 782 OFFCURVE",
"592 806 OFFCURVE",
"516 806 CURVE SMOOTH"
);
},
{
closed = 1;
nodes = (
"648 46 LINE",
"761 126 LINE",
"761 377 LINE",
"648 380 LINE"
);
},
{
closed = 1;
nodes = (
"512 406 LINE",
"495 371 LINE",
"750 298 LINE",
"856 380 LINE",
"856 406 LINE"
);
}
);
width = 904;
}
);
leftKerningGroup = O;
leftMetricsKey = O;
rightKerningGroup = G;
unicode = 0047;
},
{
glyphname = H;
lastChange = "2018-11-07 19:48:21 +0000";
layers = (
{
anchors = (
{
name = bottom;
position = "{502, 0}";
},
{
name = center;
position = "{502, 393}";
},
{
name = top;
position = "{502, 786}";
}
);
background = {
paths = (
{
closed = 1;
nodes = (
"85 31 LINE",
"85 0 LINE",
"389 0 LINE",
"409 40 LINE",
"191 114 LINE"
);
},
{
closed = 1;
nodes = (
"179 760 LINE",
"179 0 LINE",
"304 0 LINE",
"304 733 LINE"
);
},
{
closed = 1;
nodes = (
"399 755 LINE",
"399 786 LINE",
"95 786 LINE",
"75 746 LINE",
"293 672 LINE"
);
},
{
closed = 1;
nodes = (
"605 31 LINE",
"605 0 LINE",
"909 0 LINE",
"929 40 LINE",
"711 114 LINE"
);
},
{
closed = 1;
nodes = (
"699 760 LINE",
"699 0 LINE",
"824 0 LINE",
"824 733 LINE"
);
},
{
closed = 1;
nodes = (
"919 755 LINE",
"919 786 LINE",
"615 786 LINE",
"595 746 LINE",
"813 672 LINE"
);
},
{
closed = 1;
nodes = (
"761 414 LINE",
"243 414 LINE",
"243 369 LINE",
"761 369 LINE"
);
},
{
closed = 1;
nodes = (
"444 715 LINE",
"444 786 LINE",
"105 786 LINE",
"65 706 LINE",
"338 622 LINE"
);
},
{
closed = 1;
nodes = (
"35 71 LINE",
"35 0 LINE",
"374 0 LINE",
"414 80 LINE",
"141 164 LINE"
);
}
);
};
layerId = "2CCCAF06-0AAA-44C6-8F00-0A68246BB68E";
leftMetricsKey = "=I";
rightMetricsKey = "=I";
paths = (
{
closed = 1;
nodes = (
"40 71 LINE",
"40 0 LINE",
"424 0 LINE",
"464 80 LINE",
"146 164 LINE"
);
},
{
closed = 1;
nodes = (
"134 786 LINE",
"134 0 LINE",
"349 0 LINE",
"349 786 LINE"
);
},
{
closed = 1;
nodes = (
"444 715 LINE",
"444 786 LINE",
"60 786 LINE",
"20 706 LINE",
"338 622 LINE"
);
},
{
closed = 1;
nodes = (
"560 71 LINE",
"560 0 LINE",
"944 0 LINE",
"984 80 LINE",
"666 164 LINE"
);
},
{
closed = 1;
nodes = (
"654 786 LINE",
"654 0 LINE",
"869 0 LINE",
"869 786 LINE"
);
},
{
closed = 1;
nodes = (
"964 715 LINE",
"964 786 LINE",
"580 786 LINE",
"540 706 LINE",
"858 622 LINE"
);
},
{
closed = 1;
nodes = (
"721 439 LINE",
"243 439 LINE",
"243 344 LINE",
"721 344 LINE"
);
}
);
width = 1004;
},
{
anchors = (
{
name = bottom;
position = "{474, 0}";
},
{
name = center;
position = "{474, 393}";
},
{
name = top;
position = "{474, 786}";
}
);
layerId = "EED98765-8720-4D79-BBF2-40D7DAF3490F";
paths = (
{
closed = 1;
nodes = (
"63 26 LINE",
"63 0 LINE",
"357 0 LINE",
"374 35 LINE",
"169 108 LINE"
);
},
{
closed = 1;
nodes = (
"157 786 LINE",
"157 0 LINE",
"270 0 LINE",
"270 786 LINE"
);
},
{
closed = 1;
nodes = (
"365 760 LINE",
"365 786 LINE",
"71 786 LINE",
"54 751 LINE",
"259 678 LINE"
);
},
{
closed = 1;
nodes = (
"583 26 LINE",
"583 0 LINE",
"877 0 LINE",
"894 35 LINE",
"689 108 LINE"
);
},
{
closed = 1;
nodes = (
"677 786 LINE",
"677 0 LINE",
"790 0 LINE",
"790 786 LINE"
);
},
{
closed = 1;
nodes = (
"885 760 LINE",
"885 786 LINE",
"591 786 LINE",
"574 751 LINE",
"779 678 LINE"
);
},
{
closed = 1;
nodes = (
"738 411 LINE",
"215 411 LINE",
"215 372 LINE",
"738 372 LINE"
);
}
);
width = 948;
}
);
leftKerningGroup = I;
leftMetricsKey = I;
rightKerningGroup = I;
rightMetricsKey = I;
unicode = 0048;
},
{
color = 8;
glyphname = Hbar;
lastChange = "2018-11-09 15:04:18 +0000";
layers = (
{
components = (
{
name = H;
}
);
guideLines = (
{
angle = 90;
position = "{60, 171}";
}
);
layerId = "2CCCAF06-0AAA-44C6-8F00-0A68246BB68E";
paths = (
{
closed = 1;
nodes = (
"1003 609 LINE",
"0 609 LINE",
"0 514 LINE",
"1003 514 LINE"
);
}
);
width = 1004;
},
{
components = (
{
alignment = -1;
name = H;
}
);
layerId = "EED98765-8720-4D79-BBF2-40D7DAF3490F";
paths = (
{
closed = 1;
nodes = (
"948 592 LINE",
"0 592 LINE",
"0 553 LINE",
"948 553 LINE"
);
}
);
width = 948;
}
);
leftKerningGroup = I;
rightKerningGroup = I;
unicode = 0126;
},
{
glyphname = I;
lastChange = "2018-11-07 19:48:35 +0000";
layers = (
{
anchors = (
{
name = bottom;
position = "{242, 0}";
},
{
name = ogonek;
position = "{424, 0}";
},
{
name = top;
position = "{242, 786}";
}
);
layerId = "2CCCAF06-0AAA-44C6-8F00-0A68246BB68E";
paths = (
{
closed = 1;
nodes = (
"40 71 LINE",
"40 0 LINE",
"424 0 LINE",
"464 80 LINE",
"146 164 LINE"
);
},
{
closed = 1;
nodes = (
"134 786 LINE",
"134 0 LINE",
"349 0 LINE",
"349 786 LINE"
);
},
{
closed = 1;
nodes = (
"444 715 LINE",
"444 786 LINE",
"60 786 LINE",
"20 706 LINE",
"338 622 LINE"
);
}
);
width = 484;
},
{
anchors = (
{
name = bottom;
position = "{214, 0}";
},
{
name = ogonek;
position = "{357, 0}";
},
{
name = top;
position = "{214, 786}";
}
);
layerId = "EED98765-8720-4D79-BBF2-40D7DAF3490F";
paths = (
{
closed = 1;
nodes = (
"63 26 LINE",
"63 0 LINE",
"357 0 LINE",
"374 35 LINE",
"169 108 LINE"
);
},
{
closed = 1;
nodes = (
"157 786 LINE",
"157 0 LINE",
"270 0 LINE",
"270 786 LINE"
);
},
{
closed = 1;
nodes = (
"365 760 LINE",
"365 786 LINE",
"71 786 LINE",
"54 751 LINE",
"259 678 LINE"
);
}
);
width = 428;
}
);
leftKerningGroup = I;
rightKerningGroup = I;
unicode = 0049;
},
{
glyphname = J;
lastChange = "2018-11-07 19:48:51 +0000";
layers = (
{
anchors = (
{
name = bottom;
position = "{217, -120}";
},
{
name = top;
position = "{227, 786}";
}
);
background = {
paths = (
{
closed = 1;
nodes = (
"164 11 LINE SMOOTH",
"164 -87 OFFCURVE",
"143 -139 OFFCURVE",
"68 -234 CURVE",
"106 -264 LINE",
"298 -20 LINE",
"293 -4 OFFCURVE",
"289 45 OFFCURVE",
"289 99 CURVE SMOOTH",
"289 733 LINE",
"164 760 LINE"
);
},
{
closed = 1;
nodes = (
"80 786 LINE",
"60 746 LINE",
"278 672 LINE",
"384 755 LINE",
"384 786 LINE"
);
}
);
};
layerId = "2CCCAF06-0AAA-44C6-8F00-0A68246BB68E";
rightMetricsKey = "=I-10";
paths = (
{
closed = 1;
nodes = (
"114 786 LINE",
"114 41 LINE SMOOTH",
"114 -57 OFFCURVE",
"93 -109 OFFCURVE",
"13 -204 CURVE",
"91 -264 LINE",
"338 -20 LINE",
"333 -4 OFFCURVE",
"329 45 OFFCURVE",
"329 99 CURVE SMOOTH",
"329 786 LINE"
);
},
{
closed = 1;
nodes = (
"20 786 LINE",
"-20 706 LINE",
"318 632 LINE",
"424 715 LINE",
"424 786 LINE"
);
}
);
width = 434;
},
{
anchors = (
{
name = bottom;
position = "{212, -120}";
},
{
name = top;
position = "{216, 786}";
}
);
layerId = "EED98765-8720-4D79-BBF2-40D7DAF3490F";
paths = (
{
closed = 1;
nodes = (
"159 786 LINE",
"159 7 LINE SMOOTH",
"159 -91 OFFCURVE",
"138 -143 OFFCURVE",
"64 -238 CURVE",
"97 -264 LINE",
"282 -20 LINE",
"277 -4 OFFCURVE",
"273 45 OFFCURVE",
"273 99 CURVE SMOOTH",
"273 786 LINE"
);
},
{
closed = 1;
nodes = (
"54 786 LINE",
"36 751 LINE",
"262 677 LINE",
"368 760 LINE",
"368 786 LINE"
);
}
);
width = 423;
}
);
leftKerningGroup = I;
rightKerningGroup = I;
rightMetricsKey = I;
unicode = 004A;
},
{
glyphname = K;
lastChange = "2018-10-29 15:11:46 +0000";
layers = (
{
anchors = (
{
name = bottom;
position = "{495, 0}";
},
{
name = top;
position = "{485, 786}";
}
);
background = {
paths = (
{
closed = 1;
nodes = (
"598 786 LINE",
"578 746 LINE",
"685 668 LINE",
"734 723 LINE",
"357 394 LINE",
"667 0 LINE",
"848 0 LINE",
"868 40 LINE",
"715 114 LINE",
"794 43 LINE",
"458 464 LINE",
"460 426 LINE",
"837 755 LINE",
"837 786 LINE"
);
},
{
closed = 1;
nodes = (
"80 31 LINE",
"80 0 LINE",
"384 0 LINE",
"404 40 LINE",
"186 114 LINE"
);
},
{
closed = 1;
nodes = (
"174 0 LINE",
"299 0 LINE",
"299 733 LINE",
"174 760 LINE"
);
},
{
closed = 1;
nodes = (
"90 786 LINE",
"70 746 LINE",
"288 672 LINE",
"394 755 LINE",
"394 786 LINE"
);
}
);
};
layerId = "2CCCAF06-0AAA-44C6-8F00-0A68246BB68E";
leftMetricsKey = "=I";
paths = (
{
closed = 1;
nodes = (
"578 786 LINE",
"538 706 LINE",
"712 607 LINE",
"704 683 LINE",
"377 394 LINE",
"647 0 LINE",
"878 0 LINE",
"918 80 LINE",
"755 154 LINE",
"844 83 LINE",
"548 504 LINE",
"570 426 LINE",
"897 715 LINE",
"897 786 LINE"
);
},
{
closed = 1;
nodes = (
"40 71 LINE",
"40 0 LINE",
"424 0 LINE",
"464 80 LINE",
"146 164 LINE"
);
},
{
closed = 1;
nodes = (
"134 786 LINE",
"134 0 LINE",
"349 0 LINE",
"349 786 LINE"
);
},
{
closed = 1;
nodes = (
"60 786 LINE",
"20 706 LINE",
"338 622 LINE",
"444 715 LINE",
"444 786 LINE"
);
}
);
width = 930;
},
{
anchors = (
{
name = bottom;
position = "{450, 0}";
},
{
name = top;
position = "{451, 786}";
}
);
layerId = "EED98765-8720-4D79-BBF2-40D7DAF3490F";
paths = (
{
closed = 1;
nodes = (
"544 786 LINE",
"527 751 LINE",
"656 653 LINE",
"715 728 LINE",
"332 394 LINE",
"647 0 LINE",
"822 0 LINE",
"839 35 LINE",
"688 109 LINE",
"765 38 LINE",
"424 459 LINE",
"424 426 LINE",
"807 760 LINE",
"807 786 LINE"
);
},
{
closed = 1;
nodes = (
"63 26 LINE",
"63 0 LINE",
"357 0 LINE",
"374 35 LINE",
"169 108 LINE"
);
},
{
closed = 1;
nodes = (
"157 786 LINE",
"157 0 LINE",
"270 0 LINE",
"270 786 LINE"
);
},
{
closed = 1;
nodes = (
"71 786 LINE",
"54 751 LINE",
"259 678 LINE",
"365 760 LINE",
"365 786 LINE"
);
}
);
width = 851;
}
);
leftKerningGroup = I;
leftMetricsKey = I;
rightKerningGroup = K;
unicode = 004B;
},
{
color = 1;
glyphname = L;
lastChange = "2018-11-07 19:49:23 +0000";
layers = (
{
anchors = (
{
name = bottom;
position = "{422, 0}";
},
{
name = center;
position = "{250, 393}";
},
{
name = top;
position = "{254, 786}";
},
{
name = topright;
position = "{509, 456}";
}
);
background = {
paths = (
{
closed = 1;
nodes = (
"80 31 LINE",
"80 0 LINE",
"221 0 LINE",
"241 40 LINE",
"186 114 LINE"
);
},
{
closed = 1;
nodes = (
"174 786 LINE",
"174 0 LINE",
"299 0 LINE",
"299 786 LINE"
);
},
{
closed = 1;
nodes = (
"394 755 LINE",
"394 786 LINE",
"90 786 LINE",
"70 746 LINE",
"288 672 LINE"
);
},
{
closed = 1;
nodes = (
"726 45 LINE",
"238 45 LINE",
"238 0 LINE",
"726 0 LINE"
);
},
{
closed = 1;
nodes = (
"734 -18 LINE",
"734 252 LINE",
"704 262 LINE",
"545 27 LINE",
"659 7 LINE"
);
}
);
};
layerId = "2CCCAF06-0AAA-44C6-8F00-0A68246BB68E";
leftMetricsKey = "=I";
paths = (
{
closed = 1;
nodes = (
"40 71 LINE",
"40 0 LINE",
"181 0 LINE",
"201 80 LINE",
"146 154 LINE"
);
},
{
closed = 1;
nodes = (
"134 786 LINE",
"134 0 LINE",
"349 0 LINE",
"349 786 LINE"
);
},
{
closed = 1;
nodes = (
"444 715 LINE",
"444 786 LINE",
"60 786 LINE",
"20 706 LINE",
"338 632 LINE"
);
},
{
closed = 1;
nodes = (
"776 95 LINE",
"198 95 LINE",
"198 0 LINE",
"776 0 LINE"
);
},
{
closed = 1;
nodes = (
"784 -18 LINE",
"784 292 LINE",
"714 322 LINE",
"535 67 LINE",
"669 7 LINE"
);
}
);
width = 804;
},
{
anchors = (
{
name = bottom;
position = "{388, 0}";
},
{
name = center;
position = "{217, 393}";
},
{
name = top;
position = "{232, 786}";
},
{
name = topright;
position = "{430, 443}";
}
);
layerId = "EED98765-8720-4D79-BBF2-40D7DAF3490F";
paths = (
{
closed = 1;
nodes = (
"63 26 LINE",
"63 0 LINE",
"204 0 LINE",
"224 35 LINE",
"169 109 LINE"
);
},
{
closed = 1;
nodes = (
"157 786 LINE",
"157 0 LINE",
"270 0 LINE",
"270 786 LINE"
);
},
{
closed = 1;
nodes = (
"365 760 LINE",
"365 786 LINE",
"71 786 LINE",
"54 751 LINE",
"259 677 LINE"
);
},
{
closed = 1;
nodes = (
"697 39 LINE",
"221 39 LINE",
"221 0 LINE",
"697 0 LINE"
);
},
{
closed = 1;
nodes = (
"705 -18 LINE",
"705 247 LINE",
"680 255 LINE",
"524 22 LINE",
"635 7 LINE"
);
}
);
width = 783;
}
);
leftKerningGroup = I;
leftMetricsKey = I;
rightKerningGroup = L;
unicode = 004C;
},
{
color = 8;
glyphname = Lslash;
lastChange = "2018-11-09 15:04:15 +0000";
layers = (
{
components = (
{
name = L;
}
);
layerId = "2CCCAF06-0AAA-44C6-8F00-0A68246BB68E";
paths = (
{
closed = 1;
nodes = (
"215 283 LINE",
"556 552 LINE",
"556 609 LINE",
"215 340 LINE"
);
},
{
closed = 1;
nodes = (
"215 384 LINE",
"0 214 LINE",
"0 157 LINE",
"215 327 LINE"
);
}
);
width = 784;
},
{
components = (
{
alignment = -1;
name = L;
}
);
layerId = "EED98765-8720-4D79-BBF2-40D7DAF3490F";
paths = (
{
closed = 1;
nodes = (
"215 283 LINE",
"556 552 LINE",
"556 609 LINE",
"215 340 LINE"
);
},
{
closed = 1;
nodes = (
"215 384 LINE",
"0 214 LINE",
"0 157 LINE",
"215 327 LINE"
);
}
);
width = 784;
}
);
leftKerningGroup = I;
rightKerningGroup = L;
unicode = 0141;
},
{
color = 1;
glyphname = M;
lastChange = "2018-11-07 19:49:46 +0000";
layers = (
{
anchors = (
{
name = bottom;
position = "{548, 0}";
},
{
name = top;
position = "{585, 786}";
}
);
background = {
paths = (
{
closed = 1;
nodes = (
"70 31 LINE",
"70 0 LINE",
"304 0 LINE",
"324 40 LINE",
"176 114 LINE"
);
},
{
closed = 1;
nodes = (
"164 786 LINE",
"164 0 LINE",
"219 0 LINE",
"219 786 LINE"
);
},
{
closed = 1;
nodes = (
"186 786 LINE",
"80 786 LINE",
"60 746 LINE",
"198 672 LINE"
);
},
{
closed = 1;
nodes = (
"796 786 LINE",
"484 0 LINE",
"539 0 LINE",
"858 786 LINE"
);
},
{
closed = 1;
nodes = (
"196 680 LINE",
"484 0 LINE",
"558 130 LINE",
"280 786 LINE",
"188 786 LINE"
);
},
{
closed = 1;
nodes = (
"712 31 LINE",
"712 0 LINE",
"1016 0 LINE",
"1036 40 LINE",
"818 114 LINE"
);
},
{
closed = 1;
nodes = (
"806 786 LINE",
"806 0 LINE",
"931 0 LINE",
"931 786 LINE"
);
},
{
closed = 1;
nodes = (
"1026 755 LINE",
"1026 786 LINE",
"873 786 LINE",
"853 746 LINE",
"920 672 LINE"
);
}
);
};
layerId = "2CCCAF06-0AAA-44C6-8F00-0A68246BB68E";
leftMetricsKey = "=I";
rightMetricsKey = "=I";
paths = (
{
closed = 1;
nodes = (
"40 71 LINE",
"40 0 LINE",
"314 0 LINE",
"354 80 LINE",
"146 154 LINE"
);
},
{
closed = 1;
nodes = (
"134 786 LINE",
"134 0 LINE",
"239 0 LINE",
"239 786 LINE"
);
},
{
closed = 1;
nodes = (
"206 786 LINE",
"60 786 LINE",
"20 706 LINE",
"218 632 LINE"
);
},
{
closed = 1;
nodes = (
"806 786 LINE",
"484 0 LINE",
"589 0 LINE",
"911 786 LINE"
);
},
{
closed = 1;
nodes = (
"216 640 LINE",
"484 0 LINE",
"625 201 LINE",
"380 786 LINE",
"208 786 LINE"
);
},
{
closed = 1;
nodes = (
"732 71 LINE",
"732 0 LINE",
"1116 0 LINE",
"1156 80 LINE",
"838 154 LINE"
);
},
{
closed = 1;
nodes = (
"826 786 LINE",
"826 0 LINE",
"1041 0 LINE",
"1041 786 LINE"
);
},
{
closed = 1;
nodes = (
"1136 715 LINE",
"1136 786 LINE",
"943 786 LINE",
"923 706 LINE",
"1030 632 LINE"
);
}
);
width = 1176;
},
{
anchors = (
{
name = bottom;
position = "{509, 0}";
},
{
name = top;
position = "{509, 786}";
}
);
layerId = "EED98765-8720-4D79-BBF2-40D7DAF3490F";
paths = (
{
closed = 1;
nodes = (
"63 26 LINE",
"63 0 LINE",
"292 0 LINE",
"309 35 LINE",
"169 109 LINE"
);
},
{
closed = 1;
nodes = (
"157 786 LINE",
"157 0 LINE",
"205 0 LINE",
"205 786 LINE"
);
},
{
closed = 1;
nodes = (
"172 786 LINE",
"71 786 LINE",
"54 751 LINE",
"184 677 LINE"
);
},
{
closed = 1;
nodes = (
"784 786 LINE",
"473 0 LINE",
"522 0 LINE",
"840 786 LINE"
);
},
{
closed = 1;
nodes = (
"201 685 LINE",
"473 0 LINE",
"538 121 LINE",
"275 786 LINE",
"174 786 LINE"
);
},
{
closed = 1;
nodes = (
"698 26 LINE",
"698 0 LINE",
"992 0 LINE",
"1010 35 LINE",
"804 109 LINE"
);
},
{
closed = 1;
nodes = (
"792 786 LINE",
"792 0 LINE",
"906 0 LINE",
"906 786 LINE"
);
},
{
closed = 1;
nodes = (
"1001 760 LINE",
"1001 786 LINE",
"853 786 LINE",
"833 751 LINE",
"895 677 LINE"
);
}
);
width = 1065;
}
);
leftKerningGroup = I;
leftMetricsKey = I;
rightKerningGroup = I;
rightMetricsKey = I;
unicode = 004D;
},
{
color = 1;
glyphname = N;
lastChange = "2018-10-29 15:07:35 +0000";
layers = (
{
anchors = (
{
name = bottom;
position = "{462, 0}";
},
{
name = top;
position = "{462, 786}";
}
);
background = {
paths = (
{
closed = 1;
nodes = (
"85 31 LINE",
"85 0 LINE",
"319 0 LINE",
"339 40 LINE",
"191 114 LINE"
);
},
{
closed = 1;
nodes = (
"179 786 LINE",
"179 0 LINE",
"234 0 LINE",
"234 786 LINE"
);
},
{
closed = 1;
nodes = (
"201 786 LINE",
"95 786 LINE",
"75 746 LINE",
"213 672 LINE"
);
},
{
closed = 1;
nodes = (
"709 760 LINE",
"709 0 LINE",
"764 0 LINE",
"764 733 LINE"
);
},
{
closed = 1;
nodes = (
"859 755 LINE",
"859 786 LINE",
"625 786 LINE",
"605 746 LINE",
"753 672 LINE"
);
},
{
closed = 1;
nodes = (
"211 630 LINE",
"709 0 LINE",
"736 166 LINE",
"246 786 LINE",
"203 786 LINE"
);
}
);
};
layerId = "2CCCAF06-0AAA-44C6-8F00-0A68246BB68E";
leftMetricsKey = "=H";
rightMetricsKey = "=H-10";
paths = (
{
closed = 1;
nodes = (
"40 71 LINE",
"40 0 LINE",
"364 0 LINE",
"404 80 LINE",
"146 164 LINE"
);
},
{
closed = 1;
nodes = (
"134 786 LINE",
"134 0 LINE",
"239 0 LINE",
"239 786 LINE"
);
},
{
closed = 1;
nodes = (
"176 786 LINE",
"60 786 LINE",
"20 706 LINE",
"168 622 LINE"
);
},
{
closed = 1;
nodes = (
"704 720 LINE",
"704 0 LINE",
"809 0 LINE",
"809 693 LINE"
);
},
{
closed = 1;
nodes = (
"904 715 LINE",
"904 786 LINE",
"580 786 LINE",
"540 706 LINE",
"798 622 LINE"
);
},
{
closed = 1;
nodes = (
"216 520 LINE",
"704 0 LINE",
"731 276 LINE",
"251 786 LINE",
"178 786 LINE"
);
}
);
width = 914;
},
{
anchors = (
{
name = bottom;
position = "{434, 0}";
},
{
name = top;
position = "{434, 786}";
}
);
layerId = "EED98765-8720-4D79-BBF2-40D7DAF3490F";
paths = (
{
closed = 1;
nodes = (
"63 26 LINE",
"63 0 LINE",
"285 0 LINE",
"303 35 LINE",
"169 108 LINE"
);
},
{
closed = 1;
nodes = (
"157 786 LINE",
"157 0 LINE",
"205 0 LINE",
"205 786 LINE"
);
},
{
closed = 1;
nodes = (
"176 786 LINE",
"71 786 LINE",
"54 751 LINE",
"191 678 LINE"
);
},
{
closed = 1;
nodes = (
"682 765 LINE",
"682 0 LINE",
"730 0 LINE",
"730 738 LINE"
);
},
{
closed = 1;
nodes = (
"825 760 LINE",
"825 786 LINE",
"603 786 LINE",
"585 751 LINE",
"719 678 LINE"
);
},
{
closed = 1;
nodes = (
"182 644 LINE",
"682 0 LINE",
"709 152 LINE",
"217 786 LINE",
"178 786 LINE"
);
}
);
width = 869;
}
);
leftKerningGroup = I;
leftMetricsKey = H;
rightKerningGroup = I;
rightMetricsKey = H;
unicode = 004E;
},
{
color = 7;
glyphname = Eng;
lastChange = "2018-11-09 15:04:15 +0000";
layers = (
{
background = {
paths = (
{
closed = 1;
nodes = (
"719 45 OFFCURVE",
"723 -4 OFFCURVE",
"728 -20 CURVE",
"536 -264 LINE",
"498 -234 LINE",
"573 -139 OFFCURVE",
"594 -87 OFFCURVE",
"594 11 CURVE",
"719 99 LINE"
);
}
);
};
components = (
{
name = N;
}
);
layerId = "2CCCAF06-0AAA-44C6-8F00-0A68246BB68E";
paths = (
{
closed = 1;
nodes = (
"646 13 OFFCURVE",
"636 -51 OFFCURVE",
"493 -204 CURVE",
"571 -264 LINE",
"818 -20 LINE",
"813 -4 OFFCURVE",
"809 45 OFFCURVE",
"809 99 CURVE",
"624 151 LINE"
);
}
);
width = 914;
},
{
components = (
{
alignment = -1;
name = N;
}
);
layerId = "EED98765-8720-4D79-BBF2-40D7DAF3490F";
paths = (
{
closed = 1;
nodes = (
"655 -19 OFFCURVE",
"666 -51 OFFCURVE",
"521 -238 CURVE",
"554 -264 LINE",
"739 -20 LINE",
"734 -4 OFFCURVE",
"730 45 OFFCURVE",
"730 99 CURVE",
"650 90 LINE"
);
}
);
width = 869;
}
);
leftKerningGroup = I;
rightKerningGroup = I;
unicode = 014A;
},
{
glyphname = O;
lastChange = "2018-11-07 20:11:48 +0000";
layers = (
{
anchors = (
{
name = bottom;
position = "{490, 0}";
},
{
name = center;
position = "{490, 393}";
},
{
name = ogonek;
position = "{690, 0}";
},
{
name = top;
position = "{490, 786}";
}
);
background = {
paths = (
{
closed = 1;
nodes = (
"346 806 OFFCURVE",
"95 623 OFFCURVE",
"95 375 CURVE SMOOTH",
"95 146 OFFCURVE",
"239 -20 OFFCURVE",
"454 -20 CURVE SMOOTH",
"633 -20 OFFCURVE",
"884 163 OFFCURVE",
"884 410 CURVE SMOOTH",
"884 639 OFFCURVE",
"741 806 OFFCURVE",
"525 806 CURVE SMOOTH"
);
},
{
closed = 1;
nodes = (
"662 722 OFFCURVE",
"749 554 OFFCURVE",
"749 363 CURVE SMOOTH",
"749 190 OFFCURVE",
"646 64 OFFCURVE",
"512 64 CURVE SMOOTH",
"317 64 OFFCURVE",
"230 234 OFFCURVE",
"230 423 CURVE SMOOTH",
"230 596 OFFCURVE",
"333 722 OFFCURVE",
"467 722 CURVE SMOOTH"
);
}
);
};
layerId = "2CCCAF06-0AAA-44C6-8F00-0A68246BB68E";
paths = (
{
closed = 1;
nodes = (
"330 806 OFFCURVE",
"50 623 OFFCURVE",
"50 375 CURVE SMOOTH",
"50 146 OFFCURVE",
"210 -20 OFFCURVE",
"454 -20 CURVE SMOOTH",
"649 -20 OFFCURVE",
"929 163 OFFCURVE",
"929 410 CURVE SMOOTH",
"929 639 OFFCURVE",
"770 806 OFFCURVE",
"525 806 CURVE SMOOTH"
);
},
{
closed = 1;
nodes = (
"622 672 OFFCURVE",
"694 529 OFFCURVE",
"694 363 CURVE SMOOTH",
"694 220 OFFCURVE",
"612 114 OFFCURVE",
"512 114 CURVE SMOOTH",
"357 114 OFFCURVE",
"285 259 OFFCURVE",
"285 423 CURVE SMOOTH",
"285 566 OFFCURVE",
"367 672 OFFCURVE",
"467 672 CURVE SMOOTH"
);
}
);
width = 979;
},
{
anchors = (
{
name = bottom;
position = "{462, 0}";
},
{
name = center;
position = "{462, 393}";
},
{
name = ogonek;
position = "{631, 0}";
},
{
name = top;
position = "{462, 786}";
}
);
layerId = "EED98765-8720-4D79-BBF2-40D7DAF3490F";
paths = (
{
closed = 1;
nodes = (
"320 806 OFFCURVE",
"73 623 OFFCURVE",
"73 375 CURVE SMOOTH",
"73 146 OFFCURVE",
"215 -20 OFFCURVE",
"426 -20 CURVE SMOOTH",
"603 -20 OFFCURVE",
"850 163 OFFCURVE",
"850 410 CURVE SMOOTH",
"850 639 OFFCURVE",
"709 806 OFFCURVE",
"497 806 CURVE SMOOTH"
);
},
{
closed = 1;
nodes = (
"639 728 OFFCURVE",
"728 557 OFFCURVE",
"728 363 CURVE SMOOTH",
"728 186 OFFCURVE",
"622 58 OFFCURVE",
"484 58 CURVE SMOOTH",
"284 58 OFFCURVE",
"195 231 OFFCURVE",
"195 423 CURVE SMOOTH",
"195 600 OFFCURVE",
"301 728 OFFCURVE",
"439 728 CURVE SMOOTH"
);
}
);
width = 923;
}
);
leftKerningGroup = O;
rightKerningGroup = O;
unicode = 004F;
},
{
glyphname = Oslash;
lastChange = "2018-11-09 15:04:13 +0000";
layers = (
{
background = {
components = (
{
name = O;
}
);
paths = (
{
closed = 1;
nodes = (
"778 935 LINE",
"164 -128 LINE",
"202 -150 LINE",
"816 913 LINE"
);
},
{
closed = 1;
nodes = (
"448 1006 LINE",
"448 -221 LINE",
"532 -221 LINE",
"532 1006 LINE"
);
}
);
};
components = (
{
name = O;
}
);
layerId = "2CCCAF06-0AAA-44C6-8F00-0A68246BB68E";
paths = (
{
closed = 1;
nodes = (
"760 945 LINE",
"147 -118 LINE",
"220 -160 LINE",
"833 903 LINE"
);
}
);
width = 979;
},
{
components = (
{
alignment = -1;
name = O;
transform = "{1, 0, 0, 1, 0, -1}";
}
);
layerId = "EED98765-8720-4D79-BBF2-40D7DAF3490F";
paths = (
{
closed = 1;
nodes = (
"752 934 LINE",
"138 -129 LINE",
"172 -149 LINE",
"786 914 LINE"
);
}
);
width = 923;
}
);
leftKerningGroup = O;
rightKerningGroup = O;
unicode = 00D8;
},
{
color = 7;
glyphname = OE;
lastChange = "2018-10-29 15:07:35 +0000";
layers = (
{
background = {
paths = (
{
closed = 1;
nodes = (
"303 796 OFFCURVE",
"70 617 OFFCURVE",
"70 376 CURVE SMOOTH",
"70 153 OFFCURVE",
"201 -10 OFFCURVE",
"399 -10 CURVE SMOOTH",
"483 -10 OFFCURVE",
"532 0 OFFCURVE",
"683 0 CURVE",
"666 181 LINE",
"626 103 OFFCURVE",
"558 54 OFFCURVE",
"477 54 CURVE SMOOTH",
"289 54 OFFCURVE",
"205 227 OFFCURVE",
"205 423 CURVE SMOOTH",
"205 596 OFFCURVE",
"308 722 OFFCURVE",
"442 722 CURVE SMOOTH",
"548 722 OFFCURVE",
"621 693 OFFCURVE",
"664 649 CURVE",
"682 786 LINE",
"578 786 OFFCURVE",
"553 796 OFFCURVE",
"470 796 CURVE SMOOTH"
);
},
{
closed = 1;
nodes = (
"654 45 LINE",
"654 0 LINE",
"1132 0 LINE",
"1132 45 LINE"
);
},
{
closed = 1;
nodes = (
"590 786 LINE",
"590 0 LINE",
"715 0 LINE",
"715 786 LINE"
);
},
{
closed = 1;
nodes = (
"967 30 LINE",
"1065 7 LINE",
"1140 -18 LINE",
"1140 232 LINE",
"1110 242 LINE"
);
},
{
closed = 1;
nodes = (
"684 424 LINE",
"664 379 LINE",
"922 379 LINE",
"922 424 LINE"
);
},
{
closed = 1;
nodes = (
"935 552 LINE",
"852 406 LINE",
"926 228 LINE",
"966 248 LINE",
"966 552 LINE"
);
},
{
closed = 1;
nodes = (
"654 786 LINE",
"654 741 LINE",
"1122 741 LINE",
"1122 786 LINE"
);
},
{
closed = 1;
nodes = (
"1055 779 LINE",
"957 776 LINE",
"1100 564 LINE",
"1130 574 LINE",
"1130 804 LINE"
);
}
);
};
layerId = "2CCCAF06-0AAA-44C6-8F00-0A68246BB68E";
leftMetricsKey = "=O";
rightMetricsKey = "=E";
paths = (
{
closed = 1;
nodes = (
"325 796 OFFCURVE",
"50 617 OFFCURVE",
"50 376 CURVE SMOOTH",
"50 153 OFFCURVE",
"209 -10 OFFCURVE",
"449 -10 CURVE SMOOTH",
"530 -10 OFFCURVE",
"577 0 OFFCURVE",
"723 0 CURVE",
"666 211 LINE",
"643 139 OFFCURVE",
"588 94 OFFCURVE",
"527 94 CURVE SMOOTH",
"360 94 OFFCURVE",
"285 247 OFFCURVE",
"285 423 CURVE SMOOTH",
"285 578 OFFCURVE",
"376 692 OFFCURVE",
"492 692 CURVE SMOOTH",
"573 692 OFFCURVE",
"627 667 OFFCURVE",
"664 629 CURVE",
"722 786 LINE",
"623 786 OFFCURVE",
"599 796 OFFCURVE",
"520 796 CURVE SMOOTH"
);
},
{
closed = 1;
nodes = (
"694 95 LINE",
"694 0 LINE",
"1182 0 LINE",
"1182 95 LINE"
);
},
{
closed = 1;
nodes = (
"590 786 LINE",
"590 0 LINE",
"805 0 LINE",
"805 786 LINE"
);
},
{
closed = 1;
nodes = (
"957 70 LINE",
"1075 7 LINE",
"1190 -18 LINE",
"1190 272 LINE",
"1120 302 LINE"
);
},
{
closed = 1;
nodes = (
"722 449 LINE",
"722 354 LINE",
"972 354 LINE",
"972 449 LINE"
);
},
{
closed = 1;
nodes = (
"945 552 LINE",
"832 406 LINE",
"936 228 LINE",
"1016 268 LINE",
"1016 552 LINE"
);
},
{
closed = 1;
nodes = (
"694 786 LINE",
"694 691 LINE",
"1172 691 LINE",
"1172 786 LINE"
);
},
{
closed = 1;
nodes = (
"1065 779 LINE",
"927 776 LINE",
"1110 504 LINE",
"1180 534 LINE",
"1180 804 LINE"
);
}
);
width = 1240;
},
{
layerId = "EED98765-8720-4D79-BBF2-40D7DAF3490F";
paths = (
{
closed = 1;
nodes = (
"300 796 OFFCURVE",
"73 617 OFFCURVE",
"73 376 CURVE SMOOTH",
"73 153 OFFCURVE",
"200 -10 OFFCURVE",
"393 -10 CURVE SMOOTH",
"477 -10 OFFCURVE",
"526 0 OFFCURVE",
"678 0 CURVE",
"666 177 LINE",
"624 99 OFFCURVE",
"554 49 OFFCURVE",
"471 49 CURVE SMOOTH",
"280 49 OFFCURVE",
"195 225 OFFCURVE",
"195 423 CURVE SMOOTH",
"195 598 OFFCURVE",
"300 726 OFFCURVE",
"436 726 CURVE SMOOTH",
"545 726 OFFCURVE",
"620 696 OFFCURVE",
"664 652 CURVE",
"677 786 LINE",
"572 786 OFFCURVE",
"547 796 OFFCURVE",
"464 796 CURVE SMOOTH"
);
},
{
closed = 1;
nodes = (
"649 39 LINE",
"649 0 LINE",
"1126 0 LINE",
"1126 39 LINE"
);
},
{
closed = 1;
nodes = (
"590 786 LINE",
"590 0 LINE",
"704 0 LINE",
"704 786 LINE"
);
},
{
closed = 1;
nodes = (
"968 25 LINE",
"1064 7 LINE",
"1134 -18 LINE",
"1134 227 LINE",
"1109 235 LINE"
);
},
{
closed = 1;
nodes = (
"679 421 LINE",
"657 382 LINE",
"916 382 LINE",
"916 421 LINE"
);
},
{
closed = 1;
nodes = (
"934 552 LINE",
"855 406 LINE",
"925 228 LINE",
"960 246 LINE",
"960 552 LINE"
);
},
{
closed = 1;
nodes = (
"649 786 LINE",
"649 747 LINE",
"1116 747 LINE",
"1116 786 LINE"
);
},
{
closed = 1;
nodes = (
"1054 779 LINE",
"961 776 LINE",
"1099 572 LINE",
"1124 579 LINE",
"1124 804 LINE"
);
}
);
width = 1240;
}
);
leftKerningGroup = O;
leftMetricsKey = O;
rightKerningGroup = E;
rightMetricsKey = E;
unicode = 0152;
},
{
color = 1;
glyphname = P;
lastChange = "2018-11-07 20:13:28 +0000";
layers = (
{
anchors = (
{
name = bottom;
position = "{247, 0}";
},
{
name = top;
position = "{400, 786}";
}
);
background = {
paths = (
{
closed = 1;
nodes = (
"134 786 LINE",
"134 0 LINE",
"349 0 LINE",
"349 786 LINE"
);
},
{
closed = 1;
nodes = (
"273 565 LINE",
"305 643 OFFCURVE",
"357 692 OFFCURVE",
"422 692 CURVE SMOOTH",
"512 692 OFFCURVE",
"554 622 OFFCURVE",
"554 533 CURVE SMOOTH",
"554 446 OFFCURVE",
"517 394 OFFCURVE",
"457 394 CURVE SMOOTH",
"371 394 OFFCURVE",
"310 423 OFFCURVE",
"275 467 CURVE",
"257 300 LINE",
"346 300 OFFCURVE",
"368 290 OFFCURVE",
"439 290 CURVE SMOOTH",
"586 290 OFFCURVE",
"789 409 OFFCURVE",
"789 560 CURVE SMOOTH",
"789 693 OFFCURVE",
"678 796 OFFCURVE",
"510 796 CURVE SMOOTH",
"435 796 OFFCURVE",
"392 786 OFFCURVE",
"256 786 CURVE"
);
},
{
closed = 1;
nodes = (
"250 715 LINE",
"250 786 LINE",
"60 786 LINE",
"20 706 LINE",
"166 662 LINE"
);
},
{
closed = 1;
nodes = (
"40 71 LINE",
"40 0 LINE",
"494 0 LINE",
"534 80 LINE",
"146 154 LINE"
);
}
);
};
guideLines = (
{
angle = 90;
position = "{377, 394}";
}
);
layerId = "2CCCAF06-0AAA-44C6-8F00-0A68246BB68E";
leftMetricsKey = "=I";
paths = (
{
closed = 1;
nodes = (
"134 786 LINE",
"134 0 LINE",
"349 0 LINE",
"349 786 LINE"
);
},
{
closed = 1;
nodes = (
"581 281 OFFCURVE",
"789 409 OFFCURVE",
"789 560 CURVE SMOOTH",
"789 693 OFFCURVE",
"678 796 OFFCURVE",
"510 796 CURVE SMOOTH",
"435 796 OFFCURVE",
"392 786 OFFCURVE",
"256 786 CURVE",
"273 565 LINE",
"305 643 OFFCURVE",
"357 692 OFFCURVE",
"422 692 CURVE SMOOTH",
"512 692 OFFCURVE",
"554 622 OFFCURVE",
"554 533 CURVE SMOOTH",
"554 446 OFFCURVE",
"517 394 OFFCURVE",
"457 394 CURVE SMOOTH",
"416 394 LINE",
"376 314 LINE",
"418 290 LINE"
);
},
{
closed = 1;
nodes = (
"250 715 LINE",
"250 786 LINE",
"60 786 LINE",
"20 706 LINE",
"166 662 LINE"
);
},
{
closed = 1;
nodes = (
"40 71 LINE",
"40 0 LINE",
"494 0 LINE",
"534 80 LINE",
"146 154 LINE"
);
}
);
width = 799;
},
{
anchors = (
{
name = bottom;
position = "{215, 0}";
},
{
name = top;
position = "{389, 786}";
}
);
layerId = "EED98765-8720-4D79-BBF2-40D7DAF3490F";
paths = (
{
closed = 1;
nodes = (
"157 786 LINE",
"157 0 LINE",
"270 0 LINE",
"270 786 LINE"
);
},
{
closed = 1;
nodes = (
"532 304 OFFCURVE",
"710 427 OFFCURVE",
"710 571 CURVE SMOOTH",
"710 698 OFFCURVE",
"617 796 OFFCURVE",
"476 796 CURVE SMOOTH",
"388 796 OFFCURVE",
"336 786 OFFCURVE",
"177 786 CURVE",
"194 610 LINE",
"238 688 OFFCURVE",
"312 737 OFFCURVE",
"400 737 CURVE SMOOTH",
"529 737 OFFCURVE",
"588 640 OFFCURVE",
"588 522 CURVE SMOOTH",
"588 435 OFFCURVE",
"528 383 OFFCURVE",
"435 383 CURVE SMOOTH",
"349 383 LINE",
"331 348 LINE",
"379 313 LINE"
);
},
{
closed = 1;
nodes = (
"228 760 LINE",
"228 786 LINE",
"71 786 LINE",
"54 751 LINE",
"189 707 LINE"
);
},
{
closed = 1;
nodes = (
"63 26 LINE",
"63 0 LINE",
"404 0 LINE",
"422 35 LINE",
"169 109 LINE"
);
}
);
width = 778;
}
);
leftKerningGroup = I;
leftMetricsKey = I;
rightKerningGroup = P;
unicode = 0050;
},
{
color = 1;
glyphname = Thorn;
lastChange = "2018-10-29 15:07:35 +0000";
layers = (
{
background = {
paths = (
{
closed = 1;
nodes = (
"435 606 OFFCURVE",
"392 596 OFFCURVE",
"256 596 CURVE",
"273 375 LINE",
"305 453 OFFCURVE",
"357 502 OFFCURVE",
"422 502 CURVE SMOOTH",
"498 502 OFFCURVE",
"534 448 OFFCURVE",
"534 383 CURVE SMOOTH",
"534 320 OFFCURVE",
"505 284 OFFCURVE",
"457 284 CURVE SMOOTH",
"371 284 OFFCURVE",
"310 313 OFFCURVE",
"275 357 CURVE",
"257 190 LINE",
"346 190 OFFCURVE",
"368 180 OFFCURVE",
"439 180 CURVE SMOOTH",
"578 180 OFFCURVE",
"769 283 OFFCURVE",
"769 410 CURVE SMOOTH",
"769 519 OFFCURVE",
"666 606 OFFCURVE",
"510 606 CURVE SMOOTH"
);
},
{
closed = 1;
nodes = (
"40 71 LINE",
"40 0 LINE",
"424 0 LINE",
"464 80 LINE",
"146 164 LINE"
);
},
{
closed = 1;
nodes = (
"134 786 LINE",
"134 0 LINE",
"349 0 LINE",
"349 786 LINE"
);
},
{
closed = 1;
nodes = (
"60 786 LINE",
"20 706 LINE",
"338 622 LINE",
"444 715 LINE",
"444 786 LINE"
);
}
);
};
layerId = "2CCCAF06-0AAA-44C6-8F00-0A68246BB68E";
paths = (
{
closed = 1;
nodes = (
"40 71 LINE",
"40 0 LINE",
"424 0 LINE",
"464 80 LINE",
"146 164 LINE"
);
},
{
closed = 1;
nodes = (
"134 786 LINE",
"134 0 LINE",
"349 0 LINE",
"349 786 LINE"
);
},
{
closed = 1;
nodes = (
"60 786 LINE",
"20 706 LINE",
"338 622 LINE",
"444 715 LINE",
"444 786 LINE"
);
},
{
closed = 1;
nodes = (
"534 320 OFFCURVE",
"505 284 OFFCURVE",
"457 284 CURVE SMOOTH",
"416 284 LINE",
"376 204 LINE",
"418 180 LINE",
"573 171 OFFCURVE",
"769 283 OFFCURVE",
"769 410 CURVE SMOOTH",
"769 519 OFFCURVE",
"666 606 OFFCURVE",
"510 606 CURVE SMOOTH",
"435 606 OFFCURVE",
"392 596 OFFCURVE",
"256 596 CURVE",
"273 375 LINE",
"305 453 OFFCURVE",
"357 502 OFFCURVE",
"422 502 CURVE SMOOTH",
"498 502 OFFCURVE",
"534 448 OFFCURVE",
"534 383 CURVE SMOOTH"
);
}
);
width = 779;
},
{
layerId = "EED98765-8720-4D79-BBF2-40D7DAF3490F";
paths = (
{
closed = 1;
nodes = (
"63 26 LINE",
"63 0 LINE",
"357 0 LINE",
"374 35 LINE",
"169 108 LINE"
);
},
{
closed = 1;
nodes = (
"157 786 LINE",
"157 0 LINE",
"270 0 LINE",
"270 786 LINE"
);
},
{
closed = 1;
nodes = (
"71 786 LINE",
"54 751 LINE",
"259 678 LINE",
"365 760 LINE",
"365 786 LINE"
);
},
{
closed = 1;
nodes = (
"590 293 OFFCURVE",
"530 253 OFFCURVE",
"435 253 CURVE SMOOTH",
"349 253 LINE",
"331 218 LINE",
"379 182 LINE",
"533 173 OFFCURVE",
"713 285 OFFCURVE",
"713 412 CURVE SMOOTH",
"713 521 OFFCURVE",
"619 608 OFFCURVE",
"476 608 CURVE SMOOTH",
"388 608 OFFCURVE",
"336 598 OFFCURVE",
"177 598 CURVE",
"194 422 LINE",
"238 500 OFFCURVE",
"312 549 OFFCURVE",
"400 549 CURVE SMOOTH",
"531 549 OFFCURVE",
"590 465 OFFCURVE",
"590 363 CURVE SMOOTH"
);
}
);
width = 779;
}
);
leftKerningGroup = I;
unicode = 00DE;
},
{
color = 1;
glyphname = Q;
lastChange = "2018-11-09 15:04:12 +0000";
layers = (
{
anchors = (
{
name = bottom;
position = "{450, 0}";
},
{
name = top;
position = "{490, 786}";
}
);
background = {
paths = (
{
closed = 1;
nodes = (
"602 -46 OFFCURVE",
"781 -264 OFFCURVE",
"843 -264 CURVE SMOOTH",
"880 -264 OFFCURVE",
"955 -239 OFFCURVE",
"1058 -190 CURVE",
"1038 -145 LINE",
"903 -145 LINE SMOOTH",
"872 -145 OFFCURVE",
"664 9 OFFCURVE",
"577 77 CURVE",
"531 35 LINE"
);
}
);
};
components = (
{
name = O;
}
);
layerId = "2CCCAF06-0AAA-44C6-8F00-0A68246BB68E";
paths = (
{
closed = 1;
nodes = (
"560 -46 OFFCURVE",
"733 -264 OFFCURVE",
"793 -264 CURVE SMOOTH",
"844 -264 OFFCURVE",
"940 -239 OFFCURVE",
"1078 -190 CURVE",
"1038 -105 LINE",
"903 -105 LINE SMOOTH",
"876 -105 OFFCURVE",
"692 21 OFFCURVE",
"617 77 CURVE",
"491 35 LINE"
);
}
);
width = 979;
},
{
anchors = (
{
name = bottom;
position = "{433, 0}";
},
{
name = top;
position = "{462, 786}";
}
);
components = (
{
alignment = -1;
name = O;
}
);
layerId = "EED98765-8720-4D79-BBF2-40D7DAF3490F";
paths = (
{
closed = 1;
nodes = (
"607 -46 OFFCURVE",
"787 -264 OFFCURVE",
"849 -264 CURVE SMOOTH",
"885 -264 OFFCURVE",
"957 -239 OFFCURVE",
"1056 -190 CURVE",
"1038 -150 LINE",
"903 -150 LINE SMOOTH",
"872 -150 OFFCURVE",
"661 8 OFFCURVE",
"572 77 CURVE",
"536 35 LINE"
);
}
);
width = 923;
}
);
leftKerningGroup = O;
unicode = 0051;
},
{
color = 1;
glyphname = R;
lastChange = "2018-10-29 15:11:46 +0000";
layers = (
{
anchors = (
{
name = bottom;
position = "{470, 0}";
},
{
name = top;
position = "{420, 786}";
}
);
background = {
paths = (
{
closed = 1;
nodes = (
"435 796 OFFCURVE",
"392 786 OFFCURVE",
"256 786 CURVE",
"273 565 LINE",
"305 643 OFFCURVE",
"357 692 OFFCURVE",
"422 692 CURVE SMOOTH",
"512 692 OFFCURVE",
"554 630 OFFCURVE",
"554 548 CURVE SMOOTH",
"554 468 OFFCURVE",
"517 424 OFFCURVE",
"457 424 CURVE SMOOTH",
"416 424 LINE",
"386 364 LINE",
"428 340 LINE",
"588 338 OFFCURVE",
"789 447 OFFCURVE",
"789 585 CURVE SMOOTH",
"789 705 OFFCURVE",
"678 796 OFFCURVE",
"510 796 CURVE SMOOTH"
);
},
{
closed = 1;
nodes = (
"40 71 LINE",
"40 0 LINE",
"424 0 LINE",
"464 80 LINE",
"146 164 LINE"
);
},
{
closed = 1;
nodes = (
"134 786 LINE",
"134 0 LINE",
"349 0 LINE",
"349 786 LINE"
);
},
{
closed = 1;
nodes = (
"386 364 LINE",
"428 340 LINE",
"604 0 LINE",
"840 0 LINE",
"880 80 LINE",
"717 154 LINE",
"806 83 LINE",
"670 344 LINE",
"455 399 LINE"
);
},
{
closed = 1;
nodes = (
"60 786 LINE",
"20 706 LINE",
"338 622 LINE",
"320 715 LINE",
"320 786 LINE"
);
}
);
};
layerId = "2CCCAF06-0AAA-44C6-8F00-0A68246BB68E";
leftMetricsKey = "=I";
paths = (
{
closed = 1;
nodes = (
"435 796 OFFCURVE",
"392 786 OFFCURVE",
"256 786 CURVE",
"273 565 LINE",
"305 643 OFFCURVE",
"357 692 OFFCURVE",
"422 692 CURVE SMOOTH",
"512 692 OFFCURVE",
"554 630 OFFCURVE",
"554 548 CURVE SMOOTH",
"554 468 OFFCURVE",
"517 424 OFFCURVE",
"457 424 CURVE SMOOTH",
"416 424 LINE",
"386 364 LINE",
"428 340 LINE",
"588 338 OFFCURVE",
"789 447 OFFCURVE",
"789 585 CURVE SMOOTH",
"789 705 OFFCURVE",
"678 796 OFFCURVE",
"510 796 CURVE SMOOTH"
);
},
{
closed = 1;
nodes = (
"40 71 LINE",
"40 0 LINE",
"424 0 LINE",
"464 80 LINE",
"146 164 LINE"
);
},
{
closed = 1;
nodes = (
"134 786 LINE",
"134 0 LINE",
"349 0 LINE",
"349 786 LINE"
);
},
{
closed = 1;
nodes = (
"428 340 LINE",
"604 0 LINE",
"840 0 LINE",
"880 80 LINE",
"717 154 LINE",
"806 83 LINE",
"670 344 LINE",
"455 401 LINE"
);
},
{
closed = 1;
nodes = (
"60 786 LINE",
"20 706 LINE",
"338 622 LINE",
"320 715 LINE",
"320 786 LINE"
);
}
);
width = 870;
},
{
anchors = (
{
name = bottom;
position = "{436, 0}";
},
{
name = top;
position = "{375, 786}";
}
);
layerId = "EED98765-8720-4D79-BBF2-40D7DAF3490F";
paths = (
{
closed = 1;
nodes = (
"372 796 OFFCURVE",
"325 786 OFFCURVE",
"177 786 CURVE",
"194 610 LINE",
"233 688 OFFCURVE",
"299 737 OFFCURVE",
"377 737 CURVE SMOOTH",
"499 737 OFFCURVE",
"554 649 OFFCURVE",
"554 548 CURVE SMOOTH",
"554 467 OFFCURVE",
"495 418 OFFCURVE",
"401 418 CURVE SMOOTH",
"343 418 LINE",
"330 392 LINE",
"377 357 LINE",
"500 357 OFFCURVE",
"677 464 OFFCURVE",
"677 596 CURVE SMOOTH",
"677 705 OFFCURVE",
"588 796 OFFCURVE",
"454 796 CURVE SMOOTH"
);
},
{
closed = 1;
nodes = (
"63 26 LINE",
"63 0 LINE",
"357 0 LINE",
"374 35 LINE",
"169 108 LINE"
);
},
{
closed = 1;
nodes = (
"157 786 LINE",
"157 0 LINE",
"270 0 LINE",
"270 786 LINE"
);
},
{
closed = 1;
nodes = (
"377 357 LINE",
"603 0 LINE",
"783 0 LINE",
"800 35 LINE",
"648 109 LINE",
"716 35 LINE",
"519 347 LINE",
"388 394 LINE"
);
},
{
closed = 1;
nodes = (
"71 786 LINE",
"54 751 LINE",
"167 712 LINE",
"219 760 LINE",
"219 786 LINE"
);
}
);
width = 801;
}
);
leftKerningGroup = I;
leftMetricsKey = I;
rightKerningGroup = R;
unicode = 0052;
},
{
glyphname = S;
lastChange = "2018-10-29 15:07:35 +0000";
layers = (
{
anchors = (
{
name = bottom;
position = "{355, 0}";
},
{
name = top;
position = "{340, 786}";
}
);
background = {
paths = (
{
closed = 1;
nodes = (
"502 111 OFFCURVE",
"449 49 OFFCURVE",
"363 49 CURVE SMOOTH",
"271 49 OFFCURVE",
"181 112 OFFCURVE",
"113 220 CURVE",
"75 220 LINE",
"75 26 LINE",
"127 3 OFFCURVE",
"271 -21 OFFCURVE",
"358 -21 CURVE SMOOTH",
"467 -21 OFFCURVE",
"630 119 OFFCURVE",
"630 223 CURVE SMOOTH",
"630 412 OFFCURVE",
"208 458 OFFCURVE",
"208 608 CURVE SMOOTH",
"208 682 OFFCURVE",
"254 736 OFFCURVE",
"332 736 CURVE SMOOTH",
"420 736 OFFCURVE",
"499 670 OFFCURVE",
"562 565 CURVE",
"600 565 LINE",
"600 759 LINE",
"550 782 OFFCURVE",
"419 806 OFFCURVE",
"336 806 CURVE SMOOTH",
"231 806 OFFCURVE",
"80 665 OFFCURVE",
"80 562 CURVE SMOOTH",
"80 372 OFFCURVE",
"502 320 OFFCURVE",
"502 177 CURVE SMOOTH"
);
}
);
};
layerId = "2CCCAF06-0AAA-44C6-8F00-0A68246BB68E";
paths = (
{
closed = 1;
nodes = (
"442 121 OFFCURVE",
"413 89 OFFCURVE",
"363 89 CURVE SMOOTH",
"291 89 OFFCURVE",
"216 152 OFFCURVE",
"163 260 CURVE",
"35 260 LINE",
"35 26 LINE",
"95 3 OFFCURVE",
"259 -21 OFFCURVE",
"358 -21 CURVE SMOOTH",
"483 -21 OFFCURVE",
"670 119 OFFCURVE",
"670 223 CURVE SMOOTH",
"670 422 OFFCURVE",
"268 480 OFFCURVE",
"268 628 CURVE SMOOTH",
"268 666 OFFCURVE",
"291 696 OFFCURVE",
"332 696 CURVE SMOOTH",
"400 696 OFFCURVE",
"464 630 OFFCURVE",
"512 525 CURVE",
"640 525 LINE",
"640 759 LINE",
"582 782 OFFCURVE",
"431 806 OFFCURVE",
"336 806 CURVE SMOOTH",
"215 806 OFFCURVE",
"40 665 OFFCURVE",
"40 562 CURVE SMOOTH",
"40 362 OFFCURVE",
"442 296 OFFCURVE",
"442 157 CURVE SMOOTH"
);
}
);
width = 700;
},
{
anchors = (
{
name = bottom;
position = "{337, 0}";
},
{
name = top;
position = "{340, 786}";
}
);
layerId = "EED98765-8720-4D79-BBF2-40D7DAF3490F";
paths = (
{
closed = 1;
nodes = (
"510 110 OFFCURVE",
"454 44 OFFCURVE",
"363 44 CURVE SMOOTH",
"269 44 OFFCURVE",
"177 107 OFFCURVE",
"107 215 CURVE",
"80 215 LINE",
"80 26 LINE",
"131 3 OFFCURVE",
"273 -21 OFFCURVE",
"358 -21 CURVE SMOOTH",
"465 -21 OFFCURVE",
"625 119 OFFCURVE",
"625 223 CURVE SMOOTH",
"625 411 OFFCURVE",
"201 455 OFFCURVE",
"201 606 CURVE SMOOTH",
"201 684 OFFCURVE",
"249 741 OFFCURVE",
"332 741 CURVE SMOOTH",
"423 741 OFFCURVE",
"503 675 OFFCURVE",
"568 570 CURVE",
"595 570 LINE",
"595 759 LINE",
"546 782 OFFCURVE",
"418 806 OFFCURVE",
"336 806 CURVE SMOOTH",
"233 806 OFFCURVE",
"85 665 OFFCURVE",
"85 562 CURVE SMOOTH",
"85 373 OFFCURVE",
"510 323 OFFCURVE",
"510 180 CURVE SMOOTH"
);
}
);
width = 700;
}
);
leftKerningGroup = S;
rightKerningGroup = S;
unicode = 0053;
},
{
glyphname = Germandbls;
lastChange = "2018-10-29 15:11:46 +0000";
layers = (
{
background = {
paths = (
{
closed = 1;
nodes = (
"20 71 LINE",
"20 0 LINE",
"218 0 LINE",
"258 80 LINE",
"126 164 LINE"
);
},
{
closed = 1;
nodes = (
"789 782 OFFCURVE",
"556 806 OFFCURVE",
"410 806 CURVE SMOOTH",
"289 806 OFFCURVE",
"114 665 OFFCURVE",
"114 562 CURVE SMOOTH",
"114 0 LINE",
"329 0 LINE",
"329 598 LINE SMOOTH",
"329 636 OFFCURVE",
"352 666 OFFCURVE",
"393 666 CURVE SMOOTH",
"501 666 OFFCURVE",
"583 622 OFFCURVE",
"679 606 CURVE",
"685 656 LINE",
"476 436 LINE",
"558 326 OFFCURVE",
"719 262 OFFCURVE",
"719 157 CURVE SMOOTH",
"719 121 OFFCURVE",
"701 89 OFFCURVE",
"670 89 CURVE SMOOTH",
"628 89 OFFCURVE",
"580 152 OFFCURVE",
"550 260 CURVE",
"422 260 LINE",
"422 26 LINE",
"466 3 OFFCURVE",
"590 -21 OFFCURVE",
"665 -21 CURVE SMOOTH",
"766 -21 OFFCURVE",
"917 119 OFFCURVE",
"917 223 CURVE SMOOTH",
"917 385 OFFCURVE",
"725 453 OFFCURVE",
"655 553 CURVE",
"661 461 LINE",
"878 715 LINE",
"878 786 LINE"
);
}
);
};
guideLines = (
{
angle = 90;
position = "{393, 78}";
},
{
angle = 90;
position = "{919, 441}";
}
);
layerId = "2CCCAF06-0AAA-44C6-8F00-0A68246BB68E";
paths = (
{
closed = 1;
nodes = (
"289 806 OFFCURVE",
"114 665 OFFCURVE",
"114 562 CURVE SMOOTH",
"114 0 LINE",
"329 0 LINE",
"329 618 LINE SMOOTH",
"329 656 OFFCURVE",
"352 686 OFFCURVE",
"393 686 CURVE SMOOTH",
"501 686 OFFCURVE",
"583 628 OFFCURVE",
"679 606 CURVE",
"704 656 LINE",
"401 398 LINE",
"566 423 LINE",
"919 708 LINE",
"919 786 LINE",
"658 786 OFFCURVE",
"555 806 OFFCURVE",
"410 806 CURVE SMOOTH"
);
},
{
closed = 1;
nodes = (
"20 71 LINE",
"20 0 LINE",
"218 0 LINE",
"258 80 LINE",
"126 164 LINE"
);
},
{
closed = 1;
nodes = (
"596 520 LINE",
"401 398 LINE",
"401 320 LINE",
"724 320 LINE",
"852 503 LINE",
"393 78 LINE",
"393 0 LINE",
"816 0 LINE",
"911 -18 LINE",
"911 272 LINE",
"841 292 LINE",
"771 129 LINE",
"859 200 LINE",
"588 200 LINE",
"471 26 LINE",
"919 442 LINE",
"919 520 LINE"
);
}
);
width = 949;
},
{
associatedMasterId = "2CCCAF06-0AAA-44C6-8F00-0A68246BB68E";
background = {
paths = (
{
closed = 1;
nodes = (
"0 71 LINE",
"0 0 LINE",
"198 0 LINE",
"238 80 LINE",
"106 164 LINE"
);
},
{
closed = 1;
nodes = (
"769 782 OFFCURVE",
"536 806 OFFCURVE",
"390 806 CURVE SMOOTH",
"269 806 OFFCURVE",
"94 665 OFFCURVE",
"94 562 CURVE SMOOTH",
"94 0 LINE",
"309 0 LINE",
"309 598 LINE SMOOTH",
"309 636 OFFCURVE",
"332 666 OFFCURVE",
"373 666 CURVE SMOOTH",
"481 666 OFFCURVE",
"563 622 OFFCURVE",
"659 606 CURVE",
"665 656 LINE",
"456 436 LINE",
"538 326 OFFCURVE",
"699 262 OFFCURVE",
"699 157 CURVE SMOOTH",
"699 121 OFFCURVE",
"681 89 OFFCURVE",
"650 89 CURVE SMOOTH",
"608 89 OFFCURVE",
"560 152 OFFCURVE",
"530 260 CURVE",
"402 260 LINE",
"402 26 LINE",
"446 3 OFFCURVE",
"570 -21 OFFCURVE",
"645 -21 CURVE SMOOTH",
"746 -21 OFFCURVE",
"897 119 OFFCURVE",
"897 223 CURVE SMOOTH",
"897 385 OFFCURVE",
"705 453 OFFCURVE",
"635 553 CURVE",
"641 461 LINE",
"858 715 LINE",
"858 786 LINE"
);
}
);
};
layerId = "2B4BCA5F-469F-4C75-9C2B-66D44CD7D659";
name = "Bold Jul 8 14, 12:52";
paths = (
{
closed = 1;
nodes = (
"269 806 OFFCURVE",
"94 665 OFFCURVE",
"94 562 CURVE SMOOTH",
"94 0 LINE",
"309 0 LINE",
"309 618 LINE SMOOTH",
"309 656 OFFCURVE",
"332 686 OFFCURVE",
"373 686 CURVE SMOOTH",
"469 686 OFFCURVE",
"542 628 OFFCURVE",
"629 606 CURVE",
"635 656 LINE",
"390 366 LINE",
"466 256 OFFCURVE",
"613 172 OFFCURVE",
"613 37 CURVE SMOOTH",
"613 -65 OFFCURVE",
"601 -98 OFFCURVE",
"512 -204 CURVE",
"590 -264 LINE",
"837 -20 LINE",
"832 -4 OFFCURVE",
"828 39 OFFCURVE",
"828 103 CURVE SMOOTH",
"828 285 OFFCURVE",
"639 383 OFFCURVE",
"569 483 CURVE",
"575 391 LINE",
"828 715 LINE",
"828 786 LINE",
"745 782 OFFCURVE",
"527 806 OFFCURVE",
"390 806 CURVE SMOOTH"
);
},
{
closed = 1;
nodes = (
"0 71 LINE",
"0 0 LINE",
"198 0 LINE",
"238 80 LINE",
"106 164 LINE"
);
}
);
width = 867;
},
{
layerId = "EED98765-8720-4D79-BBF2-40D7DAF3490F";
paths = (
{
closed = 1;
nodes = (
"296 806 OFFCURVE",
"148 665 OFFCURVE",
"148 562 CURVE SMOOTH",
"148 0 LINE",
"262 0 LINE",
"262 602 LINE SMOOTH",
"262 681 OFFCURVE",
"310 738 OFFCURVE",
"396 738 CURVE SMOOTH",
"495 738 OFFCURVE",
"589 692 OFFCURVE",
"688 667 CURVE",
"721 731 LINE",
"383 388 LINE",
"474 408 LINE",
"809 761 LINE",
"809 786 LINE",
"640 786 OFFCURVE",
"522 806 OFFCURVE",
"399 806 CURVE SMOOTH"
);
},
{
closed = 1;
nodes = (
"54 26 LINE",
"54 0 LINE",
"197 0 LINE",
"214 35 LINE",
"160 108 LINE"
);
},
{
closed = 1;
nodes = (
"508 465 LINE",
"383 388 LINE",
"383 355 LINE",
"715 355 LINE",
"770 448 LINE",
"345 33 LINE",
"345 0 LINE",
"745 0 LINE",
"795 -18 LINE",
"795 182 LINE",
"770 191 LINE",
"689 39 LINE",
"788 110 LINE",
"438 110 LINE",
"395 26 LINE",
"809 432 LINE",
"809 465 LINE"
);
}
);
width = 889;
}
);
leftKerningGroup = Germandbls;
leftMetricsKey = H;
rightKerningGroup = Germandbls;
rightMetricsKey = S;
unicode = 1E9E;
},
{
color = 1;
glyphname = T;
lastChange = "2018-10-29 15:13:11 +0000";
layers = (
{
anchors = (
{
name = bottom;
position = "{416, 0}";
},
{
name = center;
position = "{426, 393}";
},
{
name = top;
position = "{426, 786}";
}
);
background = {
paths = (
{
closed = 1;
nodes = (
"362 786 LINE",
"362 0 LINE",
"487 0 LINE",
"487 786 LINE"
);
},
{
closed = 1;
nodes = (
"268 31 LINE",
"268 0 LINE",
"572 0 LINE",
"592 40 LINE",
"374 114 LINE"
);
},
{
closed = 1;
nodes = (
"80 554 LINE",
"110 544 LINE",
"253 756 LINE",
"155 779 LINE",
"80 804 LINE"
);
},
{
closed = 1;
nodes = (
"88 786 LINE",
"88 741 LINE",
"426 741 LINE",
"426 786 LINE"
);
},
{
closed = 1;
nodes = (
"426 786 LINE",
"426 741 LINE",
"764 741 LINE",
"764 786 LINE"
);
},
{
closed = 1;
nodes = (
"697 779 LINE",
"599 756 LINE",
"742 544 LINE",
"772 554 LINE",
"772 804 LINE"
);
}
);
};
layerId = "2CCCAF06-0AAA-44C6-8F00-0A68246BB68E";
leftMetricsKey = "=|L";
rightMetricsKey = "=L";
paths = (
{
closed = 1;
nodes = (
"317 786 LINE",
"317 0 LINE",
"532 0 LINE",
"532 786 LINE"
);
},
{
closed = 1;
nodes = (
"223 71 LINE",
"223 0 LINE",
"607 0 LINE",
"647 80 LINE",
"329 154 LINE"
);
},
{
closed = 1;
nodes = (
"30 514 LINE",
"100 484 LINE",
"263 716 LINE",
"145 779 LINE",
"30 804 LINE"
);
},
{
closed = 1;
nodes = (
"38 786 LINE",
"38 691 LINE",
"426 691 LINE",
"426 786 LINE"
);
},
{
closed = 1;
nodes = (
"426 786 LINE",
"426 691 LINE",
"814 691 LINE",
"814 786 LINE"
);
},
{
closed = 1;
nodes = (
"707 779 LINE",
"589 716 LINE",
"752 484 LINE",
"822 514 LINE",
"822 804 LINE"
);
}
);
width = 852;
},
{
anchors = (
{
name = bottom;
position = "{405, 0}";
},
{
name = center;
position = "{415, 393}";
},
{
name = top;
position = "{415, 786}";
}
);
layerId = "EED98765-8720-4D79-BBF2-40D7DAF3490F";
paths = (
{
closed = 1;
nodes = (
"356 786 LINE",
"356 0 LINE",
"470 0 LINE",
"470 786 LINE"
);
},
{
closed = 1;
nodes = (
"262 26 LINE",
"262 0 LINE",
"556 0 LINE",
"574 35 LINE",
"368 109 LINE"
);
},
{
closed = 1;
nodes = (
"75 559 LINE",
"100 552 LINE",
"241 761 LINE",
"145 779 LINE",
"75 804 LINE"
);
},
{
closed = 1;
nodes = (
"83 786 LINE",
"83 747 LINE",
"415 747 LINE",
"415 786 LINE"
);
},
{
closed = 1;
nodes = (
"415 786 LINE",
"415 747 LINE",
"747 747 LINE",
"747 786 LINE"
);
},
{
closed = 1;
nodes = (
"685 779 LINE",
"589 761 LINE",
"730 552 LINE",
"755 559 LINE",
"755 804 LINE"
);
}
);
width = 831;
}
);
leftKerningGroup = T;
leftMetricsKey = "=|e";
rightKerningGroup = F;
rightMetricsKey = E;
unicode = 0054;
},
{
color = 8;
glyphname = Tbar;
lastChange = "2018-11-09 15:04:16 +0000";
layers = (
{
components = (
{
name = T;
}
);
guideLines = (
{
position = "{706, 344}";
},
{
position = "{706, 439}";
}
);
layerId = "2CCCAF06-0AAA-44C6-8F00-0A68246BB68E";
paths = (
{
closed = 1;
nodes = (
"725 439 LINE",
"127 439 LINE",
"127 344 LINE",
"725 344 LINE"
);
}
);
width = 852;
},
{
components = (
{
alignment = -1;
name = T;
}
);
layerId = "EED98765-8720-4D79-BBF2-40D7DAF3490F";
paths = (
{
closed = 1;
nodes = (
"660 411 LINE",
"170 411 LINE",
"170 372 LINE",
"660 372 LINE"
);
}
);
width = 830;
}
);
unicode = 0166;
},
{
color = 1;
glyphname = U;
lastChange = "2018-11-07 20:14:40 +0000";
layers = (
{
anchors = (
{
name = bottom;
position = "{449, 0}";
},
{
name = ogonek;
position = "{645, 0}";
},
{
name = top;
position = "{462, 786}";
}
);
background = {
paths = (
{
closed = 1;
nodes = (
"718 323 LINE SMOOTH",
"718 154 OFFCURVE",
"611 64 OFFCURVE",
"521 64 CURVE SMOOTH",
"347 64 OFFCURVE",
"269 169 OFFCURVE",
"269 333 CURVE SMOOTH",
"269 786 LINE",
"144 786 LINE",
"144 285 LINE SMOOTH",
"144 110 OFFCURVE",
"272 -20 OFFCURVE",
"453 -20 CURVE SMOOTH",
"584 -20 OFFCURVE",
"773 85 OFFCURVE",
"773 310 CURVE SMOOTH",
"773 786 LINE",
"718 786 LINE"
);
},
{
closed = 1;
nodes = (
"60 786 LINE",
"40 746 LINE",
"258 672 LINE",
"364 755 LINE",
"364 786 LINE"
);
},
{
closed = 1;
nodes = (
"634 786 LINE",
"614 746 LINE",
"762 672 LINE",
"868 755 LINE",
"868 786 LINE"
);
}
);
};
layerId = "2CCCAF06-0AAA-44C6-8F00-0A68246BB68E";
leftMetricsKey = "=I-10";
rightMetricsKey = "=N";
paths = (
{
closed = 1;
nodes = (
"688 303 LINE SMOOTH",
"688 180 OFFCURVE",
"595 114 OFFCURVE",
"521 114 CURVE SMOOTH",
"382 114 OFFCURVE",
"319 191 OFFCURVE",
"319 313 CURVE SMOOTH",
"319 786 LINE",
"104 786 LINE",
"104 285 LINE SMOOTH",
"104 110 OFFCURVE",
"248 -20 OFFCURVE",
"453 -20 CURVE SMOOTH",
"592 -20 OFFCURVE",
"793 85 OFFCURVE",
"793 310 CURVE SMOOTH",
"793 786 LINE",
"688 786 LINE"
);
},
{
closed = 1;
nodes = (
"30 786 LINE",
"-10 706 LINE",
"308 632 LINE",
"414 715 LINE",
"414 786 LINE"
);
},
{
closed = 1;
nodes = (
"604 786 LINE",
"564 706 LINE",
"782 632 LINE",
"888 715 LINE",
"888 786 LINE"
);
}
);
width = 898;
},
{
anchors = (
{
name = bottom;
position = "{467, 0}";
},
{
name = ogonek;
position = "{635, 0}";
},
{
name = top;
position = "{462, 786}";
}
);
layerId = "EED98765-8720-4D79-BBF2-40D7DAF3490F";
paths = (
{
closed = 1;
nodes = (
"722 326 LINE SMOOTH",
"722 151 OFFCURVE",
"613 58 OFFCURVE",
"521 58 CURVE SMOOTH",
"343 58 OFFCURVE",
"263 166 OFFCURVE",
"263 336 CURVE SMOOTH",
"263 786 LINE",
"149 786 LINE",
"149 285 LINE SMOOTH",
"149 110 OFFCURVE",
"275 -20 OFFCURVE",
"453 -20 CURVE SMOOTH",
"583 -20 OFFCURVE",
"771 85 OFFCURVE",
"771 310 CURVE SMOOTH",
"771 786 LINE",
"722 786 LINE"
);
},
{
closed = 1;
nodes = (
"64 786 LINE",
"46 751 LINE",
"252 677 LINE",
"358 760 LINE",
"358 786 LINE"
);
},
{
closed = 1;
nodes = (
"638 786 LINE",
"620 751 LINE",
"760 677 LINE",
"866 760 LINE",
"866 786 LINE"
);
}
);
width = 898;
}
);
leftKerningGroup = U;
leftMetricsKey = I;
rightKerningGroup = U;
rightMetricsKey = N;
unicode = 0055;
},
{
color = 7;
glyphname = Uogonek;
lastChange = "2018-11-19 16:57:19 +0000";
layers = (
{
background = {
paths = (
{
closed = 1;
nodes = (
"450 -120 LINE",
"450 -181 OFFCURVE",
"471 -254 OFFCURVE",
"636 -264 CURVE",
"656 -224 LINE",
"596 -214 OFFCURVE",
"563 -185 OFFCURVE",
"563 -145 CURVE SMOOTH",
"563 -73 OFFCURVE",
"635 6 OFFCURVE",
"718 105 CURVE",
"700 129 LINE"
);
}
);
};
components = (
{
name = U;
},
{
name = ogonekcomb.case;
transform = "{1, 0, 0, 1, 314, 0}";
}
);
layerId = "2CCCAF06-0AAA-44C6-8F00-0A68246BB68E";
leftMetricsKey = "=U";
rightMetricsKey = "=U";
width = 898;
},
{
components = (
{
name = U;
},
{
name = ogonekcomb.case;
transform = "{1, 0, 0, 1, 381, 0}";
}
);
layerId = "EED98765-8720-4D79-BBF2-40D7DAF3490F";
width = 898;
}
);
leftKerningGroup = U;
leftMetricsKey = U;
rightKerningGroup = U;
rightMetricsKey = U;
unicode = 0172;
},
{
glyphname = V;
lastChange = "2018-11-07 20:14:54 +0000";
layers = (
{
anchors = (
{
name = bottom;
position = "{484, 0}";
},
{
name = top;
position = "{498, 786}";
}
);
background = {
paths = (
{
closed = 1;
nodes = (
"442 -19 LINE",
"546 32 LINE",
"861 755 LINE",
"790 721 LINE",
"489 27 LINE",
"543 49 LINE",
"264 721 LINE",
"116 768 LINE"
);
},
{
closed = 1;
nodes = (
"70 786 LINE",
"50 746 LINE",
"225 640 LINE",
"374 755 LINE",
"374 786 LINE"
);
},
{
closed = 1;
nodes = (
"619 786 LINE",
"599 746 LINE",
"817 672 LINE",
"923 755 LINE",
"923 786 LINE"
);
}
);
};
layerId = "2CCCAF06-0AAA-44C6-8F00-0A68246BB68E";
paths = (
{
closed = 1;
nodes = (
"372 -19 LINE",
"586 32 LINE",
"861 715 LINE",
"730 681 LINE",
"469 27 LINE",
"570 49 LINE",
"314 681 LINE",
"66 728 LINE"
);
},
{
closed = 1;
nodes = (
"30 786 LINE",
"-10 706 LINE",
"225 600 LINE",
"444 715 LINE",
"444 786 LINE"
);
},
{
closed = 1;
nodes = (
"609 786 LINE",
"569 706 LINE",
"777 592 LINE",
"943 715 LINE",
"943 786 LINE"
);
}
);
width = 943;
},
{
anchors = (
{
name = bottom;
position = "{438, 0}";
},
{
name = top;
position = "{438, 786}";
}
);
layerId = "EED98765-8720-4D79-BBF2-40D7DAF3490F";
paths = (
{
closed = 1;
nodes = (
"395 -19 LINE",
"485 32 LINE",
"805 760 LINE",
"741 726 LINE",
"435 27 LINE",
"483 49 LINE",
"202 726 LINE",
"66 773 LINE"
);
},
{
closed = 1;
nodes = (
"19 786 LINE",
"1 751 LINE",
"169 645 LINE",
"309 760 LINE",
"309 786 LINE"
);
},
{
closed = 1;
nodes = (
"564 786 LINE",
"547 751 LINE",
"766 682 LINE",
"864 760 LINE",
"864 786 LINE"
);
}
);
width = 864;
}
);
leftKerningGroup = V;
rightKerningGroup = V;
unicode = 0056;
},
{
glyphname = W;
lastChange = "2018-11-07 20:15:01 +0000";
layers = (
{
anchors = (
{
name = bottom;
position = "{667, 0}";
},
{
name = top;
position = "{695, 786}";
}
);
background = {
paths = (
{
closed = 1;
nodes = (
"362 -19 LINE",
"466 32 LINE",
"685 538 LINE",
"644 573 LINE",
"409 27 LINE",
"463 49 LINE",
"244 721 LINE",
"96 768 LINE"
);
},
{
closed = 1;
nodes = (
"50 786 LINE",
"30 746 LINE",
"205 640 LINE",
"208 666 LINE",
"324 755 LINE",
"324 786 LINE"
);
},
{
closed = 1;
nodes = (
"774 -19 LINE",
"878 32 LINE",
"1153 755 LINE",
"1082 721 LINE",
"821 27 LINE",
"875 49 LINE",
"656 721 LINE",
"508 768 LINE"
);
},
{
closed = 1;
nodes = (
"462 786 LINE",
"442 746 LINE",
"617 640 LINE",
"640 665 LINE",
"756 755 LINE",
"756 786 LINE"
);
},
{
closed = 1;
nodes = (
"911 786 LINE",
"891 746 LINE",
"1109 672 LINE",
"1215 755 LINE",
"1215 786 LINE"
);
}
);
};
layerId = "2CCCAF06-0AAA-44C6-8F00-0A68246BB68E";
leftMetricsKey = "=V";
rightMetricsKey = "=V";
paths = (
{
closed = 1;
nodes = (
"797 -19 LINE",
"1011 32 LINE",
"1251 715 LINE",
"1125 681 LINE",
"899 27 LINE",
"990 49 LINE",
"769 681 LINE",
"526 728 LINE"
);
},
{
closed = 1;
nodes = (
"362 -19 LINE",
"576 32 LINE",
"683 399 LINE",
"615 532 LINE",
"464 27 LINE",
"555 49 LINE",
"309 681 LINE",
"66 728 LINE"
);
},
{
closed = 1;
nodes = (
"30 786 LINE",
"-10 706 LINE",
"225 600 LINE",
"384 715 LINE",
"384 786 LINE"
);
},
{
closed = 1;
nodes = (
"500 786 LINE",
"460 706 LINE",
"675 600 LINE",
"884 715 LINE",
"884 786 LINE"
);
},
{
closed = 1;
nodes = (
"999 786 LINE",
"959 706 LINE",
"1167 592 LINE",
"1333 715 LINE",
"1333 786 LINE"
);
}
);
width = 1333;
},
{
anchors = (
{
name = bottom;
position = "{589, 0}";
},
{
name = top;
position = "{616, 786}";
}
);
layerId = "EED98765-8720-4D79-BBF2-40D7DAF3490F";
paths = (
{
closed = 1;
nodes = (
"760 -19 LINE",
"850 32 LINE",
"1118 760 LINE",
"1054 726 LINE",
"800 27 LINE",
"849 49 LINE",
"631 726 LINE",
"495 773 LINE"
);
},
{
closed = 1;
nodes = (
"351 -19 LINE",
"441 32 LINE",
"629 555 LINE",
"591 578 LINE",
"391 27 LINE",
"440 49 LINE",
"202 726 LINE",
"66 773 LINE"
);
},
{
closed = 1;
nodes = (
"19 786 LINE",
"1 751 LINE",
"149 657 LINE",
"283 760 LINE",
"283 786 LINE"
);
},
{
closed = 1;
nodes = (
"446 786 LINE",
"429 751 LINE",
"593 648 LINE",
"729 760 LINE",
"729 786 LINE"
);
},
{
closed = 1;
nodes = (
"878 786 LINE",
"860 751 LINE",
"1079 682 LINE",
"1178 760 LINE",
"1178 786 LINE"
);
}
);
width = 1178;
}
);
leftKerningGroup = V;
leftMetricsKey = V;
rightKerningGroup = V;
rightMetricsKey = V;
unicode = 0057;
},
{
glyphname = X;
lastChange = "2018-11-07 20:15:11 +0000";
layers = (
{
anchors = (
{
name = bottom;
position = "{447, 0}";
},
{
name = top;
position = "{447, 786}";
}
);
background = {
paths = (
{
closed = 1;
nodes = (
"402 351 LINE",
"503 419 LINE",
"264 721 LINE",
"76 768 LINE"
);
},
{
closed = 1;
nodes = (
"60 786 LINE",
"40 746 LINE",
"215 640 LINE",
"364 755 LINE",
"364 786 LINE"
);
},
{
closed = 1;
nodes = (
"692 721 LINE",
"426 398 LINE",
"496 402 LINE",
"793 755 LINE"
);
},
{
closed = 1;
nodes = (
"539 786 LINE",
"519 746 LINE",
"707 672 LINE",
"843 755 LINE",
"843 786 LINE"
);
},
{
closed = 1;
nodes = (
"491 435 LINE",
"390 367 LINE",
"629 65 LINE",
"817 18 LINE"
);
},
{
closed = 1;
nodes = (
"833 0 LINE",
"853 40 LINE",
"678 146 LINE",
"529 31 LINE",
"529 0 LINE"
);
},
{
closed = 1;
nodes = (
"181 65 LINE",
"467 388 LINE",
"397 384 LINE",
"80 31 LINE"
);
},
{
closed = 1;
nodes = (
"334 0 LINE",
"354 40 LINE",
"166 114 LINE",
"30 31 LINE",
"30 0 LINE"
);
}
);
};
layerId = "2CCCAF06-0AAA-44C6-8F00-0A68246BB68E";
paths = (
{
closed = 1;
nodes = (
"352 351 LINE",
"553 419 LINE",
"324 681 LINE",
"16 728 LINE"
);
},
{
closed = 1;
nodes = (
"40 786 LINE",
"0 706 LINE",
"185 600 LINE",
"414 715 LINE",
"414 786 LINE"
);
},
{
closed = 1;
nodes = (
"647 681 LINE",
"381 398 LINE",
"536 402 LINE",
"833 715 LINE"
);
},
{
closed = 1;
nodes = (
"539 786 LINE",
"499 706 LINE",
"697 592 LINE",
"873 715 LINE",
"873 786 LINE"
);
},
{
closed = 1;
nodes = (
"541 435 LINE",
"340 367 LINE",
"569 105 LINE",
"877 58 LINE"
);
},
{
closed = 1;
nodes = (
"853 0 LINE",
"893 80 LINE",
"668 186 LINE",
"479 71 LINE",
"479 0 LINE"
);
},
{
closed = 1;
nodes = (
"226 105 LINE",
"512 388 LINE",
"355 384 LINE",
"38 71 LINE"
);
},
{
closed = 1;
nodes = (
"334 0 LINE",
"374 80 LINE",
"176 194 LINE",
"0 71 LINE",
"0 0 LINE"
);
}
);
width = 893;
},
{
anchors = (
{
name = bottom;
position = "{436, 0}";
},
{
name = top;
position = "{436, 786}";
}
);
layerId = "EED98765-8720-4D79-BBF2-40D7DAF3490F";
paths = (
{
closed = 1;
nodes = (
"397 351 LINE",
"486 419 LINE",
"245 726 LINE",
"72 773 LINE"
);
},
{
closed = 1;
nodes = (
"51 786 LINE",
"34 751 LINE",
"208 645 LINE",
"347 760 LINE",
"347 786 LINE"
);
},
{
closed = 1;
nodes = (
"686 726 LINE",
"420 398 LINE",
"480 402 LINE",
"777 760 LINE"
);
},
{
closed = 1;
nodes = (
"528 786 LINE",
"510 751 LINE",
"697 682 LINE",
"828 760 LINE",
"828 786 LINE"
);
},
{
closed = 1;
nodes = (
"474 435 LINE",
"385 367 LINE",
"625 60 LINE",
"798 13 LINE"
);
},
{
closed = 1;
nodes = (
"819 0 LINE",
"837 35 LINE",
"668 141 LINE",
"524 26 LINE",
"524 0 LINE"
);
},
{
closed = 1;
nodes = (
"164 60 LINE",
"450 388 LINE",
"391 384 LINE",
"74 26 LINE"
);
},
{
closed = 1;
nodes = (
"323 0 LINE",
"340 35 LINE",
"154 104 LINE",
"23 26 LINE",
"23 0 LINE"
);
}
);
width = 872;
}
);
unicode = 0058;
},
{
glyphname = Y;
lastChange = "2018-11-07 20:15:38 +0000";
layers = (
{
anchors = (
{
name = bottom;
position = "{437, 0}";
},
{
name = top;
position = "{445, 786}";
}
);
background = {
paths = (
{
closed = 1;
nodes = (
"412 241 LINE",
"499 329 LINE",
"258 721 LINE",
"86 768 LINE"
);
},
{
closed = 1;
nodes = (
"70 786 LINE",
"50 746 LINE",
"225 640 LINE",
"374 755 LINE",
"374 786 LINE"
);
},
{
closed = 1;
nodes = (
"713 721 LINE",
"436 288 LINE",
"478 246 LINE",
"803 755 LINE"
);
},
{
closed = 1;
nodes = (
"549 786 LINE",
"529 746 LINE",
"717 672 LINE",
"853 755 LINE",
"853 786 LINE"
);
},
{
closed = 1;
nodes = (
"292 31 LINE",
"292 0 LINE",
"596 0 LINE",
"616 40 LINE",
"398 114 LINE"
);
},
{
closed = 1;
nodes = (
"386 357 LINE",
"386 0 LINE",
"511 0 LINE",
"511 330 LINE"
);
}
);
};
layerId = "2CCCAF06-0AAA-44C6-8F00-0A68246BB68E";
leftMetricsKey = "=V";
rightMetricsKey = "=V";
paths = (
{
closed = 1;
nodes = (
"342 241 LINE",
"529 329 LINE",
"298 681 LINE",
"26 728 LINE"
);
},
{
closed = 1;
nodes = (
"10 786 LINE",
"-10 706 LINE",
"225 600 LINE",
"374 715 LINE",
"374 786 LINE"
);
},
{
closed = 1;
nodes = (
"673 681 LINE",
"386 288 LINE",
"488 246 LINE",
"823 715 LINE"
);
},
{
closed = 1;
nodes = (
"539 786 LINE",
"499 706 LINE",
"717 592 LINE",
"873 715 LINE",
"873 786 LINE"
);
},
{
closed = 1;
nodes = (
"242 71 LINE",
"242 0 LINE",
"616 0 LINE",
"656 80 LINE",
"348 154 LINE"
);
},
{
closed = 1;
nodes = (
"336 357 LINE",
"336 0 LINE",
"541 0 LINE",
"541 370 LINE"
);
}
);
width = 873;
},
{
anchors = (
{
name = bottom;
position = "{397, 0}";
},
{
name = top;
position = "{400, 786}";
}
);
layerId = "EED98765-8720-4D79-BBF2-40D7DAF3490F";
paths = (
{
closed = 1;
nodes = (
"365 241 LINE",
"439 329 LINE",
"197 726 LINE",
"37 773 LINE"
);
},
{
closed = 1;
nodes = (
"21 786 LINE",
"1 751 LINE",
"169 645 LINE",
"318 760 LINE",
"318 786 LINE"
);
},
{
closed = 1;
nodes = (
"662 726 LINE",
"386 288 LINE",
"421 246 LINE",
"744 760 LINE"
);
},
{
closed = 1;
nodes = (
"494 786 LINE",
"477 751 LINE",
"661 682 LINE",
"794 760 LINE",
"794 786 LINE"
);
},
{
closed = 1;
nodes = (
"242 26 LINE",
"242 0 LINE",
"537 0 LINE",
"555 35 LINE",
"348 109 LINE"
);
},
{
closed = 1;
nodes = (
"336 357 LINE",
"336 0 LINE",
"451 0 LINE",
"451 325 LINE"
);
}
);
width = 794;
}
);
leftKerningGroup = Y;
leftMetricsKey = V;
rightKerningGroup = Y;
rightMetricsKey = V;
unicode = 0059;
},
{
glyphname = Z;
lastChange = "2018-11-07 20:15:44 +0000";
layers = (
{
anchors = (
{
name = bottom;
position = "{395, 0}";
},
{
name = top;
position = "{395, 786}";
}
);
background = {
paths = (
{
closed = 1;
nodes = (
"100 564 LINE",
"130 554 LINE",
"273 766 LINE",
"175 779 LINE",
"100 804 LINE"
);
},
{
closed = 1;
nodes = (
"108 786 LINE",
"108 741 LINE",
"716 741 LINE",
"716 786 LINE"
);
},
{
closed = 1;
nodes = (
"706 242 LINE",
"676 252 LINE",
"533 40 LINE",
"631 7 LINE",
"706 -18 LINE"
);
},
{
closed = 1;
nodes = (
"698 0 LINE",
"698 45 LINE",
"69 45 LINE",
"69 0 LINE"
);
},
{
closed = 1;
nodes = (
"194 15 LINE",
"716 741 LINE",
"595 776 LINE",
"69 45 LINE"
);
}
);
};
layerId = "2CCCAF06-0AAA-44C6-8F00-0A68246BB68E";
paths = (
{
closed = 1;
nodes = (
"60 524 LINE",
"130 494 LINE",
"273 726 LINE",
"175 779 LINE",
"60 804 LINE"
);
},
{
closed = 1;
nodes = (
"68 786 LINE",
"68 691 LINE",
"756 691 LINE",
"756 786 LINE"
);
},
{
closed = 1;
nodes = (
"746 282 LINE",
"676 312 LINE",
"533 80 LINE",
"631 7 LINE",
"746 -18 LINE"
);
},
{
closed = 1;
nodes = (
"738 0 LINE",
"738 95 LINE",
"29 95 LINE",
"29 0 LINE"
);
},
{
closed = 1;
nodes = (
"229 25 LINE",
"756 691 LINE",
"560 766 LINE",
"29 95 LINE"
);
}
);
width = 790;
},
{
anchors = (
{
name = bottom;
position = "{395, 0}";
},
{
name = top;
position = "{395, 786}";
}
);
layerId = "EED98765-8720-4D79-BBF2-40D7DAF3490F";
paths = (
{
closed = 1;
nodes = (
"105 569 LINE",
"130 562 LINE",
"273 771 LINE",
"175 779 LINE",
"105 804 LINE"
);
},
{
closed = 1;
nodes = (
"113 786 LINE",
"113 747 LINE",
"711 747 LINE",
"711 786 LINE"
);
},
{
closed = 1;
nodes = (
"701 237 LINE",
"676 245 LINE",
"533 35 LINE",
"631 7 LINE",
"701 -18 LINE"
);
},
{
closed = 1;
nodes = (
"693 0 LINE",
"693 39 LINE",
"74 39 LINE",
"74 0 LINE"
);
},
{
closed = 1;
nodes = (
"190 14 LINE",
"711 747 LINE",
"599 777 LINE",
"74 39 LINE"
);
}
);
width = 790;
}
);
leftKerningGroup = Z;
rightKerningGroup = Z;
unicode = 005A;
},
{
glyphname = a;
lastChange = "2018-11-19 18:59:36 +0000";
layers = (
{
anchors = (
{
name = bottom;
position = "{323, 0}";
},
{
name = ogonek;
position = "{646, 0}";
},
{
name = top;
position = "{325, 543}";
}
);
background = {
paths = (
{
closed = 1;
nodes = (
"340 456 OFFCURVE",
"396 429 OFFCURVE",
"396 337 CURVE SMOOTH",
"396 0 LINE",
"516 0 LINE",
"516 367 LINE SMOOTH",
"516 481 OFFCURVE",
"445 541 OFFCURVE",
"325 541 CURVE SMOOTH",
"298 541 OFFCURVE",
"264 540 OFFCURVE",
"229 533 CURVE",
"85 419 LINE",
"115 381 LINE",
"188 442 OFFCURVE",
"236 456 OFFCURVE",
"267 456 CURVE SMOOTH"
);
},
{
closed = 1;
nodes = (
"407 31 LINE",
"407 0 LINE",
"586 0 LINE",
"606 40 LINE",
"413 114 LINE"
);
},
{
closed = 1;
nodes = (
"221 75 OFFCURVE",
"195 118 OFFCURVE",
"195 165 CURVE SMOOTH",
"195 189 OFFCURVE",
"200 210 OFFCURVE",
"219 232 CURVE",
"421 232 LINE",
"421 273 LINE",
"170 273 LINE",
"106 232 OFFCURVE",
"70 184 OFFCURVE",
"70 136 CURVE SMOOTH",
"70 67 OFFCURVE",
"108 -10 OFFCURVE",
"233 -10 CURVE SMOOTH",
"247 -10 OFFCURVE",
"268 -8 OFFCURVE",
"283 -2 CURVE",
"460 138 LINE",
"430 161 LINE",
"351 86 OFFCURVE",
"299 75 OFFCURVE",
"265 75 CURVE SMOOTH"
);
}
);
};
layerId = "2CCCAF06-0AAA-44C6-8F00-0A68246BB68E";
paths = (
{
closed = 1;
nodes = (
"296 553 OFFCURVE",
"251 551 OFFCURVE",
"202 534 CURVE",
"65 424 LINE",
"95 356 LINE",
"193 387 OFFCURVE",
"256 398 OFFCURVE",
"297 398 CURVE SMOOTH",
"352 398 OFFCURVE",
"396 367 OFFCURVE",
"396 299 CURVE SMOOTH",
"396 0 LINE",
"596 0 LINE",
"596 339 LINE SMOOTH",
"596 481 OFFCURVE",
"497 553 OFFCURVE",
"334 553 CURVE SMOOTH"
);
},
{
closed = 1;
nodes = (
"130 309 LINE",
"72 265 OFFCURVE",
"40 212 OFFCURVE",
"40 159 CURVE SMOOTH",
"40 80 OFFCURVE",
"84 -10 OFFCURVE",
"233 -10 CURVE SMOOTH",
"247 -10 OFFCURVE",
"268 -8 OFFCURVE",
"283 -2 CURVE",
"460 138 LINE",
"430 211 LINE",
"366 165 OFFCURVE",
"323 155 OFFCURVE",
"295 155 CURVE SMOOTH",
"257 155 OFFCURVE",
"235 170 OFFCURVE",
"235 196 CURVE SMOOTH",
"235 210 OFFCURVE",
"238 217 OFFCURVE",
"244 228 CURVE",
"421 228 LINE",
"421 309 LINE"
);
},
{
closed = 1;
nodes = (
"407 31 LINE",
"407 0 LINE",
"646 0 LINE",
"686 80 LINE",
"493 154 LINE"
);
}
);
width = 691;
},
{
anchors = (
{
name = bottom;
position = "{293, 0}";
},
{
name = ogonek;
position = "{567, 0}";
},
{
name = top;
position = "{296, 530}";
}
);
hints = (
{
horizontal = 1;
origin = "{1, 6}";
target = "{1, 14}";
type = Stem;
},
{
horizontal = 1;
origin = "{0, 16}";
target = "{0, 7}";
type = Stem;
},
{
origin = "{1, 3}";
target = "{1, 17}";
type = Stem;
},
{
origin = "{0, 11}";
target = "{0, 12}";
type = Stem;
},
{
horizontal = 1;
origin = "{1, 20}";
target = "{1, 0}";
type = Stem;
}
);
layerId = "EED98765-8720-4D79-BBF2-40D7DAF3490F";
paths = (
{
closed = 1;
nodes = (
"287 540 OFFCURVE",
"254 539 OFFCURVE",
"221 533 CURVE",
"76 418 LINE",
"106 384 LINE",
"176 449 OFFCURVE",
"222 463 OFFCURVE",
"252 463 CURVE SMOOTH",
"327 463 OFFCURVE",
"385 437 OFFCURVE",
"385 342 CURVE SMOOTH",
"385 0 LINE",
"495 0 LINE",
"495 371 LINE SMOOTH",
"495 481 OFFCURVE",
"427 540 OFFCURVE",
"313 540 CURVE SMOOTH"
);
},
{
closed = 1;
nodes = (
"164 269 LINE",
"99 228 OFFCURVE",
"63 181 OFFCURVE",
"63 133 CURVE SMOOTH",
"63 65 OFFCURVE",
"100 -10 OFFCURVE",
"222 -10 CURVE SMOOTH",
"236 -10 OFFCURVE",
"257 -8 OFFCURVE",
"272 -2 CURVE",
"449 138 LINE",
"419 155 LINE",
"338 76 OFFCURVE",
"285 65 OFFCURVE",
"250 65 CURVE SMOOTH",
"205 65 OFFCURVE",
"179 112 OFFCURVE",
"179 161 CURVE SMOOTH",
"179 186 OFFCURVE",
"184 209 OFFCURVE",
"205 233 CURVE",
"410 233 LINE",
"410 269 LINE"
);
},
{
closed = 1;
nodes = (
"396 31 LINE",
"396 0 LINE",
"567 0 LINE",
"585 35 LINE",
"392 109 LINE"
);
}
);
width = 612;
}
);
leftKerningGroup = a;
rightKerningGroup = n;
rightMetricsKey = n;
unicode = 0061;
},
{
glyphname = a.ss01;
lastChange = "2018-10-29 15:11:46 +0000";
layers = (
{
anchors = (
{
name = ogonek;
position = "{700, 0}";
},
{
name = top;
position = "{369, 543}";
}
);
background = {
paths = (
{
closed = 1;
nodes = (
"350 553 OFFCURVE",
"305 551 OFFCURVE",
"256 534 CURVE",
"119 424 LINE",
"149 356 LINE",
"247 387 OFFCURVE",
"310 398 OFFCURVE",
"351 398 CURVE SMOOTH",
"406 398 OFFCURVE",
"450 367 OFFCURVE",
"450 299 CURVE SMOOTH",
"450 0 LINE",
"650 0 LINE",
"650 339 LINE SMOOTH",
"650 481 OFFCURVE",
"551 553 OFFCURVE",
"388 553 CURVE SMOOTH"
);
},
{
closed = 1;
nodes = (
"184 309 LINE",
"126 265 OFFCURVE",
"94 212 OFFCURVE",
"94 159 CURVE SMOOTH",
"94 80 OFFCURVE",
"138 -10 OFFCURVE",
"287 -10 CURVE SMOOTH",
"301 -10 OFFCURVE",
"322 -8 OFFCURVE",
"337 -2 CURVE",
"514 138 LINE",
"484 211 LINE",
"420 165 OFFCURVE",
"377 155 OFFCURVE",
"349 155 CURVE SMOOTH",
"311 155 OFFCURVE",
"289 170 OFFCURVE",
"289 196 CURVE SMOOTH",
"289 210 OFFCURVE",
"292 217 OFFCURVE",
"298 228 CURVE",
"475 228 LINE",
"475 309 LINE"
);
},
{
closed = 1;
nodes = (
"461 31 LINE",
"461 0 LINE",
"700 0 LINE",
"740 80 LINE",
"547 154 LINE"
);
}
);
};
layerId = "2CCCAF06-0AAA-44C6-8F00-0A68246BB68E";
rightMetricsKey = "=n";
paths = (
{
closed = 1;
nodes = (
"220 553 OFFCURVE",
"50 418 OFFCURVE",
"50 248 CURVE SMOOTH",
"50 104 OFFCURVE",
"146 -10 OFFCURVE",
"280 -10 CURVE SMOOTH",
"302 -10 OFFCURVE",
"329 -9 OFFCURVE",
"357 -2 CURVE",
"534 138 LINE",
"503 207 LINE",
"455 170 OFFCURVE",
"404 155 OFFCURVE",
"351 155 CURVE SMOOTH",
"291 155 OFFCURVE",
"260 219 OFFCURVE",
"260 296 CURVE SMOOTH",
"260 374 OFFCURVE",
"285 419 OFFCURVE",
"333 419 CURVE SMOOTH",
"412 419 OFFCURVE",
"451 373 OFFCURVE",
"451 323 CURVE",
"631 295 LINE",
"631 438 OFFCURVE",
"516 553 OFFCURVE",
"351 553 CURVE SMOOTH"
);
},
{
closed = 1;
nodes = (
"572 553 LINE",
"450 451 LINE",
"450 0 LINE",
"650 0 LINE",
"650 553 LINE"
);
},
{
closed = 1;
nodes = (
"461 31 LINE",
"461 0 LINE",
"700 0 LINE",
"740 80 LINE",
"547 154 LINE"
);
}
);
width = 745;
},
{
anchors = (
{
name = ogonek;
position = "{655, 0}";
},
{
name = top;
position = "{344, 530}";
}
);
layerId = "EED98765-8720-4D79-BBF2-40D7DAF3490F";
paths = (
{
closed = 1;
nodes = (
"243 540 OFFCURVE",
"73 409 OFFCURVE",
"73 248 CURVE SMOOTH",
"73 104 OFFCURVE",
"169 -10 OFFCURVE",
"303 -10 CURVE SMOOTH",
"325 -10 OFFCURVE",
"352 -9 OFFCURVE",
"380 -2 CURVE",
"557 138 LINE",
"527 155 LINE",
"443 76 OFFCURVE",
"397 65 OFFCURVE",
"351 65 CURVE SMOOTH",
"244 65 OFFCURVE",
"193 174 OFFCURVE",
"193 296 CURVE SMOOTH",
"193 404 OFFCURVE",
"231 462 OFFCURVE",
"311 462 CURVE SMOOTH",
"421 462 OFFCURVE",
"474 400 OFFCURVE",
"474 329 CURVE",
"564 282 LINE",
"564 425 OFFCURVE",
"485 540 OFFCURVE",
"374 540 CURVE SMOOTH"
);
},
{
closed = 1;
nodes = (
"550 551 LINE",
"473 435 LINE",
"473 0 LINE",
"583 0 LINE",
"583 551 LINE"
);
},
{
closed = 1;
nodes = (
"484 31 LINE",
"484 0 LINE",
"655 0 LINE",
"673 35 LINE",
"480 109 LINE"
);
}
);
width = 711;
}
);
leftKerningGroup = o;
leftMetricsKey = o;
rightKerningGroup = u;
rightMetricsKey = n;
},
{
glyphname = amacron;
lastChange = "2018-11-19 17:10:59 +0000";
layers = (
{
anchors = (
{
name = _centre;
position = "{325, 816}";
}
);
components = (
{
name = a;
}
);
layerId = "2CCCAF06-0AAA-44C6-8F00-0A68246BB68E";
paths = (
{
closed = 1;
nodes = (
"574 814 LINE",
"76 814 LINE",
"76 733 LINE",
"574 733 LINE"
);
}
);
width = 691;
},
{
anchors = (
{
name = _centre;
position = "{296, 794}";
}
);
components = (
{
name = a;
}
);
layerId = "EED98765-8720-4D79-BBF2-40D7DAF3490F";
paths = (
{
closed = 1;
nodes = (
"500 792 LINE",
"92 792 LINE",
"92 751 LINE",
"500 751 LINE"
);
}
);
width = 612;
}
);
leftKerningGroup = a;
rightKerningGroup = n;
unicode = 0101;
},
{
glyphname = amacron.ss01;
lastChange = "2018-11-19 17:10:59 +0000";
layers = (
{
anchors = (
{
name = _centre;
position = "{369, 816}";
}
);
components = (
{
name = a.ss01;
}
);
layerId = "2CCCAF06-0AAA-44C6-8F00-0A68246BB68E";
paths = (
{
closed = 1;
nodes = (
"618 814 LINE",
"120 814 LINE",
"120 733 LINE",
"618 733 LINE"
);
}
);
width = 745;
},
{
anchors = (
{
name = _centre;
position = "{344, 794}";
}
);
components = (
{
name = a.ss01;
}
);
layerId = "EED98765-8720-4D79-BBF2-40D7DAF3490F";
paths = (
{
closed = 1;
nodes = (
"548 792 LINE",
"140 792 LINE",
"140 751 LINE",
"548 751 LINE"
);
}
);
width = 711;
}
);
leftKerningGroup = o;
rightKerningGroup = u;
},
{
color = 7;
glyphname = ae;
lastChange = "2018-10-29 15:11:46 +0000";
layers = (
{
background = {
paths = (
{
closed = 1;
nodes = (
"324 456 OFFCURVE",
"376 429 OFFCURVE",
"376 337 CURVE SMOOTH",
"376 258 LINE",
"496 216 LINE",
"496 367 LINE SMOOTH",
"496 481 OFFCURVE",
"429 541 OFFCURVE",
"315 541 CURVE SMOOTH",
"288 541 OFFCURVE",
"254 540 OFFCURVE",
"219 533 CURVE",
"75 419 LINE",
"105 381 LINE",
"178 442 OFFCURVE",
"226 456 OFFCURVE",
"257 456 CURVE SMOOTH"
);
},
{
closed = 1;
nodes = (
"211 75 OFFCURVE",
"185 118 OFFCURVE",
"185 165 CURVE SMOOTH",
"185 189 OFFCURVE",
"190 210 OFFCURVE",
"209 232 CURVE",
"401 232 LINE",
"401 272 LINE",
"160 272 LINE",
"96 231 OFFCURVE",
"60 184 OFFCURVE",
"60 136 CURVE SMOOTH",
"60 67 OFFCURVE",
"98 -10 OFFCURVE",
"223 -10 CURVE SMOOTH",
"237 -10 OFFCURVE",
"258 -8 OFFCURVE",
"273 -2 CURVE",
"440 138 LINE",
"410 161 LINE",
"336 86 OFFCURVE",
"287 75 OFFCURVE",
"255 75 CURVE SMOOTH"
);
},
{
closed = 1;
nodes = (
"468 309 LINE",
"468 268 LINE",
"846 268 LINE",
"846 428 OFFCURVE",
"783 541 OFFCURVE",
"666 541 CURVE SMOOTH",
"539 541 OFFCURVE",
"375 410 OFFCURVE",
"375 248 CURVE SMOOTH",
"375 104 OFFCURVE",
"467 -10 OFFCURVE",
"590 -10 CURVE SMOOTH",
"617 -10 OFFCURVE",
"651 -9 OFFCURVE",
"686 -2 CURVE",
"844 124 LINE",
"814 162 LINE",
"739 101 OFFCURVE",
"684 75 OFFCURVE",
"648 75 CURVE SMOOTH",
"553 75 OFFCURVE",
"505 178 OFFCURVE",
"505 296 CURVE SMOOTH",
"505 401 OFFCURVE",
"539 457 OFFCURVE",
"608 457 CURVE SMOOTH",
"695 457 OFFCURVE",
"698 385 OFFCURVE",
"712 293 CURVE",
"747 309 LINE"
);
}
);
};
layerId = "2CCCAF06-0AAA-44C6-8F00-0A68246BB68E";
leftMetricsKey = "=a";
rightMetricsKey = "=e";
paths = (
{
closed = 1;
nodes = (
"557 553 OFFCURVE",
"375 422 OFFCURVE",
"375 254 CURVE SMOOTH",
"375 104 OFFCURVE",
"479 -10 OFFCURVE",
"625 -10 CURVE SMOOTH",
"669 -10 OFFCURVE",
"721 -8 OFFCURVE",
"778 9 CURVE",
"915 119 LINE",
"885 187 LINE",
"787 149 OFFCURVE",
"724 135 OFFCURVE",
"683 135 CURVE SMOOTH",
"611 135 OFFCURVE",
"575 207 OFFCURVE",
"575 302 CURVE SMOOTH",
"575 381 OFFCURVE",
"596 419 OFFCURVE",
"642 419 CURVE SMOOTH",
"697 419 OFFCURVE",
"718 379 OFFCURVE",
"722 299 CURVE",
"747 315 LINE",
"498 315 LINE",
"498 234 LINE",
"916 234 LINE",
"920 440 OFFCURVE",
"837 553 OFFCURVE",
"696 553 CURVE SMOOTH"
);
},
{
closed = 1;
nodes = (
"130 309 LINE",
"72 265 OFFCURVE",
"40 212 OFFCURVE",
"40 159 CURVE SMOOTH",
"40 80 OFFCURVE",
"84 -10 OFFCURVE",
"233 -10 CURVE SMOOTH",
"262 -10 OFFCURVE",
"303 -8 OFFCURVE",
"333 -2 CURVE",
"510 138 LINE",
"480 191 LINE",
"396 145 OFFCURVE",
"341 135 OFFCURVE",
"305 135 CURVE SMOOTH",
"261 135 OFFCURVE",
"235 158 OFFCURVE",
"235 196 CURVE SMOOTH",
"235 210 OFFCURVE",
"238 217 OFFCURVE",
"244 228 CURVE",
"421 228 LINE",
"421 309 LINE"
);
},
{
closed = 1;
nodes = (
"289 553 OFFCURVE",
"247 551 OFFCURVE",
"202 534 CURVE",
"65 424 LINE",
"95 356 LINE",
"188 387 OFFCURVE",
"248 398 OFFCURVE",
"287 398 CURVE SMOOTH",
"336 398 OFFCURVE",
"376 367 OFFCURVE",
"376 299 CURVE SMOOTH",
"376 267 LINE",
"566 254 LINE",
"566 339 LINE SMOOTH",
"566 481 OFFCURVE",
"475 553 OFFCURVE",
"324 553 CURVE SMOOTH"
);
}
);
width = 966;
},
{
layerId = "EED98765-8720-4D79-BBF2-40D7DAF3490F";
paths = (
{
closed = 1;
nodes = (
"537 540 OFFCURVE",
"375 409 OFFCURVE",
"375 247 CURVE SMOOTH",
"375 104 OFFCURVE",
"466 -10 OFFCURVE",
"586 -10 CURVE SMOOTH",
"611 -10 OFFCURVE",
"642 -9 OFFCURVE",
"675 -3 CURVE",
"835 125 LINE",
"805 159 LINE",
"733 95 OFFCURVE",
"679 68 OFFCURVE",
"644 68 CURVE SMOOTH",
"546 68 OFFCURVE",
"496 174 OFFCURVE",
"496 295 CURVE SMOOTH",
"496 404 OFFCURVE",
"532 462 OFFCURVE",
"604 462 CURVE SMOOTH",
"695 462 OFFCURVE",
"696 386 OFFCURVE",
"711 292 CURVE",
"747 308 LINE",
"464 308 LINE",
"464 272 LINE",
"837 272 LINE",
"837 427 OFFCURVE",
"776 540 OFFCURVE",
"662 540 CURVE SMOOTH"
);
},
{
closed = 1;
nodes = (
"164 267 LINE",
"99 227 OFFCURVE",
"63 181 OFFCURVE",
"63 133 CURVE SMOOTH",
"63 65 OFFCURVE",
"100 -10 OFFCURVE",
"222 -10 CURVE SMOOTH",
"244 -10 OFFCURVE",
"276 -8 OFFCURVE",
"299 -2 CURVE",
"465 138 LINE",
"413 157 LINE",
"340 79 OFFCURVE",
"292 68 OFFCURVE",
"260 68 CURVE SMOOTH",
"209 68 OFFCURVE",
"179 113 OFFCURVE",
"179 161 CURVE SMOOTH",
"179 186 OFFCURVE",
"184 209 OFFCURVE",
"205 233 CURVE",
"399 233 LINE",
"399 267 LINE"
);
},
{
closed = 1;
nodes = (
"288 540 OFFCURVE",
"255 539 OFFCURVE",
"221 533 CURVE",
"76 418 LINE",
"106 384 LINE",
"177 449 OFFCURVE",
"223 463 OFFCURVE",
"253 463 CURVE SMOOTH",
"323 463 OFFCURVE",
"376 437 OFFCURVE",
"376 342 CURVE SMOOTH",
"376 257 LINE",
"487 211 LINE",
"487 371 LINE SMOOTH",
"487 481 OFFCURVE",
"423 540 OFFCURVE",
"314 540 CURVE SMOOTH"
);
}
);
width = 910;
}
);
leftKerningGroup = a;
leftMetricsKey = a;
rightKerningGroup = o;
rightMetricsKey = e;
unicode = 00E6;
},
{
color = 7;
glyphname = ae.ss01;
lastChange = "2018-10-29 15:07:35 +0000";
layers = (
{
background = {
paths = (
{
closed = 1;
nodes = (
"594 553 OFFCURVE",
"412 422 OFFCURVE",
"412 254 CURVE SMOOTH",
"412 104 OFFCURVE",
"516 -10 OFFCURVE",
"662 -10 CURVE SMOOTH",
"706 -10 OFFCURVE",
"758 -8 OFFCURVE",
"815 9 CURVE",
"952 119 LINE",
"922 187 LINE",
"824 149 OFFCURVE",
"761 135 OFFCURVE",
"720 135 CURVE SMOOTH",
"648 135 OFFCURVE",
"612 207 OFFCURVE",
"612 302 CURVE SMOOTH",
"612 381 OFFCURVE",
"633 419 OFFCURVE",
"679 419 CURVE SMOOTH",
"734 419 OFFCURVE",
"755 379 OFFCURVE",
"759 299 CURVE",
"784 315 LINE",
"535 315 LINE",
"535 234 LINE",
"953 234 LINE",
"957 440 OFFCURVE",
"874 553 OFFCURVE",
"733 553 CURVE SMOOTH"
);
},
{
closed = 1;
nodes = (
"167 309 LINE",
"109 265 OFFCURVE",
"77 212 OFFCURVE",
"77 159 CURVE SMOOTH",
"77 80 OFFCURVE",
"121 -10 OFFCURVE",
"270 -10 CURVE SMOOTH",
"299 -10 OFFCURVE",
"340 -8 OFFCURVE",
"370 -2 CURVE",
"547 138 LINE",
"517 191 LINE",
"433 145 OFFCURVE",
"378 135 OFFCURVE",
"342 135 CURVE SMOOTH",
"298 135 OFFCURVE",
"272 158 OFFCURVE",
"272 196 CURVE SMOOTH",
"272 210 OFFCURVE",
"275 217 OFFCURVE",
"281 228 CURVE",
"458 228 LINE",
"458 309 LINE"
);
},
{
closed = 1;
nodes = (
"326 553 OFFCURVE",
"284 551 OFFCURVE",
"239 534 CURVE",
"102 424 LINE",
"132 356 LINE",
"225 387 OFFCURVE",
"285 398 OFFCURVE",
"324 398 CURVE SMOOTH",
"373 398 OFFCURVE",
"413 367 OFFCURVE",
"413 299 CURVE SMOOTH",
"413 267 LINE",
"603 254 LINE",
"603 339 LINE SMOOTH",
"603 481 OFFCURVE",
"512 553 OFFCURVE",
"361 553 CURVE SMOOTH"
);
}
);
};
layerId = "2CCCAF06-0AAA-44C6-8F00-0A68246BB68E";
leftMetricsKey = "=o";
rightMetricsKey = "=e";
paths = (
{
closed = 1;
nodes = (
"594 553 OFFCURVE",
"412 422 OFFCURVE",
"412 254 CURVE SMOOTH",
"412 104 OFFCURVE",
"516 -10 OFFCURVE",
"662 -10 CURVE SMOOTH",
"706 -10 OFFCURVE",
"758 -8 OFFCURVE",
"815 9 CURVE",
"952 119 LINE",
"922 187 LINE",
"824 149 OFFCURVE",
"761 135 OFFCURVE",
"720 135 CURVE SMOOTH",
"648 135 OFFCURVE",
"612 207 OFFCURVE",
"612 302 CURVE SMOOTH",
"612 381 OFFCURVE",
"633 419 OFFCURVE",
"679 419 CURVE SMOOTH",
"734 419 OFFCURVE",
"755 379 OFFCURVE",
"759 299 CURVE",
"784 315 LINE",
"535 315 LINE",
"535 234 LINE",
"953 234 LINE",
"957 440 OFFCURVE",
"874 553 OFFCURVE",
"733 553 CURVE SMOOTH"
);
},
{
closed = 1;
nodes = (
"208 553 OFFCURVE",
"50 418 OFFCURVE",
"50 248 CURVE SMOOTH",
"50 104 OFFCURVE",
"138 -10 OFFCURVE",
"260 -10 CURVE SMOOTH",
"276 -10 OFFCURVE",
"297 -9 OFFCURVE",
"317 -2 CURVE",
"494 138 LINE",
"463 207 LINE",
"421 170 OFFCURVE",
"377 155 OFFCURVE",
"331 155 CURVE SMOOTH",
"285 155 OFFCURVE",
"260 219 OFFCURVE",
"260 296 CURVE SMOOTH",
"260 374 OFFCURVE",
"279 419 OFFCURVE",
"313 419 CURVE SMOOTH",
"378 419 OFFCURVE",
"411 373 OFFCURVE",
"411 323 CURVE",
"591 295 LINE",
"591 438 OFFCURVE",
"484 553 OFFCURVE",
"331 553 CURVE SMOOTH"
);
},
{
closed = 1;
nodes = (
"532 553 LINE",
"410 451 LINE",
"410 -10 LINE",
"488 -10 LINE",
"610 92 LINE",
"610 553 LINE"
);
}
);
width = 1003;
},
{
layerId = "EED98765-8720-4D79-BBF2-40D7DAF3490F";
paths = (
{
closed = 1;
nodes = (
"594 540 OFFCURVE",
"432 409 OFFCURVE",
"432 247 CURVE SMOOTH",
"432 104 OFFCURVE",
"523 -10 OFFCURVE",
"643 -10 CURVE SMOOTH",
"668 -10 OFFCURVE",
"700 -9 OFFCURVE",
"732 -3 CURVE",
"892 125 LINE",
"862 159 LINE",
"790 95 OFFCURVE",
"736 68 OFFCURVE",
"701 68 CURVE SMOOTH",
"603 68 OFFCURVE",
"554 174 OFFCURVE",
"554 295 CURVE SMOOTH",
"554 404 OFFCURVE",
"589 462 OFFCURVE",
"661 462 CURVE SMOOTH",
"752 462 OFFCURVE",
"753 386 OFFCURVE",
"768 292 CURVE",
"804 308 LINE",
"522 308 LINE",
"522 272 LINE",
"895 272 LINE",
"894 427 OFFCURVE",
"834 540 OFFCURVE",
"720 540 CURVE SMOOTH"
);
},
{
closed = 1;
nodes = (
"231 540 OFFCURVE",
"73 409 OFFCURVE",
"73 248 CURVE SMOOTH",
"73 104 OFFCURVE",
"161 -10 OFFCURVE",
"283 -10 CURVE SMOOTH",
"299 -10 OFFCURVE",
"320 -9 OFFCURVE",
"340 -2 CURVE",
"517 138 LINE",
"487 155 LINE",
"413 76 OFFCURVE",
"371 65 OFFCURVE",
"331 65 CURVE SMOOTH",
"238 65 OFFCURVE",
"193 174 OFFCURVE",
"193 296 CURVE SMOOTH",
"193 404 OFFCURVE",
"225 462 OFFCURVE",
"291 462 CURVE SMOOTH",
"387 462 OFFCURVE",
"434 400 OFFCURVE",
"434 329 CURVE",
"524 282 LINE",
"524 425 OFFCURVE",
"453 540 OFFCURVE",
"354 540 CURVE SMOOTH"
);
},
{
closed = 1;
nodes = (
"510 551 LINE",
"433 435 LINE",
"433 -21 LINE",
"466 -21 LINE",
"543 94 LINE",
"543 551 LINE"
);
}
);
width = 967;
}
);
leftKerningGroup = o;
leftMetricsKey = a;
rightKerningGroup = o;
rightMetricsKey = e;
},
{
glyphname = b;
lastChange = "2018-11-07 20:16:41 +0000";
layers = (
{
anchors = (
{
name = bottom;
position = "{373, 0}";
},
{
name = top;
position = "{201, 823}";
}
);
background = {
paths = (
{
closed = 1;
nodes = (
"482 541 OFFCURVE",
"455 540 OFFCURVE",
"427 533 CURVE",
"250 393 LINE",
"280 370 LINE",
"360 445 OFFCURVE",
"406 456 OFFCURVE",
"453 456 CURVE SMOOTH",
"527 456 OFFCURVE",
"564 352 OFFCURVE",
"564 235 CURVE SMOOTH",
"564 130 OFFCURVE",
"527 74 OFFCURVE",
"451 74 CURVE SMOOTH",
"344 74 OFFCURVE",
"293 134 OFFCURVE",
"293 203 CURVE",
"193 248 LINE",
"193 105 OFFCURVE",
"276 -10 OFFCURVE",
"393 -10 CURVE SMOOTH",
"524 -10 OFFCURVE",
"694 121 OFFCURVE",
"694 283 CURVE SMOOTH",
"694 427 OFFCURVE",
"614 541 OFFCURVE",
"504 541 CURVE SMOOTH"
);
},
{
closed = 1;
nodes = (
"174 805 LINE",
"174 0 LINE",
"212 0 LINE",
"294 114 LINE",
"294 805 LINE"
);
},
{
closed = 1;
nodes = (
"256 873 LINE",
"85 809 LINE",
"85 778 LINE",
"257 658 LINE",
"294 722 LINE",
"294 873 LINE"
);
}
);
};
layerId = "2CCCAF06-0AAA-44C6-8F00-0A68246BB68E";
leftMetricsKey = "=l-10";
rightMetricsKey = "=o";
paths = (
{
closed = 1;
nodes = (
"443 553 OFFCURVE",
"420 552 OFFCURVE",
"392 545 CURVE",
"215 403 LINE",
"245 347 LINE",
"293 384 OFFCURVE",
"344 399 OFFCURVE",
"397 399 CURVE SMOOTH",
"458 399 OFFCURVE",
"485 330 OFFCURVE",
"485 242 CURVE SMOOTH",
"485 163 OFFCURVE",
"460 124 OFFCURVE",
"412 124 CURVE SMOOTH",
"333 124 OFFCURVE",
"294 170 OFFCURVE",
"294 222 CURVE",
"154 214 LINE",
"154 88 OFFCURVE",
"238 -10 OFFCURVE",
"354 -10 CURVE SMOOTH",
"501 -10 OFFCURVE",
"695 121 OFFCURVE",
"695 289 CURVE SMOOTH",
"695 438 OFFCURVE",
"600 553 OFFCURVE",
"465 553 CURVE SMOOTH"
);
},
{
closed = 1;
nodes = (
"94 805 LINE",
"94 0 LINE",
"172 0 LINE",
"294 114 LINE",
"294 805 LINE"
);
},
{
closed = 1;
nodes = (
"216 873 LINE",
"5 784 LINE",
"5 713 LINE",
"257 548 LINE",
"294 654 LINE",
"294 873 LINE"
);
}
);
width = 745;
},
{
anchors = (
{
name = bottom;
position = "{350, 0}";
},
{
name = top;
position = "{174, 823}";
}
);
layerId = "EED98765-8720-4D79-BBF2-40D7DAF3490F";
paths = (
{
closed = 1;
nodes = (
"421 540 OFFCURVE",
"393 539 OFFCURVE",
"365 532 CURVE",
"188 392 LINE",
"218 373 LINE",
"302 453 OFFCURVE",
"347 463 OFFCURVE",
"394 463 CURVE SMOOTH",
"469 463 OFFCURVE",
"508 355 OFFCURVE",
"508 234 CURVE SMOOTH",
"508 126 OFFCURVE",
"469 68 OFFCURVE",
"390 68 CURVE SMOOTH",
"279 68 OFFCURVE",
"227 130 OFFCURVE",
"227 201 CURVE",
"132 252 LINE",
"132 107 OFFCURVE",
"214 -10 OFFCURVE",
"332 -10 CURVE SMOOTH",
"461 -10 OFFCURVE",
"628 121 OFFCURVE",
"628 282 CURVE SMOOTH",
"628 426 OFFCURVE",
"549 540 OFFCURVE",
"443 540 CURVE SMOOTH"
);
},
{
closed = 1;
nodes = (
"117 805 LINE",
"117 0 LINE",
"150 0 LINE",
"227 114 LINE",
"227 805 LINE"
);
},
{
closed = 1;
nodes = (
"194 873 LINE",
"28 812 LINE",
"28 786 LINE",
"190 672 LINE",
"227 731 LINE",
"227 873 LINE"
);
}
);
width = 700;
}
);
leftKerningGroup = b;
leftMetricsKey = l;
rightKerningGroup = o;
rightMetricsKey = o;
unicode = 0062;
},
{
glyphname = c;
lastChange = "2018-10-29 15:07:35 +0000";
layers = (
{
anchors = (
{
name = bottom;
position = "{355, 0}";
},
{
name = top;
position = "{337, 543}";
}
);
background = {
paths = (
{
closed = 1;
nodes = (
"386 457 OFFCURVE",
"456 416 OFFCURVE",
"507 350 CURVE",
"545 350 LINE",
"545 504 LINE",
"513 522 OFFCURVE",
"427 541 OFFCURVE",
"371 541 CURVE SMOOTH",
"248 541 OFFCURVE",
"90 410 OFFCURVE",
"90 248 CURVE SMOOTH",
"90 104 OFFCURVE",
"186 -10 OFFCURVE",
"320 -10 CURVE SMOOTH",
"347 -10 OFFCURVE",
"381 -9 OFFCURVE",
"416 -2 CURVE",
"570 119 LINE",
"540 157 LINE",
"462 96 OFFCURVE",
"411 75 OFFCURVE",
"378 75 CURVE SMOOTH",
"271 75 OFFCURVE",
"220 178 OFFCURVE",
"220 296 CURVE SMOOTH",
"220 401 OFFCURVE",
"251 457 OFFCURVE",
"313 457 CURVE SMOOTH"
);
},
{
closed = 1;
nodes = (
"433 1 OFFCURVE",
"456 4 OFFCURVE",
"473 9 CURVE",
"610 119 LINE",
"580 192 LINE",
"545 172 OFFCURVE",
"511 166 OFFCURVE",
"486 166 CURVE SMOOTH",
"444 166 OFFCURVE",
"430 188 OFFCURVE",
"430 245 CURVE SMOOTH",
"430 554 LINE",
"230 554 LINE",
"230 155 LINE SMOOTH",
"230 61 OFFCURVE",
"299 1 OFFCURVE",
"408 1 CURVE SMOOTH"
);
}
);
};
layerId = "2CCCAF06-0AAA-44C6-8F00-0A68246BB68E";
leftMetricsKey = "=o";
paths = (
{
closed = 1;
nodes = (
"232 553 OFFCURVE",
"50 422 OFFCURVE",
"50 254 CURVE SMOOTH",
"50 104 OFFCURVE",
"162 -10 OFFCURVE",
"320 -10 CURVE SMOOTH",
"364 -10 OFFCURVE",
"416 -8 OFFCURVE",
"473 9 CURVE",
"610 119 LINE",
"580 187 LINE",
"482 149 OFFCURVE",
"419 135 OFFCURVE",
"378 135 CURVE SMOOTH",
"299 135 OFFCURVE",
"260 211 OFFCURVE",
"260 302 CURVE SMOOTH",
"260 377 OFFCURVE",
"286 419 OFFCURVE",
"326 419 CURVE SMOOTH",
"395 419 OFFCURVE",
"459 378 OFFCURVE",
"507 312 CURVE",
"585 312 LINE",
"585 516 LINE",
"545 534 OFFCURVE",
"439 553 OFFCURVE",
"371 553 CURVE SMOOTH"
);
}
);
width = 653;
},
{
anchors = (
{
name = bottom;
position = "{311, 0}";
},
{
name = top;
position = "{315, 530}";
}
);
layerId = "EED98765-8720-4D79-BBF2-40D7DAF3490F";
paths = (
{
closed = 1;
nodes = (
"228 540 OFFCURVE",
"73 409 OFFCURVE",
"73 247 CURVE SMOOTH",
"73 104 OFFCURVE",
"167 -10 OFFCURVE",
"298 -10 CURVE SMOOTH",
"322 -10 OFFCURVE",
"354 -9 OFFCURVE",
"386 -3 CURVE",
"543 119 LINE",
"513 153 LINE",
"437 89 OFFCURVE",
"388 68 OFFCURVE",
"356 68 CURVE SMOOTH",
"245 68 OFFCURVE",
"193 174 OFFCURVE",
"193 295 CURVE SMOOTH",
"193 404 OFFCURVE",
"224 462 OFFCURVE",
"289 462 CURVE SMOOTH",
"362 462 OFFCURVE",
"433 421 OFFCURVE",
"485 355 CURVE",
"518 355 LINE",
"518 503 LINE",
"487 521 OFFCURVE",
"403 540 OFFCURVE",
"349 540 CURVE SMOOTH"
);
}
);
width = 608;
}
);
leftKerningGroup = o;
leftMetricsKey = o;
rightKerningGroup = c;
unicode = 0063;
},
{
glyphname = d;
lastChange = "2018-11-07 20:17:41 +0000";
layers = (
{
anchors = (
{
name = bottom;
position = "{373, 0}";
},
{
name = center;
position = "{373, 266}";
},
{
name = centre;
position = "{496, 658}";
},
{
name = top;
position = "{546, 823}";
},
{
name = topright;
position = "{690, 543}";
}
);
background = {
paths = (
{
closed = 1;
nodes = (
"591 426 OFFCURVE",
"508 541 OFFCURVE",
"391 541 CURVE SMOOTH",
"260 541 OFFCURVE",
"90 410 OFFCURVE",
"90 248 CURVE SMOOTH",
"90 104 OFFCURVE",
"186 -10 OFFCURVE",
"320 -10 CURVE SMOOTH",
"342 -10 OFFCURVE",
"369 -9 OFFCURVE",
"397 -2 CURVE",
"574 138 LINE",
"544 161 LINE",
"464 86 OFFCURVE",
"418 75 OFFCURVE",
"371 75 CURVE SMOOTH",
"269 75 OFFCURVE",
"220 179 OFFCURVE",
"220 296 CURVE SMOOTH",
"220 401 OFFCURVE",
"257 457 OFFCURVE",
"333 457 CURVE SMOOTH",
"440 457 OFFCURVE",
"491 397 OFFCURVE",
"491 328 CURVE",
"591 283 LINE"
);
},
{
closed = 1;
nodes = (
"501 31 LINE",
"501 0 LINE",
"680 0 LINE",
"700 40 LINE",
"507 114 LINE"
);
},
{
closed = 1;
nodes = (
"490 779 LINE",
"490 0 LINE",
"610 0 LINE",
"610 722 LINE"
);
},
{
closed = 1;
nodes = (
"401 809 LINE",
"401 778 LINE",
"573 658 LINE",
"610 722 LINE",
"610 873 LINE",
"572 873 LINE"
);
}
);
};
layerId = "2CCCAF06-0AAA-44C6-8F00-0A68246BB68E";
leftMetricsKey = "=o";
rightMetricsKey = "=l";
paths = (
{
closed = 1;
nodes = (
"244 553 OFFCURVE",
"50 422 OFFCURVE",
"50 254 CURVE SMOOTH",
"50 105 OFFCURVE",
"145 -10 OFFCURVE",
"280 -10 CURVE SMOOTH",
"302 -10 OFFCURVE",
"325 -9 OFFCURVE",
"353 -2 CURVE",
"530 140 LINE",
"500 206 LINE",
"452 169 OFFCURVE",
"401 154 OFFCURVE",
"348 154 CURVE SMOOTH",
"287 154 OFFCURVE",
"260 219 OFFCURVE",
"260 301 CURVE SMOOTH",
"260 380 OFFCURVE",
"285 419 OFFCURVE",
"333 419 CURVE SMOOTH",
"412 419 OFFCURVE",
"451 378 OFFCURVE",
"451 331 CURVE",
"551 329 LINE",
"551 455 OFFCURVE",
"483 553 OFFCURVE",
"391 553 CURVE SMOOTH"
);
},
{
closed = 1;
nodes = (
"490 71 LINE",
"490 0 LINE",
"700 0 LINE",
"740 80 LINE",
"467 164 LINE"
);
},
{
closed = 1;
nodes = (
"450 779 LINE",
"450 0 LINE",
"650 0 LINE",
"650 873 LINE"
);
},
{
closed = 1;
nodes = (
"572 873 LINE",
"361 784 LINE",
"361 713 LINE",
"613 548 LINE",
"650 873 LINE"
);
}
);
width = 745;
},
{
anchors = (
{
name = bottom;
position = "{350, 0}";
},
{
name = center;
position = "{351, 266}";
},
{
name = centre;
position = "{496, 658}";
},
{
name = top;
position = "{527, 823}";
},
{
name = topright;
position = "{668, 530}";
}
);
layerId = "EED98765-8720-4D79-BBF2-40D7DAF3490F";
paths = (
{
closed = 1;
nodes = (
"240 540 OFFCURVE",
"73 409 OFFCURVE",
"73 247 CURVE SMOOTH",
"73 104 OFFCURVE",
"169 -10 OFFCURVE",
"303 -10 CURVE SMOOTH",
"325 -10 OFFCURVE",
"352 -9 OFFCURVE",
"380 -2 CURVE",
"557 138 LINE",
"527 155 LINE",
"443 76 OFFCURVE",
"398 65 OFFCURVE",
"351 65 CURVE SMOOTH",
"244 65 OFFCURVE",
"193 174 OFFCURVE",
"193 295 CURVE SMOOTH",
"193 404 OFFCURVE",
"231 462 OFFCURVE",
"311 462 CURVE SMOOTH",
"421 462 OFFCURVE",
"474 399 OFFCURVE",
"474 328 CURVE",
"574 277 LINE",
"574 422 OFFCURVE",
"489 540 OFFCURVE",
"369 540 CURVE SMOOTH"
);
},
{
closed = 1;
nodes = (
"480 26 LINE",
"480 0 LINE",
"655 0 LINE",
"673 35 LINE",
"490 108 LINE"
);
},
{
closed = 1;
nodes = (
"473 779 LINE",
"473 0 LINE",
"583 0 LINE",
"583 873 LINE"
);
},
{
closed = 1;
nodes = (
"550 873 LINE",
"384 812 LINE",
"384 786 LINE",
"546 672 LINE",
"583 873 LINE"
);
}
);
width = 700;
}
);
leftKerningGroup = o;
leftMetricsKey = o;
rightKerningGroup = l;
rightMetricsKey = n;
unicode = 0064;
},
{
glyphname = eth;
lastChange = "2018-10-29 15:07:35 +0000";
layers = (
{
background = {
paths = (
{
closed = 1;
nodes = (
"606 883 LINE",
"39 580 LINE",
"58 543 LINE",
"626 846 LINE"
);
},
{
closed = 1;
nodes = (
"545 419 LINE",
"545 516 LINE",
"513 534 OFFCURVE",
"427 553 OFFCURVE",
"371 553 CURVE SMOOTH",
"220 553 OFFCURVE",
"24 418 OFFCURVE",
"24 254 CURVE SMOOTH",
"24 104 OFFCURVE",
"140 -10 OFFCURVE",
"300 -10 CURVE SMOOTH",
"451 -10 OFFCURVE",
"652 121 OFFCURVE",
"652 343 CURVE SMOOTH",
"652 607 OFFCURVE",
"431 833 OFFCURVE",
"227 892 CURVE",
"22 849 LINE",
"22 778 LINE",
"212 737 OFFCURVE",
"436 572 OFFCURVE",
"436 286 CURVE SMOOTH",
"436 165 OFFCURVE",
"409 124 OFFCURVE",
"358 124 CURVE SMOOTH",
"279 124 OFFCURVE",
"240 203 OFFCURVE",
"240 302 CURVE SMOOTH",
"240 378 OFFCURVE",
"265 419 OFFCURVE",
"313 419 CURVE SMOOTH"
);
}
);
};
layerId = "2CCCAF06-0AAA-44C6-8F00-0A68246BB68E";
paths = (
{
closed = 1;
nodes = (
"606 883 LINE",
"39 580 LINE",
"58 543 LINE",
"626 846 LINE"
);
},
{
closed = 1;
nodes = (
"545 419 LINE",
"545 516 LINE",
"513 535 OFFCURVE",
"426 553 OFFCURVE",
"371 553 CURVE SMOOTH",
"200 553 OFFCURVE",
"24 401 OFFCURVE",
"24 254 CURVE SMOOTH",
"24 102 OFFCURVE",
"142 -10 OFFCURVE",
"300 -10 CURVE SMOOTH",
"486 -10 OFFCURVE",
"652 156 OFFCURVE",
"652 343 CURVE SMOOTH",
"652 555 OFFCURVE",
"465 783 OFFCURVE",
"220 883 CURVE",
"22 836 LINE",
"22 765 LINE",
"273 706 OFFCURVE",
"436 524 OFFCURVE",
"436 286 CURVE SMOOTH",
"436 172 OFFCURVE",
"413 124 OFFCURVE",
"358 124 CURVE SMOOTH",
"286 124 OFFCURVE",
"240 193 OFFCURVE",
"240 302 CURVE SMOOTH",
"240 378 OFFCURVE",
"265 419 OFFCURVE",
"313 419 CURVE SMOOTH"
);
}
);
width = 671;
},
{
layerId = "EED98765-8720-4D79-BBF2-40D7DAF3490F";
paths = (
{
closed = 1;
nodes = (
"536 883 LINE",
"105 617 LINE",
"127 581 LINE",
"559 847 LINE"
);
},
{
closed = 1;
nodes = (
"545 462 LINE",
"545 503 LINE",
"513 522 OFFCURVE",
"426 540 OFFCURVE",
"371 540 CURVE SMOOTH",
"225 540 OFFCURVE",
"76 392 OFFCURVE",
"76 247 CURVE SMOOTH",
"76 101 OFFCURVE",
"172 -10 OFFCURVE",
"300 -10 CURVE SMOOTH",
"457 -10 OFFCURVE",
"595 155 OFFCURVE",
"595 343 CURVE SMOOTH",
"595 566 OFFCURVE",
"401 816 OFFCURVE",
"173 883 CURVE",
"67 841 LINE",
"67 815 LINE",
"306 750 OFFCURVE",
"481 526 OFFCURVE",
"481 286 CURVE SMOOTH",
"481 136 OFFCURVE",
"442 68 OFFCURVE",
"358 68 CURVE SMOOTH",
"260 68 OFFCURVE",
"195 158 OFFCURVE",
"195 295 CURVE SMOOTH",
"195 406 OFFCURVE",
"235 462 OFFCURVE",
"313 462 CURVE SMOOTH"
);
}
);
width = 671;
}
);
leftKerningGroup = eth;
rightKerningGroup = eth;
unicode = 00F0;
},
{
color = 7;
glyphname = dcroat;
lastChange = "2018-10-29 15:07:35 +0000";
layers = (
{
anchors = (
{
name = center;
position = "{373, 266}";
},
{
name = centre;
position = "{496, 658}";
},
{
name = topright;
position = "{690, 543}";
}
);
layerId = "2CCCAF06-0AAA-44C6-8F00-0A68246BB68E";
leftMetricsKey = "=o";
paths = (
{
closed = 1;
nodes = (
"244 553 OFFCURVE",
"50 422 OFFCURVE",
"50 254 CURVE SMOOTH",
"50 105 OFFCURVE",
"145 -10 OFFCURVE",
"280 -10 CURVE SMOOTH",
"302 -10 OFFCURVE",
"325 -9 OFFCURVE",
"353 -2 CURVE",
"530 140 LINE",
"500 206 LINE",
"452 169 OFFCURVE",
"401 154 OFFCURVE",
"348 154 CURVE SMOOTH",
"287 154 OFFCURVE",
"260 219 OFFCURVE",
"260 301 CURVE SMOOTH",
"260 380 OFFCURVE",
"285 419 OFFCURVE",
"333 419 CURVE SMOOTH",
"412 419 OFFCURVE",
"451 378 OFFCURVE",
"451 331 CURVE",
"551 329 LINE",
"551 455 OFFCURVE",
"483 553 OFFCURVE",
"391 553 CURVE SMOOTH"
);
},
{
closed = 1;
nodes = (
"490 71 LINE",
"490 0 LINE",
"700 0 LINE",
"740 80 LINE",
"467 164 LINE"
);
},
{
closed = 1;
nodes = (
"572 883 LINE",
"450 832 LINE",
"450 0 LINE",
"650 0 LINE",
"650 883 LINE"
);
},
{
closed = 1;
nodes = (
"745 726 LINE",
"247 726 LINE",
"247 645 LINE",
"745 645 LINE"
);
}
);
width = 745;
},
{
anchors = (
{
name = center;
position = "{351, 266}";
},
{
name = centre;
position = "{496, 658}";
},
{
name = topright;
position = "{668, 530}";
}
);
layerId = "EED98765-8720-4D79-BBF2-40D7DAF3490F";
paths = (
{
closed = 1;
nodes = (
"240 540 OFFCURVE",
"73 409 OFFCURVE",
"73 247 CURVE SMOOTH",
"73 104 OFFCURVE",
"169 -10 OFFCURVE",
"303 -10 CURVE SMOOTH",
"325 -10 OFFCURVE",
"352 -9 OFFCURVE",
"380 -2 CURVE",
"557 138 LINE",
"527 155 LINE",
"443 76 OFFCURVE",
"398 65 OFFCURVE",
"351 65 CURVE SMOOTH",
"244 65 OFFCURVE",
"193 174 OFFCURVE",
"193 295 CURVE SMOOTH",
"193 404 OFFCURVE",
"231 462 OFFCURVE",
"311 462 CURVE SMOOTH",
"421 462 OFFCURVE",
"474 399 OFFCURVE",
"474 328 CURVE",
"574 277 LINE",
"574 422 OFFCURVE",
"489 540 OFFCURVE",
"369 540 CURVE SMOOTH"
);
},
{
closed = 1;
nodes = (
"480 26 LINE",
"480 0 LINE",
"655 0 LINE",
"673 35 LINE",
"490 108 LINE"
);
},
{
closed = 1;
nodes = (
"550 893 LINE",
"473 865 LINE",
"473 0 LINE",
"583 0 LINE",
"583 893 LINE"
);
},
{
closed = 1;
nodes = (
"700 715 LINE",
"292 715 LINE",
"292 679 LINE",
"700 679 LINE"
);
}
);
width = 700;
}
);
leftKerningGroup = o;
leftMetricsKey = o;
rightKerningGroup = l;
unicode = 0111;
},
{
glyphname = e;
lastChange = "2018-10-29 15:13:11 +0000";
layers = (
{
anchors = (
{
name = bottom;
position = "{342, 0}";
},
{
name = ogonek;
position = "{473, 0}";
},
{
name = top;
position = "{342, 543}";
}
);
background = {
paths = (
{
closed = 1;
nodes = (
"183 309 LINE",
"183 268 LINE",
"591 268 LINE",
"591 428 OFFCURVE",
"520 541 OFFCURVE",
"391 541 CURVE SMOOTH",
"260 541 OFFCURVE",
"90 410 OFFCURVE",
"90 248 CURVE SMOOTH",
"90 104 OFFCURVE",
"186 -10 OFFCURVE",
"320 -10 CURVE SMOOTH",
"347 -10 OFFCURVE",
"381 -9 OFFCURVE",
"416 -2 CURVE",
"593 138 LINE",
"563 176 LINE",
"474 101 OFFCURVE",
"416 75 OFFCURVE",
"378 75 CURVE SMOOTH",
"271 75 OFFCURVE",
"220 178 OFFCURVE",
"220 296 CURVE SMOOTH",
"220 401 OFFCURVE",
"257 457 OFFCURVE",
"333 457 CURVE SMOOTH",
"436 457 OFFCURVE",
"441 385 OFFCURVE",
"457 293 CURVE",
"492 309 LINE"
);
},
{
closed = 1;
nodes = (
"183 335 LINE",
"183 254 LINE",
"621 254 LINE",
"621 440 OFFCURVE",
"538 553 OFFCURVE",
"391 553 CURVE SMOOTH",
"244 553 OFFCURVE",
"50 422 OFFCURVE",
"50 254 CURVE SMOOTH",
"50 104 OFFCURVE",
"162 -10 OFFCURVE",
"320 -10 CURVE SMOOTH",
"347 -10 OFFCURVE",
"381 -9 OFFCURVE",
"416 -2 CURVE",
"633 168 LINE",
"583 236 LINE",
"484 166 OFFCURVE",
"420 145 OFFCURVE",
"378 145 CURVE SMOOTH",
"292 145 OFFCURVE",
"250 213 OFFCURVE",
"250 302 CURVE SMOOTH",
"250 367 OFFCURVE",
"275 399 OFFCURVE",
"328 399 CURVE SMOOTH",
"390 399 OFFCURVE",
"412 365 OFFCURVE",
"417 299 CURVE",
"452 335 LINE"
);
}
);
};
layerId = "2CCCAF06-0AAA-44C6-8F00-0A68246BB68E";
paths = (
{
closed = 1;
nodes = (
"244 553 OFFCURVE",
"50 422 OFFCURVE",
"50 254 CURVE SMOOTH",
"50 104 OFFCURVE",
"162 -10 OFFCURVE",
"320 -10 CURVE SMOOTH",
"367 -10 OFFCURVE",
"422 -8 OFFCURVE",
"483 9 CURVE",
"620 119 LINE",
"590 187 LINE",
"487 149 OFFCURVE",
"421 135 OFFCURVE",
"378 135 CURVE SMOOTH",
"299 135 OFFCURVE",
"260 207 OFFCURVE",
"260 302 CURVE SMOOTH",
"260 381 OFFCURVE",
"284 419 OFFCURVE",
"337 419 CURVE SMOOTH",
"399 419 OFFCURVE",
"422 379 OFFCURVE",
"427 299 CURVE",
"452 315 LINE",
"183 315 LINE",
"183 234 LINE",
"621 234 LINE",
"625 440 OFFCURVE",
"538 553 OFFCURVE",
"391 553 CURVE SMOOTH"
);
}
);
width = 671;
},
{
anchors = (
{
name = bottom;
position = "{320, 0}";
},
{
name = ogonek;
position = "{389, 0}";
},
{
name = top;
position = "{320, 530}";
}
);
hints = (
{
horizontal = 1;
origin = "{0, 5}";
target = "{0, 13}";
type = Stem;
},
{
horizontal = 1;
origin = "{0, 29}";
target = "{0, 19}";
type = Stem;
},
{
origin = "{0, 2}";
target = "{0, 16}";
type = Stem;
},
{
origin = "{0, 22}";
target = "{0, 26}";
type = Stem;
},
{
horizontal = 1;
origin = "{0, 19}";
target = "{0, 24}";
type = Stem;
},
{
horizontal = 1;
origin = "{0, 13}";
target = "{0, 25}";
type = Stem;
}
);
layerId = "EED98765-8720-4D79-BBF2-40D7DAF3490F";
paths = (
{
closed = 1;
nodes = (
"240 540 OFFCURVE",
"73 409 OFFCURVE",
"73 247 CURVE SMOOTH",
"73 104 OFFCURVE",
"167 -10 OFFCURVE",
"298 -10 CURVE SMOOTH",
"322 -10 OFFCURVE",
"353 -9 OFFCURVE",
"385 -3 CURVE",
"567 140 LINE",
"537 175 LINE",
"450 95 OFFCURVE",
"393 68 OFFCURVE",
"356 68 CURVE SMOOTH",
"245 68 OFFCURVE",
"193 174 OFFCURVE",
"193 295 CURVE SMOOTH",
"193 404 OFFCURVE",
"231 462 OFFCURVE",
"310 462 CURVE SMOOTH",
"418 462 OFFCURVE",
"421 386 OFFCURVE",
"438 292 CURVE",
"475 308 LINE",
"161 308 LINE",
"161 272 LINE",
"565 272 LINE",
"564 427 OFFCURVE",
"495 540 OFFCURVE",
"369 540 CURVE SMOOTH"
);
}
);
width = 641;
}
);
leftKerningGroup = o;
leftMetricsKey = o;
rightKerningGroup = o;
rightMetricsKey = o;
unicode = 0065;
},
{
glyphname = emacron;
lastChange = "2018-11-19 17:10:59 +0000";
layers = (
{
anchors = (
{
name = _centre;
position = "{342, 816}";
}
);
components = (
{
name = e;
}
);
layerId = "2CCCAF06-0AAA-44C6-8F00-0A68246BB68E";
paths = (
{
closed = 1;
nodes = (
"591 814 LINE",
"93 814 LINE",
"93 733 LINE",
"591 733 LINE"
);
}
);
width = 671;
},
{
anchors = (
{
name = _centre;
position = "{320, 794}";
}
);
components = (
{
name = e;
}
);
layerId = "EED98765-8720-4D79-BBF2-40D7DAF3490F";
paths = (
{
closed = 1;
nodes = (
"524 792 LINE",
"116 792 LINE",
"116 751 LINE",
"524 751 LINE"
);
}
);
width = 641;
}
);
leftKerningGroup = o;
rightKerningGroup = o;
unicode = 0113;
},
{
glyphname = f;
lastChange = "2018-11-07 20:18:02 +0000";
layers = (
{
anchors = (
{
name = bottom;
position = "{259, 0}";
},
{
name = top;
position = "{371, 823}";
}
);
background = {
paths = (
{
closed = 1;
nodes = (
"75 31 LINE",
"75 0 LINE",
"404 0 LINE",
"424 40 LINE",
"181 114 LINE"
);
},
{
closed = 1;
nodes = (
"464 531 LINE",
"45 531 LINE",
"45 490 LINE",
"464 490 LINE"
);
},
{
closed = 1;
nodes = (
"284 743 OFFCURVE",
"315 799 OFFCURVE",
"377 799 CURVE SMOOTH",
"426 799 OFFCURVE",
"478 766 OFFCURVE",
"511 712 CURVE",
"549 712 LINE",
"549 866 LINE",
"529 874 OFFCURVE",
"473 883 OFFCURVE",
"435 883 CURVE SMOOTH",
"316 883 OFFCURVE",
"164 752 OFFCURVE",
"164 590 CURVE SMOOTH",
"164 0 LINE",
"284 0 LINE",
"284 638 LINE SMOOTH"
);
}
);
};
layerId = "2CCCAF06-0AAA-44C6-8F00-0A68246BB68E";
paths = (
{
closed = 1;
nodes = (
"303 883 OFFCURVE",
"124 752 OFFCURVE",
"124 584 CURVE SMOOTH",
"124 0 LINE",
"324 0 LINE",
"324 656 LINE SMOOTH",
"324 719 OFFCURVE",
"350 753 OFFCURVE",
"390 753 CURVE SMOOTH",
"438 753 OFFCURVE",
"488 715 OFFCURVE",
"520 652 CURVE",
"598 652 LINE",
"598 846 LINE",
"568 864 OFFCURVE",
"487 883 OFFCURVE",
"434 883 CURVE SMOOTH"
);
},
{
closed = 1;
nodes = (
"35 71 LINE",
"35 0 LINE",
"444 0 LINE",
"484 80 LINE",
"141 164 LINE"
);
},
{
closed = 1;
nodes = (
"25 513 LINE",
"25 432 LINE",
"485 432 LINE",
"485 513 LINE"
);
}
);
width = 518;
},
{
anchors = (
{
name = bottom;
position = "{215, 0}";
},
{
name = top;
position = "{350, 823}";
}
);
layerId = "EED98765-8720-4D79-BBF2-40D7DAF3490F";
paths = (
{
closed = 1;
nodes = (
"295 883 OFFCURVE",
"147 752 OFFCURVE",
"147 591 CURVE SMOOTH",
"147 0 LINE",
"257 0 LINE",
"257 636 LINE SMOOTH",
"257 746 OFFCURVE",
"288 805 OFFCURVE",
"353 805 CURVE SMOOTH",
"402 805 OFFCURVE",
"454 772 OFFCURVE",
"487 720 CURVE",
"520 720 LINE",
"520 869 LINE",
"502 875 OFFCURVE",
"449 883 OFFCURVE",
"413 883 CURVE SMOOTH"
);
},
{
closed = 1;
nodes = (
"58 26 LINE",
"58 0 LINE",
"377 0 LINE",
"394 35 LINE",
"164 108 LINE"
);
},
{
closed = 1;
nodes = (
"25 500 LINE",
"25 464 LINE",
"439 464 LINE",
"439 500 LINE"
);
}
);
width = 429;
}
);
leftKerningGroup = f;
rightKerningGroup = f;
unicode = 0066;
},
{
color = 1;
glyphname = g;
lastChange = "2018-11-19 21:14:04 +0000";
layers = (
{
anchors = (
{
name = bottom;
position = "{297, -254}";
},
{
name = top;
position = "{305, 543}";
}
);
background = {
paths = (
{
closed = 1;
nodes = (
"182 553 OFFCURVE",
"25 446 OFFCURVE",
"25 327 CURVE SMOOTH",
"25 234 OFFCURVE",
"129 150 OFFCURVE",
"262 150 CURVE SMOOTH",
"410 150 OFFCURVE",
"566 262 OFFCURVE",
"566 376 CURVE SMOOTH",
"566 474 OFFCURVE",
"463 553 OFFCURVE",
"330 553 CURVE SMOOTH"
);
},
{
closed = 1;
nodes = (
"331 419 OFFCURVE",
"371 385 OFFCURVE",
"371 329 CURVE SMOOTH",
"371 300 OFFCURVE",
"353 284 OFFCURVE",
"319 284 CURVE SMOOTH",
"260 284 OFFCURVE",
"220 323 OFFCURVE",
"220 376 CURVE SMOOTH",
"220 406 OFFCURVE",
"238 419 OFFCURVE",
"271 419 CURVE SMOOTH"
);
},
{
closed = 1;
nodes = (
"361 543 LINE",
"361 462 LINE",
"650 462 LINE",
"650 543 LINE"
);
},
{
closed = 1;
nodes = (
"589 31 OFFCURVE",
"366 78 OFFCURVE",
"366 115 CURVE SMOOTH",
"366 140 OFFCURVE",
"377 164 OFFCURVE",
"395 183 CURVE",
"329 163 LINE",
"256 145 OFFCURVE",
"153 100 OFFCURVE",
"153 59 CURVE SMOOTH",
"153 -23 OFFCURVE",
"365 -48 OFFCURVE",
"365 -114 CURVE SMOOTH",
"365 -128 OFFCURVE",
"338 -144 OFFCURVE",
"298 -144 CURVE SMOOTH",
"215 -144 OFFCURVE",
"157 -92 OFFCURVE",
"103 -13 CURVE",
"25 -13 LINE",
"25 -207 LINE",
"83 -226 OFFCURVE",
"228 -264 OFFCURVE",
"325 -264 CURVE SMOOTH",
"448 -264 OFFCURVE",
"589 -123 OFFCURVE",
"589 -60 CURVE SMOOTH"
);
}
);
};
layerId = "2CCCAF06-0AAA-44C6-8F00-0A68246BB68E";
paths = (
{
closed = 1;
nodes = (
"182 553 OFFCURVE",
"25 446 OFFCURVE",
"25 327 CURVE SMOOTH",
"25 234 OFFCURVE",
"129 150 OFFCURVE",
"262 150 CURVE SMOOTH",
"410 150 OFFCURVE",
"566 262 OFFCURVE",
"566 376 CURVE SMOOTH",
"566 474 OFFCURVE",
"463 553 OFFCURVE",
"330 553 CURVE SMOOTH"
);
},
{
closed = 1;
nodes = (
"331 419 OFFCURVE",
"371 385 OFFCURVE",
"371 329 CURVE SMOOTH",
"371 300 OFFCURVE",
"353 284 OFFCURVE",
"319 284 CURVE SMOOTH",
"260 284 OFFCURVE",
"220 323 OFFCURVE",
"220 376 CURVE SMOOTH",
"220 406 OFFCURVE",
"238 419 OFFCURVE",
"271 419 CURVE SMOOTH"
);
},
{
closed = 1;
nodes = (
"361 513 LINE",
"361 432 LINE",
"650 432 LINE",
"650 513 LINE"
);
},
{
closed = 1;
nodes = (
"586 27 OFFCURVE",
"363 68 OFFCURVE",
"363 115 CURVE SMOOTH",
"363 130 OFFCURVE",
"369 154 OFFCURVE",
"395 183 CURVE",
"329 163 LINE",
"256 145 OFFCURVE",
"153 100 OFFCURVE",
"153 59 CURVE SMOOTH",
"153 -23 OFFCURVE",
"365 -48 OFFCURVE",
"365 -114 CURVE SMOOTH",
"365 -128 OFFCURVE",
"338 -144 OFFCURVE",
"298 -144 CURVE SMOOTH",
"215 -144 OFFCURVE",
"157 -92 OFFCURVE",
"103 -13 CURVE",
"25 -13 LINE",
"25 -207 LINE",
"83 -226 OFFCURVE",
"228 -264 OFFCURVE",
"325 -264 CURVE SMOOTH",
"448 -264 OFFCURVE",
"586 -127 OFFCURVE",
"586 -64 CURVE SMOOTH"
);
}
);
width = 640;
},
{
anchors = (
{
name = bottom;
position = "{301, -254}";
},
{
name = top;
position = "{305, 530}";
}
);
layerId = "EED98765-8720-4D79-BBF2-40D7DAF3490F";
paths = (
{
closed = 1;
nodes = (
"203 540 OFFCURVE",
"76 433 OFFCURVE",
"76 320 CURVE SMOOTH",
"76 228 OFFCURVE",
"157 150 OFFCURVE",
"262 150 CURVE SMOOTH",
"389 150 OFFCURVE",
"515 256 OFFCURVE",
"515 369 CURVE SMOOTH",
"515 461 OFFCURVE",
"435 540 OFFCURVE",
"330 540 CURVE SMOOTH"
);
},
{
closed = 1;
nodes = (
"358 462 OFFCURVE",
"416 405 OFFCURVE",
"416 322 CURVE SMOOTH",
"416 258 OFFCURVE",
"381 228 OFFCURVE",
"319 228 CURVE SMOOTH",
"233 228 OFFCURVE",
"175 285 OFFCURVE",
"175 369 CURVE SMOOTH",
"175 432 OFFCURVE",
"210 462 OFFCURVE",
"271 462 CURVE SMOOTH"
);
},
{
closed = 1;
nodes = (
"361 500 LINE",
"361 464 LINE",
"605 464 LINE",
"605 500 LINE"
);
},
{
closed = 1;
nodes = (
"561 20 OFFCURVE",
"305 46 OFFCURVE",
"305 104 CURVE SMOOTH",
"305 130 OFFCURVE",
"321 154 OFFCURVE",
"344 172 CURVE",
"323 163 LINE",
"268 145 OFFCURVE",
"192 100 OFFCURVE",
"192 59 CURVE SMOOTH",
"192 -16 OFFCURVE",
"449 -44 OFFCURVE",
"449 -125 CURVE SMOOTH",
"449 -157 OFFCURVE",
"409 -200 OFFCURVE",
"349 -200 CURVE SMOOTH",
"243 -200 OFFCURVE",
"168 -144 OFFCURVE",
"97 -58 CURVE",
"64 -58 LINE",
"64 -207 LINE",
"113 -226 OFFCURVE",
"236 -264 OFFCURVE",
"319 -264 CURVE SMOOTH",
"431 -264 OFFCURVE",
"561 -130 OFFCURVE",
"561 -71 CURVE SMOOTH"
);
}
);
width = 640;
}
);
leftKerningGroup = g;
rightKerningGroup = g;
unicode = 0067;
},
{
glyphname = g.ss02;
lastChange = "2018-10-29 15:11:46 +0000";
layers = (
{
anchors = (
{
name = g;
position = "{359, 621}";
},
{
name = top;
position = "{359, 543}";
}
);
background = {
paths = (
{
closed = 1;
nodes = (
"553 442 LINE",
"498 400 OFFCURVE",
"432 314 OFFCURVE",
"432 209 CURVE SMOOTH",
"432 112 OFFCURVE",
"495 31 OFFCURVE",
"495 -54 CURVE SMOOTH",
"495 -116 OFFCURVE",
"460 -144 OFFCURVE",
"408 -144 CURVE SMOOTH",
"337 -144 OFFCURVE",
"281 -86 OFFCURVE",
"231 3 CURVE",
"84 -72 LINE",
"84 -190 LINE",
"140 -215 OFFCURVE",
"281 -264 OFFCURVE",
"375 -264 CURVE SMOOTH",
"518 -264 OFFCURVE",
"679 -88 OFFCURVE",
"679 -7 CURVE SMOOTH",
"679 124 OFFCURVE",
"600 219 OFFCURVE",
"600 318 CURVE SMOOTH",
"600 369 OFFCURVE",
"612 425 OFFCURVE",
"649 475 CURVE"
);
},
{
closed = 1;
nodes = (
"84 -72 LINE",
"115 -141 LINE",
"382 69 LINE",
"311 107 LINE"
);
},
{
closed = 1;
nodes = (
"240 553 OFFCURVE",
"70 438 OFFCURVE",
"70 289 CURVE SMOOTH",
"70 158 OFFCURVE",
"174 60 OFFCURVE",
"320 60 CURVE SMOOTH",
"338 60 OFFCURVE",
"359 61 OFFCURVE",
"382 69 CURVE",
"519 178 LINE",
"488 247 LINE",
"453 217 OFFCURVE",
"416 205 OFFCURVE",
"378 205 CURVE SMOOTH",
"313 205 OFFCURVE",
"280 262 OFFCURVE",
"280 337 CURVE SMOOTH",
"280 392 OFFCURVE",
"302 419 OFFCURVE",
"336 419 CURVE SMOOTH",
"407 419 OFFCURVE",
"462 352 OFFCURVE",
"525 325 CURVE",
"649 475 LINE",
"619 543 LINE",
"506 543 OFFCURVE",
"450 553 OFFCURVE",
"371 553 CURVE SMOOTH"
);
}
);
};
guideLines = (
{
angle = 90;
position = "{649, 475}";
}
);
layerId = "2CCCAF06-0AAA-44C6-8F00-0A68246BB68E";
paths = (
{
closed = 1;
nodes = (
"553 442 LINE",
"488 400 OFFCURVE",
"412 314 OFFCURVE",
"412 209 CURVE SMOOTH",
"412 112 OFFCURVE",
"465 31 OFFCURVE",
"465 -54 CURVE SMOOTH",
"465 -116 OFFCURVE",
"434 -144 OFFCURVE",
"388 -144 CURVE SMOOTH",
"317 -144 OFFCURVE",
"261 -86 OFFCURVE",
"211 3 CURVE",
"64 -72 LINE",
"64 -190 LINE",
"120 -215 OFFCURVE",
"261 -264 OFFCURVE",
"355 -264 CURVE SMOOTH",
"493 -264 OFFCURVE",
"649 -88 OFFCURVE",
"649 -7 CURVE SMOOTH",
"649 124 OFFCURVE",
"580 219 OFFCURVE",
"580 318 CURVE SMOOTH",
"580 369 OFFCURVE",
"596 425 OFFCURVE",
"649 475 CURVE"
);
},
{
closed = 1;
nodes = (
"64 -72 LINE",
"95 -141 LINE",
"362 69 LINE",
"291 107 LINE"
);
},
{
closed = 1;
nodes = (
"226 553 OFFCURVE",
"50 438 OFFCURVE",
"50 289 CURVE SMOOTH",
"50 158 OFFCURVE",
"154 60 OFFCURVE",
"300 60 CURVE SMOOTH",
"318 60 OFFCURVE",
"339 61 OFFCURVE",
"362 69 CURVE",
"499 178 LINE",
"488 247 LINE",
"453 217 OFFCURVE",
"416 205 OFFCURVE",
"378 205 CURVE SMOOTH",
"299 205 OFFCURVE",
"260 262 OFFCURVE",
"260 337 CURVE SMOOTH",
"260 392 OFFCURVE",
"286 419 OFFCURVE",
"326 419 CURVE SMOOTH",
"386 419 OFFCURVE",
"433 377 OFFCURVE",
"486 346 CURVE",
"649 475 LINE",
"619 543 LINE",
"501 543 OFFCURVE",
"443 553 OFFCURVE",
"361 553 CURVE SMOOTH"
);
}
);
width = 719;
},
{
anchors = (
{
name = g;
position = "{350, 621}";
},
{
name = top;
position = "{350, 530}";
}
);
layerId = "EED98765-8720-4D79-BBF2-40D7DAF3490F";
paths = (
{
closed = 1;
nodes = (
"586 499 LINE",
"517 453 OFFCURVE",
"417 351 OFFCURVE",
"417 254 CURVE SMOOTH",
"417 158 OFFCURVE",
"482 101 OFFCURVE",
"482 -77 CURVE SMOOTH",
"482 -132 OFFCURVE",
"433 -200 OFFCURVE",
"362 -200 CURVE SMOOTH",
"283 -200 OFFCURVE",
"222 -145 OFFCURVE",
"165 -57 CURVE",
"84 -116 LINE",
"84 -189 LINE",
"134 -214 OFFCURVE",
"257 -264 OFFCURVE",
"340 -264 CURVE SMOOTH",
"456 -264 OFFCURVE",
"592 -112 OFFCURVE",
"592 -44 CURVE SMOOTH",
"592 104 OFFCURVE",
"523 177 OFFCURVE",
"523 324 CURVE SMOOTH",
"523 394 OFFCURVE",
"550 445 OFFCURVE",
"592 495 CURVE"
);
},
{
closed = 1;
nodes = (
"84 -116 LINE",
"114 -133 LINE",
"326 34 LINE",
"301 55 LINE"
);
},
{
closed = 1;
nodes = (
"228 540 OFFCURVE",
"73 416 OFFCURVE",
"73 265 CURVE SMOOTH",
"73 133 OFFCURVE",
"159 26 OFFCURVE",
"278 26 CURVE SMOOTH",
"290 26 OFFCURVE",
"311 27 OFFCURVE",
"326 34 CURVE",
"508 178 LINE",
"476 195 LINE",
"397 119 OFFCURVE",
"354 108 OFFCURVE",
"311 108 CURVE SMOOTH",
"239 108 OFFCURVE",
"193 202 OFFCURVE",
"193 313 CURVE SMOOTH",
"193 410 OFFCURVE",
"224 462 OFFCURVE",
"289 462 CURVE SMOOTH",
"369 462 OFFCURVE",
"441 423 OFFCURVE",
"498 410 CURVE",
"592 495 LINE",
"562 530 LINE",
"495 530 OFFCURVE",
"423 540 OFFCURVE",
"350 540 CURVE SMOOTH"
);
}
);
width = 684;
}
);
leftKerningGroup = o;
leftMetricsKey = o;
rightKerningGroup = g.ss02;
},
{
glyphname = h;
lastChange = "2018-11-09 15:04:12 +0000";
layers = (
{
anchors = (
{
name = bottom;
position = "{397, 0}";
},
{
name = centre;
position = "{223, 658}";
},
{
name = top;
position = "{350, 873}";
}
);
background = {
paths = (
{
closed = 1;
nodes = (
"455 541 OFFCURVE",
"439 540 OFFCURVE",
"421 533 CURVE",
"244 393 LINE",
"274 370 LINE",
"344 427 OFFCURVE",
"386 436 OFFCURVE",
"426 436 CURVE SMOOTH",
"484 436 OFFCURVE",
"504 411 OFFCURVE",
"504 337 CURVE SMOOTH",
"504 0 LINE",
"624 0 LINE",
"624 387 LINE SMOOTH",
"624 481 OFFCURVE",
"567 541 OFFCURVE",
"476 541 CURVE SMOOTH"
);
},
{
closed = 1;
nodes = (
"515 31 LINE",
"515 0 LINE",
"694 0 LINE",
"714 40 LINE",
"521 114 LINE"
);
}
);
};
components = (
{
name = l;
}
);
layerId = "2CCCAF06-0AAA-44C6-8F00-0A68246BB68E";
leftMetricsKey = "=l";
rightMetricsKey = "=n";
paths = (
{
closed = 1;
nodes = (
"441 553 OFFCURVE",
"418 550 OFFCURVE",
"401 545 CURVE",
"264 435 LINE",
"294 362 LINE",
"329 382 OFFCURVE",
"363 388 OFFCURVE",
"388 388 CURVE SMOOTH",
"430 388 OFFCURVE",
"444 366 OFFCURVE",
"444 309 CURVE SMOOTH",
"444 0 LINE",
"644 0 LINE",
"644 399 LINE SMOOTH",
"644 493 OFFCURVE",
"575 553 OFFCURVE",
"466 553 CURVE SMOOTH"
);
},
{
closed = 1;
nodes = (
"455 71 LINE",
"455 0 LINE",
"694 0 LINE",
"734 80 LINE",
"461 164 LINE"
);
}
);
width = 739;
},
{
anchors = (
{
name = bottom;
position = "{371, 0}";
},
{
name = centre;
position = "{223, 658}";
},
{
name = top;
position = "{350, 873}";
}
);
components = (
{
alignment = -1;
name = l;
}
);
layerId = "EED98765-8720-4D79-BBF2-40D7DAF3490F";
paths = (
{
closed = 1;
nodes = (
"412 540 OFFCURVE",
"397 539 OFFCURVE",
"379 532 CURVE",
"197 388 LINE",
"227 371 LINE",
"301 433 OFFCURVE",
"344 442 OFFCURVE",
"386 442 CURVE SMOOTH",
"446 442 OFFCURVE",
"467 417 OFFCURVE",
"467 341 CURVE SMOOTH",
"467 0 LINE",
"577 0 LINE",
"577 386 LINE SMOOTH",
"577 480 OFFCURVE",
"521 540 OFFCURVE",
"432 540 CURVE SMOOTH"
);
},
{
closed = 1;
nodes = (
"478 26 LINE",
"478 0 LINE",
"649 0 LINE",
"667 35 LINE",
"484 108 LINE"
);
}
);
width = 694;
}
);
leftKerningGroup = l;
leftMetricsKey = n;
rightKerningGroup = n;
rightMetricsKey = n;
unicode = 0068;
},
{
color = 7;
glyphname = hbar;
lastChange = "2018-10-29 15:07:35 +0000";
layers = (
{
anchors = (
{
name = bottom;
position = "{200, 0}";
},
{
name = centre;
position = "{223, 658}";
},
{
name = top;
position = "{200, 823}";
},
{
name = topright;
position = "{344, 543}";
}
);
guideLines = (
{
angle = 90;
position = "{35, 0}";
}
);
layerId = "2CCCAF06-0AAA-44C6-8F00-0A68246BB68E";
paths = (
{
closed = 1;
nodes = (
"441 553 OFFCURVE",
"418 550 OFFCURVE",
"401 545 CURVE",
"264 435 LINE",
"294 362 LINE",
"329 382 OFFCURVE",
"363 388 OFFCURVE",
"388 388 CURVE SMOOTH",
"430 388 OFFCURVE",
"444 366 OFFCURVE",
"444 309 CURVE SMOOTH",
"444 0 LINE",
"644 0 LINE",
"644 399 LINE SMOOTH",
"644 493 OFFCURVE",
"575 553 OFFCURVE",
"466 553 CURVE SMOOTH"
);
},
{
closed = 1;
nodes = (
"455 71 LINE",
"455 0 LINE",
"694 0 LINE",
"734 80 LINE",
"461 164 LINE"
);
},
{
closed = 1;
nodes = (
"226 883 LINE",
"104 832 LINE",
"104 0 LINE",
"304 0 LINE",
"304 883 LINE"
);
},
{
closed = 1;
nodes = (
"15 71 LINE",
"15 0 LINE",
"354 0 LINE",
"394 80 LINE",
"121 164 LINE"
);
},
{
closed = 1;
nodes = (
"498 726 LINE",
"0 726 LINE",
"0 645 LINE",
"498 645 LINE"
);
}
);
width = 739;
},
{
anchors = (
{
name = bottom;
position = "{178, 0}";
},
{
name = centre;
position = "{223, 658}";
},
{
name = top;
position = "{178, 823}";
},
{
name = topright;
position = "{322, 530}";
}
);
layerId = "EED98765-8720-4D79-BBF2-40D7DAF3490F";
paths = (
{
closed = 1;
nodes = (
"412 540 OFFCURVE",
"397 539 OFFCURVE",
"379 532 CURVE",
"197 388 LINE",
"227 371 LINE",
"301 433 OFFCURVE",
"344 442 OFFCURVE",
"386 442 CURVE SMOOTH",
"446 442 OFFCURVE",
"467 417 OFFCURVE",
"467 341 CURVE SMOOTH",
"467 0 LINE",
"577 0 LINE",
"577 386 LINE SMOOTH",
"577 480 OFFCURVE",
"521 540 OFFCURVE",
"432 540 CURVE SMOOTH"
);
},
{
closed = 1;
nodes = (
"478 26 LINE",
"478 0 LINE",
"649 0 LINE",
"667 35 LINE",
"484 108 LINE"
);
},
{
closed = 1;
nodes = (
"204 893 LINE",
"127 855 LINE",
"127 0 LINE",
"237 0 LINE",
"237 893 LINE"
);
},
{
closed = 1;
nodes = (
"38 26 LINE",
"38 0 LINE",
"309 0 LINE",
"327 35 LINE",
"144 108 LINE"
);
},
{
closed = 1;
nodes = (
"408 715 LINE",
"0 715 LINE",
"0 679 LINE",
"408 679 LINE"
);
}
);
width = 694;
}
);
leftKerningGroup = l;
rightKerningGroup = n;
rightMetricsKey = n;
unicode = 0127;
},
{
glyphname = idotless;
lastChange = "2018-11-19 17:31:25 +0000";
layers = (
{
anchors = (
{
name = bottom;
position = "{210, 0}";
},
{
name = ogonek;
position = "{374, 0}";
},
{
name = top;
position = "{210, 543}";
}
);
background = {
paths = (
{
closed = 1;
nodes = (
"75 31 LINE",
"75 0 LINE",
"354 0 LINE",
"374 40 LINE",
"181 114 LINE"
);
},
{
closed = 1;
nodes = (
"164 456 LINE",
"164 0 LINE",
"284 0 LINE",
"284 399 LINE"
);
},
{
closed = 1;
nodes = (
"75 486 LINE",
"75 455 LINE",
"247 335 LINE",
"284 399 LINE",
"284 550 LINE",
"246 550 LINE"
);
}
);
};
layerId = "2CCCAF06-0AAA-44C6-8F00-0A68246BB68E";
paths = (
{
closed = 1;
nodes = (
"124 468 LINE",
"124 0 LINE",
"324 0 LINE",
"324 562 LINE"
);
},
{
closed = 1;
nodes = (
"35 71 LINE",
"35 0 LINE",
"374 0 LINE",
"414 80 LINE",
"141 164 LINE"
);
},
{
closed = 1;
nodes = (
"246 562 LINE",
"35 473 LINE",
"35 402 LINE",
"287 237 LINE",
"324 562 LINE"
);
}
);
width = 419;
},
{
anchors = (
{
name = bottom;
position = "{199, 0}";
},
{
name = ogonek;
position = "{329, 0}";
},
{
name = top;
position = "{188, 530}";
}
);
layerId = "EED98765-8720-4D79-BBF2-40D7DAF3490F";
paths = (
{
closed = 1;
nodes = (
"147 455 LINE",
"147 0 LINE",
"257 0 LINE",
"257 549 LINE"
);
},
{
closed = 1;
nodes = (
"58 26 LINE",
"58 0 LINE",
"329 0 LINE",
"347 35 LINE",
"164 108 LINE"
);
},
{
closed = 1;
nodes = (
"224 549 LINE",
"58 488 LINE",
"58 462 LINE",
"220 347 LINE",
"257 549 LINE"
);
}
);
width = 385;
}
);
leftKerningGroup = n;
leftMetricsKey = n;
rightKerningGroup = u;
rightMetricsKey = u;
unicode = 0131;
},
{
glyphname = imacron;
lastChange = "2018-11-19 17:10:59 +0000";
layers = (
{
anchors = (
{
name = _centre;
position = "{210, 816}";
}
);
components = (
{
name = idotless;
}
);
layerId = "2CCCAF06-0AAA-44C6-8F00-0A68246BB68E";
paths = (
{
closed = 1;
nodes = (
"459 814 LINE",
"-39 814 LINE",
"-39 733 LINE",
"459 733 LINE"
);
}
);
width = 419;
},
{
anchors = (
{
name = _centre;
position = "{188, 794}";
}
);
components = (
{
name = idotless;
}
);
layerId = "EED98765-8720-4D79-BBF2-40D7DAF3490F";
paths = (
{
closed = 1;
nodes = (
"392 792 LINE",
"-16 792 LINE",
"-16 751 LINE",
"392 751 LINE"
);
}
);
width = 385;
}
);
leftKerningGroup = l;
rightKerningGroup = u;
unicode = 012B;
},
{
glyphname = jdotless;
lastChange = "2018-11-07 20:19:32 +0000";
layers = (
{
anchors = (
{
name = bottom;
position = "{195, -254}";
},
{
name = top;
position = "{187, 531}";
}
);
background = {
paths = (
{
closed = 1;
nodes = (
"52 486 LINE",
"52 455 LINE",
"224 335 LINE",
"261 399 LINE",
"261 550 LINE",
"223 550 LINE"
);
},
{
closed = 1;
nodes = (
"141 -87 OFFCURVE",
"120 -139 OFFCURVE",
"40 -234 CURVE",
"78 -264 LINE",
"270 -20 LINE",
"265 -4 OFFCURVE",
"261 45 OFFCURVE",
"261 99 CURVE SMOOTH",
"261 399 LINE",
"141 456 LINE",
"141 11 LINE SMOOTH"
);
}
);
};
layerId = "2CCCAF06-0AAA-44C6-8F00-0A68246BB68E";
paths = (
{
closed = 1;
nodes = (
"12 498 LINE",
"12 427 LINE",
"184 307 LINE",
"301 411 LINE",
"301 562 LINE",
"223 562 LINE"
);
},
{
closed = 1;
nodes = (
"101 -57 OFFCURVE",
"80 -109 OFFCURVE",
"0 -204 CURVE",
"78 -264 LINE",
"310 -20 LINE",
"305 -4 OFFCURVE",
"301 45 OFFCURVE",
"301 99 CURVE SMOOTH",
"301 411 LINE",
"101 468 LINE",
"101 41 LINE SMOOTH"
);
}
);
width = 390;
},
{
anchors = (
{
name = bottom;
position = "{189, -254}";
},
{
name = top;
position = "{190, 531}";
}
);
layerId = "EED98765-8720-4D79-BBF2-40D7DAF3490F";
paths = (
{
closed = 1;
nodes = (
"60 485 LINE",
"60 459 LINE",
"232 339 LINE",
"259 398 LINE",
"259 549 LINE",
"226 549 LINE"
);
},
{
closed = 1;
nodes = (
"149 -91 OFFCURVE",
"128 -143 OFFCURVE",
"48 -238 CURVE",
"81 -264 LINE",
"268 -20 LINE",
"263 -4 OFFCURVE",
"259 45 OFFCURVE",
"259 99 CURVE SMOOTH",
"259 398 LINE",
"149 455 LINE",
"149 7 LINE SMOOTH"
);
}
);
width = 378;
}
);
leftKerningGroup = n;
rightKerningGroup = j;
unicode = 0237;
},
{
glyphname = k;
lastChange = "2018-11-09 15:04:12 +0000";
layers = (
{
anchors = (
{
name = bottom;
position = "{405, 0}";
}
);
background = {
paths = (
{
closed = 1;
nodes = (
"687 500 LINE",
"687 531 LINE",
"448 531 LINE",
"428 491 LINE",
"535 413 LINE",
"587 474 LINE",
"337 264 LINE",
"525 0 LINE",
"694 0 LINE",
"714 40 LINE",
"521 114 LINE",
"647 43 LINE",
"433 334 LINE",
"437 290 LINE"
);
},
{
closed = 1;
nodes = (
"475 71 LINE",
"475 0 LINE",
"714 0 LINE",
"754 80 LINE",
"481 164 LINE"
);
},
{
closed = 1;
nodes = (
"647 472 LINE",
"647 543 LINE",
"408 543 LINE",
"368 463 LINE",
"641 379 LINE"
);
}
);
};
components = (
{
name = l;
}
);
layerId = "2CCCAF06-0AAA-44C6-8F00-0A68246BB68E";
paths = (
{
closed = 1;
nodes = (
"727 472 LINE",
"727 543 LINE",
"408 543 LINE",
"368 463 LINE",
"535 385 LINE",
"617 486 LINE",
"337 270 LINE",
"485 0 LINE",
"714 0 LINE",
"754 80 LINE",
"561 154 LINE",
"697 43 LINE",
"523 340 LINE",
"507 296 LINE"
);
}
);
width = 759;
},
{
anchors = (
{
name = bottom;
position = "{349, 0}";
}
);
components = (
{
alignment = -1;
name = l;
}
);
layerId = "EED98765-8720-4D79-BBF2-40D7DAF3490F";
paths = (
{
closed = 1;
nodes = (
"637 504 LINE",
"637 530 LINE",
"408 530 LINE",
"391 495 LINE",
"490 417 LINE",
"538 473 LINE",
"292 263 LINE",
"485 0 LINE",
"647 0 LINE",
"664 35 LINE",
"471 109 LINE",
"596 43 LINE",
"377 333 LINE",
"383 289 LINE"
);
}
);
width = 680;
}
);
leftKerningGroup = l;
rightKerningGroup = k;
unicode = 006B;
},
{
glyphname = l;
lastChange = "2018-11-20 15:46:45 +0000";
layers = (
{
anchors = (
{
name = bottom;
position = "{200, 0}";
},
{
name = top;
position = "{200, 823}";
},
{
name = topright;
position = "{344, 543}";
}
);
background = {
paths = (
{
closed = 1;
nodes = (
"55 31 LINE",
"55 0 LINE",
"334 0 LINE",
"354 40 LINE",
"161 114 LINE"
);
},
{
closed = 1;
nodes = (
"144 779 LINE",
"144 0 LINE",
"264 0 LINE",
"264 722 LINE"
);
},
{
closed = 1;
nodes = (
"55 809 LINE",
"55 778 LINE",
"227 658 LINE",
"264 722 LINE",
"264 873 LINE",
"226 873 LINE"
);
}
);
};
layerId = "2CCCAF06-0AAA-44C6-8F00-0A68246BB68E";
leftMetricsKey = "=n-20";
rightMetricsKey = "=u";
paths = (
{
closed = 1;
nodes = (
"104 779 LINE",
"104 0 LINE",
"304 0 LINE",
"304 873 LINE"
);
},
{
closed = 1;
nodes = (
"15 71 LINE",
"15 0 LINE",
"354 0 LINE",
"394 80 LINE",
"121 164 LINE"
);
},
{
closed = 1;
nodes = (
"226 873 LINE",
"15 784 LINE",
"15 713 LINE",
"267 548 LINE",
"304 873 LINE"
);
}
);
width = 399;
},
{
anchors = (
{
name = bottom;
position = "{178, 0}";
},
{
name = top;
position = "{178, 823}";
},
{
name = topright;
position = "{322, 530}";
}
);
layerId = "EED98765-8720-4D79-BBF2-40D7DAF3490F";
paths = (
{
closed = 1;
nodes = (
"127 779 LINE",
"127 0 LINE",
"237 0 LINE",
"237 873 LINE"
);
},
{
closed = 1;
nodes = (
"38 26 LINE",
"38 0 LINE",
"309 0 LINE",
"327 35 LINE",
"144 108 LINE"
);
},
{
closed = 1;
nodes = (
"204 873 LINE",
"38 812 LINE",
"38 786 LINE",
"200 672 LINE",
"237 873 LINE"
);
}
);
width = 365;
}
);
leftKerningGroup = l;
leftMetricsKey = n;
rightKerningGroup = l;
rightMetricsKey = n;
unicode = 006C;
},
{
color = 8;
glyphname = lslash;
lastChange = "2018-11-09 15:04:15 +0000";
layers = (
{
components = (
{
name = l;
}
);
layerId = "2CCCAF06-0AAA-44C6-8F00-0A68246BB68E";
paths = (
{
closed = 1;
nodes = (
"194 522 LINE",
"-40 314 LINE",
"-40 219 LINE",
"194 419 LINE"
);
},
{
closed = 1;
nodes = (
"205 369 LINE",
"439 577 LINE",
"439 682 LINE",
"205 472 LINE"
);
}
);
width = 399;
},
{
components = (
{
alignment = -1;
name = l;
}
);
layerId = "EED98765-8720-4D79-BBF2-40D7DAF3490F";
paths = (
{
closed = 1;
nodes = (
"172 522 LINE",
"-18 314 LINE",
"-18 262 LINE",
"172 462 LINE"
);
},
{
closed = 1;
nodes = (
"183 412 LINE",
"372 620 LINE",
"372 682 LINE",
"183 472 LINE"
);
}
);
width = 354;
}
);
unicode = 0142;
},
{
glyphname = m;
lastChange = "2018-11-07 20:20:30 +0000";
layers = (
{
anchors = (
{
name = bottom;
position = "{530, 0}";
},
{
name = top;
position = "{530, 543}";
}
);
background = {
paths = (
{
closed = 1;
nodes = (
"455 553 OFFCURVE",
"435 550 OFFCURVE",
"421 545 CURVE",
"284 435 LINE",
"314 362 LINE",
"345 382 OFFCURVE",
"376 388 OFFCURVE",
"398 388 CURVE SMOOTH",
"433 388 OFFCURVE",
"444 372 OFFCURVE",
"444 329 CURVE SMOOTH",
"444 0 LINE",
"644 0 LINE",
"644 399 LINE SMOOTH",
"644 493 OFFCURVE",
"579 553 OFFCURVE",
"476 553 CURVE SMOOTH"
);
},
{
closed = 1;
nodes = (
"35 71 LINE",
"35 0 LINE",
"374 0 LINE",
"414 80 LINE",
"141 164 LINE"
);
},
{
closed = 1;
nodes = (
"124 468 LINE",
"124 0 LINE",
"324 0 LINE",
"324 411 LINE"
);
},
{
closed = 1;
nodes = (
"455 71 LINE",
"455 0 LINE",
"694 0 LINE",
"734 80 LINE",
"461 164 LINE"
);
},
{
closed = 1;
nodes = (
"35 473 LINE",
"35 402 LINE",
"287 297 LINE",
"324 411 LINE",
"266 562 LINE"
);
},
{
closed = 1;
nodes = (
"775 553 OFFCURVE",
"755 550 OFFCURVE",
"741 545 CURVE",
"604 435 LINE",
"634 362 LINE",
"665 382 OFFCURVE",
"696 388 OFFCURVE",
"718 388 CURVE SMOOTH",
"753 388 OFFCURVE",
"764 372 OFFCURVE",
"764 329 CURVE SMOOTH",
"764 0 LINE",
"964 0 LINE",
"964 399 LINE SMOOTH",
"964 493 OFFCURVE",
"899 553 OFFCURVE",
"796 553 CURVE SMOOTH"
);
},
{
closed = 1;
nodes = (
"775 71 LINE",
"775 0 LINE",
"1014 0 LINE",
"1054 80 LINE",
"781 164 LINE"
);
}
);
};
layerId = "2CCCAF06-0AAA-44C6-8F00-0A68246BB68E";
leftMetricsKey = "=n";
rightMetricsKey = "=n";
paths = (
{
closed = 1;
nodes = (
"455 553 OFFCURVE",
"435 550 OFFCURVE",
"421 545 CURVE",
"284 435 LINE",
"314 362 LINE",
"345 382 OFFCURVE",
"376 388 OFFCURVE",
"398 388 CURVE SMOOTH",
"433 388 OFFCURVE",
"444 372 OFFCURVE",
"444 329 CURVE SMOOTH",
"444 0 LINE",
"644 0 LINE",
"644 399 LINE SMOOTH",
"644 493 OFFCURVE",
"579 553 OFFCURVE",
"476 553 CURVE SMOOTH"
);
},
{
closed = 1;
nodes = (
"35 71 LINE",
"35 0 LINE",
"364 0 LINE",
"404 80 LINE",
"141 164 LINE"
);
},
{
closed = 1;
nodes = (
"124 468 LINE",
"124 0 LINE",
"324 0 LINE",
"324 411 LINE"
);
},
{
closed = 1;
nodes = (
"455 71 LINE",
"455 0 LINE",
"684 0 LINE",
"724 80 LINE",
"461 164 LINE"
);
},
{
closed = 1;
nodes = (
"35 473 LINE",
"35 402 LINE",
"287 237 LINE",
"324 411 LINE",
"266 562 LINE"
);
},
{
closed = 1;
nodes = (
"775 553 OFFCURVE",
"755 550 OFFCURVE",
"741 545 CURVE",
"604 435 LINE",
"634 362 LINE",
"665 382 OFFCURVE",
"696 388 OFFCURVE",
"718 388 CURVE SMOOTH",
"753 388 OFFCURVE",
"764 372 OFFCURVE",
"764 329 CURVE SMOOTH",
"764 0 LINE",
"964 0 LINE",
"964 399 LINE SMOOTH",
"964 493 OFFCURVE",
"899 553 OFFCURVE",
"796 553 CURVE SMOOTH"
);
},
{
closed = 1;
nodes = (
"775 71 LINE",
"775 0 LINE",
"1014 0 LINE",
"1054 80 LINE",
"781 164 LINE"
);
}
);
width = 1059;
},
{
anchors = (
{
name = bottom;
position = "{527, 0}";
},
{
name = top;
position = "{527, 530}";
}
);
layerId = "EED98765-8720-4D79-BBF2-40D7DAF3490F";
paths = (
{
closed = 1;
nodes = (
"421 540 OFFCURVE",
"406 539 OFFCURVE",
"387 532 CURVE",
"217 388 LINE",
"247 371 LINE",
"316 433 OFFCURVE",
"357 442 OFFCURVE",
"396 442 CURVE SMOOTH",
"457 442 OFFCURVE",
"478 416 OFFCURVE",
"478 338 CURVE SMOOTH",
"478 0 LINE",
"588 0 LINE",
"588 386 LINE SMOOTH",
"588 480 OFFCURVE",
"532 540 OFFCURVE",
"442 540 CURVE SMOOTH"
);
},
{
closed = 1;
nodes = (
"58 26 LINE",
"58 0 LINE",
"330 0 LINE",
"348 35 LINE",
"164 108 LINE"
);
},
{
closed = 1;
nodes = (
"147 455 LINE",
"147 0 LINE",
"257 0 LINE",
"257 398 LINE"
);
},
{
closed = 1;
nodes = (
"489 26 LINE",
"489 0 LINE",
"662 0 LINE",
"679 35 LINE",
"495 108 LINE"
);
},
{
closed = 1;
nodes = (
"58 465 LINE",
"58 439 LINE",
"220 347 LINE",
"257 398 LINE",
"221 549 LINE"
);
},
{
closed = 1;
nodes = (
"753 540 OFFCURVE",
"737 539 OFFCURVE",
"719 532 CURVE",
"548 388 LINE",
"578 371 LINE",
"647 433 OFFCURVE",
"688 442 OFFCURVE",
"727 442 CURVE SMOOTH",
"788 442 OFFCURVE",
"809 416 OFFCURVE",
"809 338 CURVE SMOOTH",
"809 0 LINE",
"919 0 LINE",
"919 386 LINE SMOOTH",
"919 480 OFFCURVE",
"863 540 OFFCURVE",
"774 540 CURVE SMOOTH"
);
},
{
closed = 1;
nodes = (
"820 26 LINE",
"820 0 LINE",
"992 0 LINE",
"1009 35 LINE",
"826 108 LINE"
);
}
);
width = 1038;
}
);
leftKerningGroup = n;
leftMetricsKey = n;
rightKerningGroup = n;
rightMetricsKey = n;
unicode = 006D;
},
{
glyphname = n;
lastChange = "2018-10-29 15:07:35 +0000";
layers = (
{
anchors = (
{
name = bottom;
position = "{410, 0}";
},
{
name = top;
position = "{370, 543}";
}
);
background = {
paths = (
{
closed = 1;
nodes = (
"461 553 OFFCURVE",
"438 550 OFFCURVE",
"421 545 CURVE",
"284 435 LINE",
"314 362 LINE",
"349 382 OFFCURVE",
"383 388 OFFCURVE",
"408 388 CURVE SMOOTH",
"450 388 OFFCURVE",
"464 366 OFFCURVE",
"464 309 CURVE SMOOTH",
"464 0 LINE",
"664 0 LINE",
"664 399 LINE SMOOTH",
"664 493 OFFCURVE",
"595 553 OFFCURVE",
"486 553 CURVE SMOOTH"
);
},
{
closed = 1;
nodes = (
"35 71 LINE",
"35 0 LINE",
"374 0 LINE",
"414 80 LINE",
"141 164 LINE"
);
},
{
closed = 1;
nodes = (
"124 468 LINE",
"124 0 LINE",
"324 0 LINE",
"324 411 LINE"
);
},
{
closed = 1;
nodes = (
"475 71 LINE",
"475 0 LINE",
"714 0 LINE",
"754 80 LINE",
"481 164 LINE"
);
},
{
closed = 1;
nodes = (
"35 473 LINE",
"35 402 LINE",
"287 297 LINE",
"324 411 LINE",
"266 562 LINE"
);
}
);
};
guideLines = (
{
angle = 90;
position = "{75, 31}";
}
);
layerId = "2CCCAF06-0AAA-44C6-8F00-0A68246BB68E";
paths = (
{
closed = 1;
nodes = (
"461 553 OFFCURVE",
"438 550 OFFCURVE",
"421 545 CURVE",
"284 435 LINE",
"314 362 LINE",
"349 382 OFFCURVE",
"383 388 OFFCURVE",
"408 388 CURVE SMOOTH",
"450 388 OFFCURVE",
"464 366 OFFCURVE",
"464 309 CURVE SMOOTH",
"464 0 LINE",
"664 0 LINE",
"664 399 LINE SMOOTH",
"664 493 OFFCURVE",
"595 553 OFFCURVE",
"486 553 CURVE SMOOTH"
);
},
{
closed = 1;
nodes = (
"35 71 LINE",
"35 0 LINE",
"374 0 LINE",
"414 80 LINE",
"141 164 LINE"
);
},
{
closed = 1;
nodes = (
"124 468 LINE",
"124 0 LINE",
"324 0 LINE",
"324 411 LINE"
);
},
{
closed = 1;
nodes = (
"475 71 LINE",
"475 0 LINE",
"714 0 LINE",
"754 80 LINE",
"481 164 LINE"
);
},
{
closed = 1;
nodes = (
"35 473 LINE",
"35 402 LINE",
"287 237 LINE",
"324 411 LINE",
"266 562 LINE"
);
}
);
width = 759;
},
{
anchors = (
{
name = bottom;
position = "{388, 0}";
},
{
name = top;
position = "{348, 530}";
}
);
layerId = "EED98765-8720-4D79-BBF2-40D7DAF3490F";
paths = (
{
closed = 1;
nodes = (
"432 540 OFFCURVE",
"417 539 OFFCURVE",
"399 532 CURVE",
"217 388 LINE",
"247 371 LINE",
"321 433 OFFCURVE",
"364 442 OFFCURVE",
"406 442 CURVE SMOOTH",
"466 442 OFFCURVE",
"487 417 OFFCURVE",
"487 341 CURVE SMOOTH",
"487 0 LINE",
"597 0 LINE",
"597 386 LINE SMOOTH",
"597 480 OFFCURVE",
"541 540 OFFCURVE",
"452 540 CURVE SMOOTH"
);
},
{
closed = 1;
nodes = (
"58 26 LINE",
"58 0 LINE",
"329 0 LINE",
"347 35 LINE",
"164 108 LINE"
);
},
{
closed = 1;
nodes = (
"147 455 LINE",
"147 0 LINE",
"257 0 LINE",
"257 398 LINE"
);
},
{
closed = 1;
nodes = (
"498 26 LINE",
"498 0 LINE",
"669 0 LINE",
"687 35 LINE",
"504 108 LINE"
);
},
{
closed = 1;
nodes = (
"58 465 LINE",
"58 439 LINE",
"220 347 LINE",
"257 398 LINE",
"221 549 LINE"
);
}
);
width = 714;
}
);
leftKerningGroup = n;
rightKerningGroup = n;
unicode = 006E;
},
{
color = 7;
glyphname = eng;
lastChange = "2018-10-29 15:11:46 +0000";
layers = (
{
anchors = (
{
name = top;
position = "{370, 543}";
}
);
layerId = "2CCCAF06-0AAA-44C6-8F00-0A68246BB68E";
paths = (
{
closed = 1;
nodes = (
"461 553 OFFCURVE",
"438 550 OFFCURVE",
"421 545 CURVE",
"284 435 LINE",
"314 362 LINE",
"349 382 OFFCURVE",
"383 388 OFFCURVE",
"408 388 CURVE SMOOTH",
"450 388 OFFCURVE",
"464 366 OFFCURVE",
"464 309 CURVE SMOOTH",
"464 41 LINE SMOOTH",
"464 -57 OFFCURVE",
"443 -109 OFFCURVE",
"363 -204 CURVE",
"441 -264 LINE",
"673 -20 LINE",
"668 -4 OFFCURVE",
"664 45 OFFCURVE",
"664 99 CURVE SMOOTH",
"664 399 LINE SMOOTH",
"664 493 OFFCURVE",
"595 553 OFFCURVE",
"486 553 CURVE SMOOTH"
);
},
{
closed = 1;
nodes = (
"35 71 LINE",
"35 0 LINE",
"374 0 LINE",
"414 80 LINE",
"141 164 LINE"
);
},
{
closed = 1;
nodes = (
"124 0 LINE",
"324 0 LINE",
"324 411 LINE",
"124 468 LINE"
);
},
{
closed = 1;
nodes = (
"35 473 LINE",
"35 402 LINE",
"287 237 LINE",
"324 411 LINE",
"266 562 LINE"
);
}
);
width = 753;
},
{
anchors = (
{
name = top;
position = "{348, 530}";
}
);
layerId = "EED98765-8720-4D79-BBF2-40D7DAF3490F";
paths = (
{
closed = 1;
nodes = (
"432 540 OFFCURVE",
"417 539 OFFCURVE",
"399 532 CURVE",
"217 388 LINE",
"247 371 LINE",
"321 433 OFFCURVE",
"364 442 OFFCURVE",
"406 442 CURVE SMOOTH",
"466 442 OFFCURVE",
"487 417 OFFCURVE",
"487 341 CURVE SMOOTH",
"487 7 LINE SMOOTH",
"487 -91 OFFCURVE",
"466 -143 OFFCURVE",
"386 -238 CURVE",
"419 -264 LINE",
"606 -20 LINE",
"601 -4 OFFCURVE",
"597 45 OFFCURVE",
"597 99 CURVE SMOOTH",
"597 386 LINE SMOOTH",
"597 480 OFFCURVE",
"541 540 OFFCURVE",
"452 540 CURVE SMOOTH"
);
},
{
closed = 1;
nodes = (
"58 26 LINE",
"58 0 LINE",
"329 0 LINE",
"347 35 LINE",
"164 108 LINE"
);
},
{
closed = 1;
nodes = (
"147 0 LINE",
"257 0 LINE",
"257 398 LINE",
"147 455 LINE"
);
},
{
closed = 1;
nodes = (
"58 465 LINE",
"58 439 LINE",
"220 347 LINE",
"257 398 LINE",
"221 549 LINE"
);
}
);
width = 715;
}
);
leftKerningGroup = n;
leftMetricsKey = "=n";
rightKerningGroup = j;
rightMetricsKey = "=jdotless";
unicode = 014B;
},
{
glyphname = o;
lastChange = "2018-11-07 20:05:47 +0000";
layers = (
{
anchors = (
{
name = bottom;
position = "{356, 0}";
},
{
name = center;
position = "{356, 272}";
},
{
name = ogonek;
position = "{453, 0}";
},
{
name = top;
position = "{356, 543}";
}
);
layerId = "2CCCAF06-0AAA-44C6-8F00-0A68246BB68E";
paths = (
{
closed = 1;
nodes = (
"244 553 OFFCURVE",
"50 422 OFFCURVE",
"50 254 CURVE SMOOTH",
"50 104 OFFCURVE",
"162 -10 OFFCURVE",
"320 -10 CURVE SMOOTH",
"467 -10 OFFCURVE",
"661 121 OFFCURVE",
"661 289 CURVE SMOOTH",
"661 438 OFFCURVE",
"550 553 OFFCURVE",
"391 553 CURVE SMOOTH"
);
},
{
closed = 1;
nodes = (
"406 419 OFFCURVE",
"445 342 OFFCURVE",
"445 242 CURVE SMOOTH",
"445 163 OFFCURVE",
"420 124 OFFCURVE",
"378 124 CURVE SMOOTH",
"305 124 OFFCURVE",
"266 202 OFFCURVE",
"266 302 CURVE SMOOTH",
"266 381 OFFCURVE",
"291 419 OFFCURVE",
"333 419 CURVE SMOOTH"
);
}
);
width = 711;
},
{
anchors = (
{
name = bottom;
position = "{333, 0}";
},
{
name = center;
position = "{333, 265}";
},
{
name = ogonek;
position = "{409, 0}";
},
{
name = top;
position = "{334, 530}";
}
);
layerId = "EED98765-8720-4D79-BBF2-40D7DAF3490F";
paths = (
{
closed = 1;
nodes = (
"240 540 OFFCURVE",
"73 409 OFFCURVE",
"73 247 CURVE SMOOTH",
"73 104 OFFCURVE",
"167 -10 OFFCURVE",
"298 -10 CURVE SMOOTH",
"427 -10 OFFCURVE",
"594 121 OFFCURVE",
"594 282 CURVE SMOOTH",
"594 425 OFFCURVE",
"501 540 OFFCURVE",
"369 540 CURVE SMOOTH"
);
},
{
closed = 1;
nodes = (
"422 462 OFFCURVE",
"474 356 OFFCURVE",
"474 235 CURVE SMOOTH",
"474 126 OFFCURVE",
"436 68 OFFCURVE",
"356 68 CURVE SMOOTH",
"244 68 OFFCURVE",
"192 175 OFFCURVE",
"192 295 CURVE SMOOTH",
"192 404 OFFCURVE",
"230 462 OFFCURVE",
"311 462 CURVE SMOOTH"
);
}
);
width = 666;
}
);
leftKerningGroup = o;
rightKerningGroup = o;
unicode = 006F;
},
{
glyphname = omacron;
lastChange = "2018-11-19 17:10:59 +0000";
layers = (
{
anchors = (
{
name = _centre;
position = "{356, 816}";
}
);
components = (
{
name = o;
}
);
layerId = "2CCCAF06-0AAA-44C6-8F00-0A68246BB68E";
paths = (
{
closed = 1;
nodes = (
"605 814 LINE",
"107 814 LINE",
"107 733 LINE",
"605 733 LINE"
);
}
);
width = 711;
},
{
anchors = (
{
name = _centre;
position = "{334, 794}";
}
);
components = (
{
name = o;
}
);
layerId = "EED98765-8720-4D79-BBF2-40D7DAF3490F";
paths = (
{
closed = 1;
nodes = (
"538 792 LINE",
"130 792 LINE",
"130 751 LINE",
"538 751 LINE"
);
}
);
width = 666;
}
);
leftKerningGroup = o;
rightKerningGroup = o;
unicode = 014D;
},
{
color = 8;
glyphname = oslash;
lastChange = "2018-11-09 15:04:14 +0000";
layers = (
{
background = {
components = (
{
name = o;
}
);
paths = (
{
closed = 1;
nodes = (
"573 690 LINE",
"102 -126 LINE",
"138 -147 LINE",
"609 669 LINE"
);
},
{
closed = 1;
nodes = (
"315 743 LINE",
"315 -199 LINE",
"396 -199 LINE",
"396 743 LINE"
);
}
);
};
components = (
{
name = o;
}
);
layerId = "2CCCAF06-0AAA-44C6-8F00-0A68246BB68E";
paths = (
{
closed = 1;
nodes = (
"556 700 LINE",
"85 -116 LINE",
"155 -156 LINE",
"626 660 LINE"
);
}
);
width = 711;
},
{
components = (
{
alignment = -1;
name = o;
}
);
layerId = "EED98765-8720-4D79-BBF2-40D7DAF3490F";
paths = (
{
closed = 1;
nodes = (
"548 675 LINE",
"85 -127 LINE",
"117 -146 LINE",
"580 657 LINE"
);
}
);
width = 666;
}
);
leftKerningGroup = o;
rightKerningGroup = o;
unicode = 00F8;
},
{
color = 7;
glyphname = oe;
lastChange = "2018-10-29 15:11:46 +0000";
layers = (
{
background = {
paths = (
{
closed = 1;
nodes = (
"228 541 OFFCURVE",
"70 410 OFFCURVE",
"70 248 CURVE SMOOTH",
"70 104 OFFCURVE",
"158 -10 OFFCURVE",
"280 -10 CURVE SMOOTH",
"403 -10 OFFCURVE",
"561 121 OFFCURVE",
"561 283 CURVE SMOOTH",
"561 426 OFFCURVE",
"474 541 OFFCURVE",
"351 541 CURVE SMOOTH"
);
},
{
closed = 1;
nodes = (
"386 457 OFFCURVE",
"431 354 OFFCURVE",
"431 236 CURVE SMOOTH",
"431 130 OFFCURVE",
"400 74 OFFCURVE",
"338 74 CURVE SMOOTH",
"245 74 OFFCURVE",
"200 178 OFFCURVE",
"200 296 CURVE SMOOTH",
"200 401 OFFCURVE",
"231 457 OFFCURVE",
"293 457 CURVE SMOOTH"
);
},
{
closed = 1;
nodes = (
"524 309 LINE",
"524 268 LINE",
"902 268 LINE",
"902 428 OFFCURVE",
"839 541 OFFCURVE",
"722 541 CURVE SMOOTH",
"595 541 OFFCURVE",
"431 410 OFFCURVE",
"431 248 CURVE SMOOTH",
"431 104 OFFCURVE",
"523 -10 OFFCURVE",
"646 -10 CURVE SMOOTH",
"673 -10 OFFCURVE",
"707 -9 OFFCURVE",
"742 -2 CURVE",
"900 124 LINE",
"870 162 LINE",
"795 101 OFFCURVE",
"740 75 OFFCURVE",
"704 75 CURVE SMOOTH",
"609 75 OFFCURVE",
"561 178 OFFCURVE",
"561 296 CURVE SMOOTH",
"561 401 OFFCURVE",
"595 457 OFFCURVE",
"664 457 CURVE SMOOTH",
"751 457 OFFCURVE",
"754 385 OFFCURVE",
"768 293 CURVE",
"803 309 LINE"
);
}
);
};
layerId = "2CCCAF06-0AAA-44C6-8F00-0A68246BB68E";
leftMetricsKey = "=o";
rightMetricsKey = "=e";
paths = (
{
closed = 1;
nodes = (
"238 553 OFFCURVE",
"50 422 OFFCURVE",
"50 254 CURVE SMOOTH",
"50 104 OFFCURVE",
"158 -10 OFFCURVE",
"310 -10 CURVE SMOOTH",
"445 -10 OFFCURVE",
"621 121 OFFCURVE",
"621 289 CURVE SMOOTH",
"621 438 OFFCURVE",
"522 553 OFFCURVE",
"381 553 CURVE SMOOTH"
);
},
{
closed = 1;
nodes = (
"389 419 OFFCURVE",
"425 342 OFFCURVE",
"425 242 CURVE SMOOTH",
"425 163 OFFCURVE",
"404 124 OFFCURVE",
"368 124 CURVE SMOOTH",
"302 124 OFFCURVE",
"266 202 OFFCURVE",
"266 302 CURVE SMOOTH",
"266 381 OFFCURVE",
"287 419 OFFCURVE",
"323 419 CURVE SMOOTH"
);
},
{
closed = 1;
nodes = (
"613 553 OFFCURVE",
"431 422 OFFCURVE",
"431 254 CURVE SMOOTH",
"431 104 OFFCURVE",
"535 -10 OFFCURVE",
"681 -10 CURVE SMOOTH",
"725 -10 OFFCURVE",
"777 -8 OFFCURVE",
"834 9 CURVE",
"971 119 LINE",
"941 187 LINE",
"843 149 OFFCURVE",
"780 135 OFFCURVE",
"739 135 CURVE SMOOTH",
"667 135 OFFCURVE",
"631 207 OFFCURVE",
"631 302 CURVE SMOOTH",
"631 381 OFFCURVE",
"652 419 OFFCURVE",
"698 419 CURVE SMOOTH",
"753 419 OFFCURVE",
"774 379 OFFCURVE",
"778 299 CURVE",
"803 315 LINE",
"554 315 LINE",
"554 234 LINE",
"972 234 LINE",
"976 440 OFFCURVE",
"893 553 OFFCURVE",
"752 553 CURVE SMOOTH"
);
}
);
width = 1022;
},
{
layerId = "EED98765-8720-4D79-BBF2-40D7DAF3490F";
paths = (
{
closed = 1;
nodes = (
"227 540 OFFCURVE",
"73 409 OFFCURVE",
"73 247 CURVE SMOOTH",
"73 104 OFFCURVE",
"158 -10 OFFCURVE",
"276 -10 CURVE SMOOTH",
"398 -10 OFFCURVE",
"554 121 OFFCURVE",
"554 282 CURVE SMOOTH",
"554 425 OFFCURVE",
"468 540 OFFCURVE",
"347 540 CURVE SMOOTH"
);
},
{
closed = 1;
nodes = (
"386 462 OFFCURVE",
"432 356 OFFCURVE",
"432 235 CURVE SMOOTH",
"432 126 OFFCURVE",
"400 68 OFFCURVE",
"334 68 CURVE SMOOTH",
"238 68 OFFCURVE",
"192 175 OFFCURVE",
"192 295 CURVE SMOOTH",
"192 404 OFFCURVE",
"224 462 OFFCURVE",
"289 462 CURVE SMOOTH"
);
},
{
closed = 1;
nodes = (
"593 540 OFFCURVE",
"431 409 OFFCURVE",
"431 247 CURVE SMOOTH",
"431 104 OFFCURVE",
"522 -10 OFFCURVE",
"642 -10 CURVE SMOOTH",
"667 -10 OFFCURVE",
"698 -9 OFFCURVE",
"731 -3 CURVE",
"891 125 LINE",
"861 159 LINE",
"789 95 OFFCURVE",
"735 68 OFFCURVE",
"700 68 CURVE SMOOTH",
"602 68 OFFCURVE",
"552 174 OFFCURVE",
"552 295 CURVE SMOOTH",
"552 404 OFFCURVE",
"588 462 OFFCURVE",
"660 462 CURVE SMOOTH",
"751 462 OFFCURVE",
"752 386 OFFCURVE",
"767 292 CURVE",
"803 308 LINE",
"520 308 LINE",
"520 272 LINE",
"893 272 LINE",
"893 427 OFFCURVE",
"832 540 OFFCURVE",
"718 540 CURVE SMOOTH"
);
}
);
width = 966;
}
);
leftKerningGroup = o;
leftMetricsKey = o;
rightKerningGroup = o;
rightMetricsKey = e;
unicode = 0153;
},
{
glyphname = p;
lastChange = "2018-11-07 20:20:51 +0000";
layers = (
{
anchors = (
{
name = bottom;
position = "{227, -254}";
},
{
name = top;
position = "{388, 543}";
}
);
background = {
paths = (
{
closed = 1;
nodes = (
"204 456 LINE",
"204 -254 LINE",
"324 -254 LINE",
"324 399 LINE"
);
},
{
closed = 1;
nodes = (
"115 466 LINE",
"115 435 LINE",
"287 335 LINE",
"324 399 LINE",
"286 550 LINE"
);
},
{
closed = 1;
nodes = (
"115 -223 LINE",
"115 -254 LINE",
"444 -254 LINE",
"464 -214 LINE",
"221 -140 LINE"
);
},
{
closed = 1;
nodes = (
"223 105 OFFCURVE",
"306 -10 OFFCURVE",
"423 -10 CURVE SMOOTH",
"554 -10 OFFCURVE",
"724 121 OFFCURVE",
"724 283 CURVE SMOOTH",
"724 427 OFFCURVE",
"644 541 OFFCURVE",
"534 541 CURVE SMOOTH",
"512 541 OFFCURVE",
"485 540 OFFCURVE",
"457 533 CURVE",
"280 393 LINE",
"310 370 LINE",
"390 445 OFFCURVE",
"436 456 OFFCURVE",
"483 456 CURVE SMOOTH",
"557 456 OFFCURVE",
"594 352 OFFCURVE",
"594 235 CURVE SMOOTH",
"594 130 OFFCURVE",
"557 74 OFFCURVE",
"481 74 CURVE SMOOTH",
"374 74 OFFCURVE",
"323 134 OFFCURVE",
"323 203 CURVE",
"223 248 LINE"
);
}
);
};
layerId = "2CCCAF06-0AAA-44C6-8F00-0A68246BB68E";
leftMetricsKey = "=n";
rightMetricsKey = "=o";
paths = (
{
closed = 1;
nodes = (
"473 553 OFFCURVE",
"450 552 OFFCURVE",
"422 545 CURVE",
"245 403 LINE",
"275 337 LINE",
"323 374 OFFCURVE",
"374 389 OFFCURVE",
"427 389 CURVE SMOOTH",
"488 389 OFFCURVE",
"515 324 OFFCURVE",
"515 242 CURVE SMOOTH",
"515 163 OFFCURVE",
"490 124 OFFCURVE",
"442 124 CURVE SMOOTH",
"363 124 OFFCURVE",
"324 170 OFFCURVE",
"324 222 CURVE",
"224 214 LINE",
"224 88 OFFCURVE",
"292 -10 OFFCURVE",
"384 -10 CURVE SMOOTH",
"531 -10 OFFCURVE",
"725 121 OFFCURVE",
"725 289 CURVE SMOOTH",
"725 438 OFFCURVE",
"630 553 OFFCURVE",
"495 553 CURVE SMOOTH"
);
},
{
closed = 1;
nodes = (
"35 -183 LINE",
"35 -254 LINE",
"444 -254 LINE",
"484 -174 LINE",
"141 -90 LINE"
);
},
{
closed = 1;
nodes = (
"124 -254 LINE",
"324 -254 LINE",
"324 411 LINE",
"124 468 LINE"
);
},
{
closed = 1;
nodes = (
"35 473 LINE",
"35 402 LINE",
"287 237 LINE",
"324 411 LINE",
"266 562 LINE"
);
}
);
width = 775;
},
{
anchors = (
{
name = bottom;
position = "{204, -254}";
},
{
name = top;
position = "{365, 530}";
}
);
layerId = "EED98765-8720-4D79-BBF2-40D7DAF3490F";
paths = (
{
closed = 1;
nodes = (
"451 540 OFFCURVE",
"428 539 OFFCURVE",
"400 532 CURVE",
"223 392 LINE",
"248 363 LINE",
"332 443 OFFCURVE",
"377 453 OFFCURVE",
"424 453 CURVE SMOOTH",
"499 453 OFFCURVE",
"538 350 OFFCURVE",
"538 234 CURVE SMOOTH",
"538 126 OFFCURVE",
"499 68 OFFCURVE",
"420 68 CURVE SMOOTH",
"309 68 OFFCURVE",
"257 130 OFFCURVE",
"257 201 CURVE",
"157 252 LINE",
"157 107 OFFCURVE",
"241 -10 OFFCURVE",
"362 -10 CURVE SMOOTH",
"491 -10 OFFCURVE",
"658 121 OFFCURVE",
"658 282 CURVE SMOOTH",
"658 426 OFFCURVE",
"579 540 OFFCURVE",
"473 540 CURVE SMOOTH"
);
},
{
closed = 1;
nodes = (
"58 -228 LINE",
"58 -254 LINE",
"377 -254 LINE",
"394 -219 LINE",
"164 -146 LINE"
);
},
{
closed = 1;
nodes = (
"147 -254 LINE",
"257 -254 LINE",
"257 398 LINE",
"147 455 LINE"
);
},
{
closed = 1;
nodes = (
"58 465 LINE",
"58 439 LINE",
"220 347 LINE",
"257 398 LINE",
"221 549 LINE"
);
}
);
width = 730;
}
);
leftKerningGroup = n;
leftMetricsKey = n;
rightKerningGroup = o;
rightMetricsKey = o;
unicode = 0070;
},
{
color = 7;
glyphname = thorn;
lastChange = "2018-10-29 15:11:46 +0000";
layers = (
{
background = {
paths = (
{
closed = 1;
nodes = (
"124 799 LINE",
"124 -254 LINE",
"244 -254 LINE",
"244 790 LINE"
);
},
{
closed = 1;
nodes = (
"35 -223 LINE",
"35 -254 LINE",
"364 -254 LINE",
"384 -214 LINE",
"141 -140 LINE"
);
},
{
closed = 1;
nodes = (
"143 105 OFFCURVE",
"226 -10 OFFCURVE",
"343 -10 CURVE SMOOTH",
"474 -10 OFFCURVE",
"644 121 OFFCURVE",
"644 283 CURVE SMOOTH",
"644 427 OFFCURVE",
"564 541 OFFCURVE",
"454 541 CURVE SMOOTH",
"432 541 OFFCURVE",
"405 540 OFFCURVE",
"377 533 CURVE",
"200 393 LINE",
"230 370 LINE",
"310 445 OFFCURVE",
"356 456 OFFCURVE",
"403 456 CURVE SMOOTH",
"477 456 OFFCURVE",
"514 352 OFFCURVE",
"514 235 CURVE SMOOTH",
"514 130 OFFCURVE",
"477 74 OFFCURVE",
"401 74 CURVE SMOOTH",
"294 74 OFFCURVE",
"243 134 OFFCURVE",
"243 203 CURVE",
"143 248 LINE"
);
},
{
closed = 1;
nodes = (
"35 809 LINE",
"35 778 LINE",
"207 658 LINE",
"244 722 LINE",
"244 873 LINE",
"206 873 LINE"
);
}
);
};
layerId = "2CCCAF06-0AAA-44C6-8F00-0A68246BB68E";
leftMetricsKey = "=l";
rightMetricsKey = "=o";
paths = (
{
closed = 1;
nodes = (
"453 553 OFFCURVE",
"430 552 OFFCURVE",
"402 545 CURVE",
"225 403 LINE",
"255 337 LINE",
"303 374 OFFCURVE",
"354 389 OFFCURVE",
"407 389 CURVE SMOOTH",
"468 389 OFFCURVE",
"495 324 OFFCURVE",
"495 242 CURVE SMOOTH",
"495 163 OFFCURVE",
"470 124 OFFCURVE",
"422 124 CURVE SMOOTH",
"343 124 OFFCURVE",
"304 170 OFFCURVE",
"304 222 CURVE",
"204 214 LINE",
"204 88 OFFCURVE",
"272 -10 OFFCURVE",
"364 -10 CURVE SMOOTH",
"511 -10 OFFCURVE",
"705 121 OFFCURVE",
"705 289 CURVE SMOOTH",
"705 438 OFFCURVE",
"610 553 OFFCURVE",
"475 553 CURVE SMOOTH"
);
},
{
closed = 1;
nodes = (
"15 -183 LINE",
"15 -254 LINE",
"424 -254 LINE",
"464 -174 LINE",
"121 -90 LINE"
);
},
{
closed = 1;
nodes = (
"104 779 LINE",
"104 -254 LINE",
"304 -254 LINE",
"304 873 LINE"
);
},
{
closed = 1;
nodes = (
"226 873 LINE",
"15 784 LINE",
"15 713 LINE",
"267 548 LINE",
"304 873 LINE"
);
}
);
width = 755;
},
{
layerId = "EED98765-8720-4D79-BBF2-40D7DAF3490F";
paths = (
{
closed = 1;
nodes = (
"429 540 OFFCURVE",
"402 539 OFFCURVE",
"374 532 CURVE",
"197 392 LINE",
"227 374 LINE",
"311 454 OFFCURVE",
"356 464 OFFCURVE",
"403 464 CURVE SMOOTH",
"478 464 OFFCURVE",
"516 356 OFFCURVE",
"516 234 CURVE SMOOTH",
"516 126 OFFCURVE",
"478 68 OFFCURVE",
"398 68 CURVE SMOOTH",
"288 68 OFFCURVE",
"235 130 OFFCURVE",
"235 201 CURVE",
"135 252 LINE",
"135 107 OFFCURVE",
"220 -10 OFFCURVE",
"340 -10 CURVE SMOOTH",
"469 -10 OFFCURVE",
"636 121 OFFCURVE",
"636 282 CURVE SMOOTH",
"636 426 OFFCURVE",
"558 540 OFFCURVE",
"451 540 CURVE SMOOTH"
);
},
{
closed = 1;
nodes = (
"38 -228 LINE",
"38 -254 LINE",
"357 -254 LINE",
"374 -219 LINE",
"144 -146 LINE"
);
},
{
closed = 1;
nodes = (
"127 802 LINE",
"127 -254 LINE",
"237 -254 LINE",
"237 873 LINE"
);
},
{
closed = 1;
nodes = (
"204 873 LINE",
"38 812 LINE",
"38 786 LINE",
"200 672 LINE",
"237 873 LINE"
);
}
);
width = 709;
}
);
leftKerningGroup = l;
leftMetricsKey = l;
rightKerningGroup = o;
rightMetricsKey = o;
unicode = 00FE;
},
{
glyphname = q;
lastChange = "2018-11-07 20:21:21 +0000";
layers = (
{
anchors = (
{
name = bottom;
position = "{544, -254}";
},
{
name = top;
position = "{373, 543}";
}
);
background = {
paths = (
{
closed = 1;
nodes = (
"591 426 OFFCURVE",
"508 541 OFFCURVE",
"391 541 CURVE SMOOTH",
"260 541 OFFCURVE",
"90 410 OFFCURVE",
"90 248 CURVE SMOOTH",
"90 104 OFFCURVE",
"186 -10 OFFCURVE",
"320 -10 CURVE SMOOTH",
"342 -10 OFFCURVE",
"369 -9 OFFCURVE",
"397 -2 CURVE",
"574 138 LINE",
"544 161 LINE",
"464 86 OFFCURVE",
"418 75 OFFCURVE",
"371 75 CURVE SMOOTH",
"269 75 OFFCURVE",
"220 179 OFFCURVE",
"220 296 CURVE SMOOTH",
"220 401 OFFCURVE",
"257 457 OFFCURVE",
"333 457 CURVE SMOOTH",
"440 457 OFFCURVE",
"491 397 OFFCURVE",
"491 328 CURVE",
"591 283 LINE"
);
},
{
closed = 1;
nodes = (
"490 -254 LINE",
"610 -254 LINE",
"610 551 LINE",
"572 551 LINE",
"490 437 LINE"
);
},
{
closed = 1;
nodes = (
"351 -223 LINE",
"351 -254 LINE",
"680 -254 LINE",
"700 -214 LINE",
"507 -140 LINE"
);
}
);
};
layerId = "2CCCAF06-0AAA-44C6-8F00-0A68246BB68E";
leftMetricsKey = "=o";
rightMetricsKey = "=l";
paths = (
{
closed = 1;
nodes = (
"220 553 OFFCURVE",
"50 418 OFFCURVE",
"50 248 CURVE SMOOTH",
"50 104 OFFCURVE",
"146 -10 OFFCURVE",
"280 -10 CURVE SMOOTH",
"302 -10 OFFCURVE",
"329 -9 OFFCURVE",
"357 -2 CURVE",
"534 138 LINE",
"503 207 LINE",
"455 170 OFFCURVE",
"404 155 OFFCURVE",
"351 155 CURVE SMOOTH",
"291 155 OFFCURVE",
"260 219 OFFCURVE",
"260 296 CURVE SMOOTH",
"260 374 OFFCURVE",
"285 419 OFFCURVE",
"333 419 CURVE SMOOTH",
"412 419 OFFCURVE",
"451 373 OFFCURVE",
"451 323 CURVE",
"631 295 LINE",
"631 438 OFFCURVE",
"516 553 OFFCURVE",
"351 553 CURVE SMOOTH"
);
},
{
closed = 1;
nodes = (
"291 -183 LINE",
"291 -254 LINE",
"710 -254 LINE",
"750 -174 LINE",
"467 -110 LINE"
);
},
{
closed = 1;
nodes = (
"572 551 LINE",
"450 449 LINE",
"450 -254 LINE",
"650 -254 LINE",
"650 551 LINE"
);
}
);
width = 745;
},
{
anchors = (
{
name = bottom;
position = "{516, -254}";
},
{
name = top;
position = "{350, 530}";
}
);
layerId = "EED98765-8720-4D79-BBF2-40D7DAF3490F";
paths = (
{
closed = 1;
nodes = (
"243 540 OFFCURVE",
"73 409 OFFCURVE",
"73 248 CURVE SMOOTH",
"73 104 OFFCURVE",
"169 -10 OFFCURVE",
"303 -10 CURVE SMOOTH",
"325 -10 OFFCURVE",
"352 -9 OFFCURVE",
"380 -2 CURVE",
"557 138 LINE",
"527 155 LINE",
"443 76 OFFCURVE",
"397 65 OFFCURVE",
"351 65 CURVE SMOOTH",
"244 65 OFFCURVE",
"193 174 OFFCURVE",
"193 296 CURVE SMOOTH",
"193 404 OFFCURVE",
"231 462 OFFCURVE",
"311 462 CURVE SMOOTH",
"421 462 OFFCURVE",
"474 400 OFFCURVE",
"474 329 CURVE",
"564 282 LINE",
"564 425 OFFCURVE",
"485 540 OFFCURVE",
"374 540 CURVE SMOOTH"
);
},
{
closed = 1;
nodes = (
"336 -228 LINE",
"336 -254 LINE",
"654 -254 LINE",
"671 -219 LINE",
"490 -144 LINE"
);
},
{
closed = 1;
nodes = (
"550 551 LINE",
"473 436 LINE",
"473 -254 LINE",
"583 -254 LINE",
"583 551 LINE"
);
}
);
width = 700;
}
);
leftKerningGroup = o;
leftMetricsKey = o;
rightMetricsKey = l;
unicode = 0071;
},
{
glyphname = r;
lastChange = "2018-10-29 15:07:35 +0000";
layers = (
{
anchors = (
{
name = bottom;
position = "{228, 0}";
},
{
name = top;
position = "{330, 543}";
}
);
background = {
paths = (
{
closed = 1;
nodes = (
"164 0 LINE",
"284 0 LINE",
"284 399 LINE",
"164 456 LINE"
);
},
{
closed = 1;
nodes = (
"75 31 LINE",
"75 0 LINE",
"404 0 LINE",
"424 40 LINE",
"181 114 LINE"
);
},
{
closed = 1;
nodes = (
"75 466 LINE",
"75 435 LINE",
"247 335 LINE",
"284 399 LINE",
"246 550 LINE"
);
},
{
closed = 1;
nodes = (
"415 541 OFFCURVE",
"399 540 OFFCURVE",
"381 533 CURVE",
"244 393 LINE",
"274 370 LINE",
"325 427 OFFCURVE",
"359 436 OFFCURVE",
"386 436 CURVE SMOOTH",
"410 436 OFFCURVE",
"423 423 OFFCURVE",
"429 390 CURVE",
"467 390 LINE",
"533 473 LINE",
"515 516 OFFCURVE",
"480 541 OFFCURVE",
"436 541 CURVE SMOOTH"
);
},
{
closed = 0;
nodes = (
"512 309 LINE",
"578 392 LINE"
);
},
{
closed = 1;
nodes = (
"35 71 LINE",
"35 0 LINE",
"374 0 LINE",
"414 80 LINE",
"141 164 LINE"
);
}
);
};
layerId = "2CCCAF06-0AAA-44C6-8F00-0A68246BB68E";
leftMetricsKey = "=n";
paths = (
{
closed = 1;
nodes = (
"35 473 LINE",
"35 402 LINE",
"287 237 LINE",
"324 411 LINE",
"266 562 LINE"
);
},
{
closed = 1;
nodes = (
"35 71 LINE",
"35 0 LINE",
"444 0 LINE",
"484 80 LINE",
"141 164 LINE"
);
},
{
closed = 1;
nodes = (
"419 553 OFFCURVE",
"402 550 OFFCURVE",
"391 545 CURVE",
"284 435 LINE",
"314 362 LINE",
"337 382 OFFCURVE",
"362 388 OFFCURVE",
"378 388 CURVE SMOOTH",
"405 388 OFFCURVE",
"414 366 OFFCURVE",
"414 309 CURVE",
"492 309 LINE",
"605 451 LINE",
"584 515 OFFCURVE",
"523 553 OFFCURVE",
"436 553 CURVE SMOOTH"
);
},
{
closed = 1;
nodes = (
"124 0 LINE",
"324 0 LINE",
"324 411 LINE",
"124 468 LINE"
);
}
);
width = 599;
},
{
anchors = (
{
name = bottom;
position = "{206, 0}";
},
{
name = top;
position = "{263, 530}";
}
);
layerId = "EED98765-8720-4D79-BBF2-40D7DAF3490F";
paths = (
{
closed = 1;
nodes = (
"58 465 LINE",
"58 439 LINE",
"220 347 LINE",
"257 398 LINE",
"221 549 LINE"
);
},
{
closed = 1;
nodes = (
"58 26 LINE",
"58 0 LINE",
"377 0 LINE",
"394 35 LINE",
"164 108 LINE"
);
},
{
closed = 1;
nodes = (
"392 540 OFFCURVE",
"376 539 OFFCURVE",
"357 532 CURVE",
"217 388 LINE",
"247 371 LINE",
"301 433 OFFCURVE",
"336 442 OFFCURVE",
"365 442 CURVE SMOOTH",
"388 442 OFFCURVE",
"402 430 OFFCURVE",
"408 400 CURVE",
"441 400 LINE",
"502 476 LINE",
"484 516 OFFCURVE",
"452 540 OFFCURVE",
"414 540 CURVE SMOOTH"
);
},
{
closed = 1;
nodes = (
"147 0 LINE",
"257 0 LINE",
"257 398 LINE",
"147 455 LINE"
);
}
);
width = 509;
}
);
leftKerningGroup = n;
leftMetricsKey = n;
rightKerningGroup = r;
unicode = 0072;
},
{
glyphname = s;
lastChange = "2018-10-29 15:07:35 +0000";
layers = (
{
anchors = (
{
name = bottom;
position = "{288, 0}";
},
{
name = top;
position = "{290, 543}";
}
);
background = {
paths = (
{
closed = 1;
nodes = (
"377 77 OFFCURVE",
"348 50 OFFCURVE",
"303 50 CURVE SMOOTH",
"239 50 OFFCURVE",
"170 97 OFFCURVE",
"123 181 CURVE",
"85 181 LINE",
"85 27 LINE",
"123 9 OFFCURVE",
"232 -10 OFFCURVE",
"298 -10 CURVE SMOOTH",
"375 -10 OFFCURVE",
"490 88 OFFCURVE",
"490 164 CURVE SMOOTH",
"490 288 OFFCURVE",
"203 325 OFFCURVE",
"203 423 CURVE SMOOTH",
"203 455 OFFCURVE",
"229 481 OFFCURVE",
"272 481 CURVE SMOOTH",
"332 481 OFFCURVE",
"390 431 OFFCURVE",
"432 350 CURVE",
"470 350 LINE",
"470 504 LINE",
"434 522 OFFCURVE",
"338 541 OFFCURVE",
"276 541 CURVE SMOOTH",
"199 541 OFFCURVE",
"90 442 OFFCURVE",
"90 367 CURVE SMOOTH",
"90 242 OFFCURVE",
"377 199 OFFCURVE",
"377 108 CURVE SMOOTH"
);
}
);
};
layerId = "2CCCAF06-0AAA-44C6-8F00-0A68246BB68E";
paths = (
{
closed = 1;
nodes = (
"307 123 OFFCURVE",
"294 110 OFFCURVE",
"273 110 CURVE SMOOTH",
"221 110 OFFCURVE",
"161 146 OFFCURVE",
"123 211 CURVE",
"45 211 LINE",
"45 27 LINE",
"91 9 OFFCURVE",
"220 -10 OFFCURVE",
"298 -10 CURVE SMOOTH",
"391 -10 OFFCURVE",
"530 88 OFFCURVE",
"530 164 CURVE SMOOTH",
"530 278 OFFCURVE",
"269 347 OFFCURVE",
"269 405 CURVE SMOOTH",
"269 420 OFFCURVE",
"279 433 OFFCURVE",
"298 433 CURVE SMOOTH",
"346 433 OFFCURVE",
"396 399 OFFCURVE",
"428 342 CURVE",
"506 342 LINE",
"506 516 LINE",
"462 534 OFFCURVE",
"346 553 OFFCURVE",
"272 553 CURVE SMOOTH",
"179 553 OFFCURVE",
"46 454 OFFCURVE",
"46 379 CURVE SMOOTH",
"46 264 OFFCURVE",
"307 191 OFFCURVE",
"307 138 CURVE SMOOTH"
);
}
);
width = 559;
},
{
anchors = (
{
name = bottom;
position = "{273, 0}";
},
{
name = top;
position = "{290, 530}";
}
);
hints = (
{
horizontal = 1;
origin = "{0, 10}";
target = "{0, 2}";
type = Stem;
},
{
horizontal = 1;
origin = "{0, 27}";
target = "{0, 19}";
type = Stem;
},
{
origin = "{0, 30}";
target = "{0, 16}";
type = Stem;
},
{
origin = "{0, 33}";
target = "{0, 13}";
type = Stem;
}
);
layerId = "EED98765-8720-4D79-BBF2-40D7DAF3490F";
paths = (
{
closed = 1;
nodes = (
"386 71 OFFCURVE",
"355 43 OFFCURVE",
"307 43 CURVE SMOOTH",
"241 43 OFFCURVE",
"171 91 OFFCURVE",
"123 177 CURVE",
"90 177 LINE",
"90 27 LINE",
"127 9 OFFCURVE",
"234 -10 OFFCURVE",
"298 -10 CURVE SMOOTH",
"373 -10 OFFCURVE",
"485 88 OFFCURVE",
"485 164 CURVE SMOOTH",
"485 289 OFFCURVE",
"195 322 OFFCURVE",
"195 425 CURVE SMOOTH",
"195 459 OFFCURVE",
"223 487 OFFCURVE",
"269 487 CURVE SMOOTH",
"330 487 OFFCURVE",
"389 435 OFFCURVE",
"433 351 CURVE",
"466 351 LINE",
"466 503 LINE",
"431 521 OFFCURVE",
"337 540 OFFCURVE",
"277 540 CURVE SMOOTH",
"202 540 OFFCURVE",
"96 441 OFFCURVE",
"96 366 CURVE SMOOTH",
"96 239 OFFCURVE",
"386 200 OFFCURVE",
"386 104 CURVE SMOOTH"
);
}
);
width = 559;
}
);
leftKerningGroup = s;
rightKerningGroup = s;
unicode = 0073;
},
{
color = 1;
glyphname = germandbls;
lastChange = "2018-10-29 15:13:11 +0000";
layers = (
{
background = {
paths = (
{
closed = 1;
nodes = (
"134 31 LINE",
"134 0 LINE",
"293 0 LINE",
"313 40 LINE",
"240 114 LINE"
);
},
{
closed = 1;
nodes = (
"297 531 LINE",
"105 531 LINE",
"105 490 LINE",
"297 490 LINE"
);
},
{
closed = 1;
nodes = (
"512 799 OFFCURVE",
"590 708 OFFCURVE",
"590 659 CURVE SMOOTH",
"590 581 OFFCURVE",
"440 521 OFFCURVE",
"440 417 CURVE SMOOTH",
"440 277 OFFCURVE",
"677 231 OFFCURVE",
"677 128 CURVE SMOOTH",
"677 87 OFFCURVE",
"656 50 OFFCURVE",
"623 50 CURVE SMOOTH",
"571 50 OFFCURVE",
"511 93 OFFCURVE",
"473 171 CURVE",
"435 171 LINE",
"435 17 LINE",
"467 4 OFFCURVE",
"561 -10 OFFCURVE",
"618 -10 CURVE SMOOTH",
"687 -10 OFFCURVE",
"790 100 OFFCURVE",
"790 184 CURVE SMOOTH",
"790 323 OFFCURVE",
"553 363 OFFCURVE",
"553 473 CURVE SMOOTH",
"553 560 OFFCURVE",
"703 605 OFFCURVE",
"703 715 CURVE SMOOTH",
"703 798 OFFCURVE",
"566 883 OFFCURVE",
"494 883 CURVE SMOOTH",
"375 883 OFFCURVE",
"223 752 OFFCURVE",
"223 590 CURVE SMOOTH",
"223 0 LINE",
"343 0 LINE",
"343 638 LINE SMOOTH",
"343 743 OFFCURVE",
"374 799 OFFCURVE",
"436 799 CURVE SMOOTH"
);
},
{
closed = 0;
nodes = (
"618 -10 LINE SMOOTH",
"711 -10 OFFCURVE",
"850 88 OFFCURVE",
"850 164 CURVE SMOOTH",
"850 278 OFFCURVE",
"589 347 OFFCURVE",
"589 405 CURVE SMOOTH"
);
}
);
};
layerId = "2CCCAF06-0AAA-44C6-8F00-0A68246BB68E";
leftMetricsKey = "=f";
rightMetricsKey = "=s";
paths = (
{
closed = 1;
nodes = (
"343 883 OFFCURVE",
"143 752 OFFCURVE",
"143 590 CURVE SMOOTH",
"143 0 LINE",
"343 0 LINE",
"343 638 LINE SMOOTH",
"343 717 OFFCURVE",
"368 759 OFFCURVE",
"416 759 CURVE SMOOTH",
"462 759 OFFCURVE",
"510 670 OFFCURVE",
"510 619 CURVE SMOOTH",
"510 546 OFFCURVE",
"406 496 OFFCURVE",
"406 399 CURVE SMOOTH",
"406 274 OFFCURVE",
"617 195 OFFCURVE",
"617 138 CURVE SMOOTH",
"617 123 OFFCURVE",
"604 110 OFFCURVE",
"583 110 CURVE SMOOTH",
"545 110 OFFCURVE",
"501 142 OFFCURVE",
"473 201 CURVE",
"395 201 LINE",
"395 17 LINE",
"427 4 OFFCURVE",
"521 -10 OFFCURVE",
"578 -10 CURVE SMOOTH",
"671 -10 OFFCURVE",
"810 100 OFFCURVE",
"810 184 CURVE SMOOTH",
"810 328 OFFCURVE",
"593 369 OFFCURVE",
"593 483 CURVE SMOOTH",
"593 566 OFFCURVE",
"726 612 OFFCURVE",
"726 715 CURVE SMOOTH",
"726 798 OFFCURVE",
"572 883 OFFCURVE",
"494 883 CURVE SMOOTH"
);
},
{
closed = 1;
nodes = (
"54 71 LINE",
"54 0 LINE",
"213 0 LINE",
"233 80 LINE",
"160 154 LINE"
);
},
{
closed = 1;
nodes = (
"25 513 LINE",
"25 432 LINE",
"217 432 LINE",
"217 513 LINE"
);
}
);
width = 839;
},
{
layerId = "EED98765-8720-4D79-BBF2-40D7DAF3490F";
paths = (
{
closed = 1;
nodes = (
"289 883 OFFCURVE",
"143 752 OFFCURVE",
"143 590 CURVE SMOOTH",
"143 0 LINE",
"253 0 LINE",
"253 638 LINE SMOOTH",
"253 746 OFFCURVE",
"285 804 OFFCURVE",
"349 804 CURVE SMOOTH",
"428 804 OFFCURVE",
"510 713 OFFCURVE",
"510 664 CURVE SMOOTH",
"510 585 OFFCURVE",
"354 524 OFFCURVE",
"354 419 CURVE SMOOTH",
"354 277 OFFCURVE",
"595 236 OFFCURVE",
"595 127 CURVE SMOOTH",
"595 83 OFFCURVE",
"573 43 OFFCURVE",
"538 43 CURVE SMOOTH",
"484 43 OFFCURVE",
"422 87 OFFCURVE",
"383 167 CURVE",
"350 167 LINE",
"350 17 LINE",
"382 4 OFFCURVE",
"476 -10 OFFCURVE",
"533 -10 CURVE SMOOTH",
"599 -10 OFFCURVE",
"698 100 OFFCURVE",
"698 184 CURVE SMOOTH",
"698 322 OFFCURVE",
"458 362 OFFCURVE",
"458 472 CURVE SMOOTH",
"458 559 OFFCURVE",
"610 604 OFFCURVE",
"610 715 CURVE SMOOTH",
"610 798 OFFCURVE",
"475 883 OFFCURVE",
"404 883 CURVE SMOOTH"
);
},
{
closed = 1;
nodes = (
"54 26 LINE",
"54 0 LINE",
"213 0 LINE",
"233 35 LINE",
"160 109 LINE"
);
},
{
closed = 1;
nodes = (
"25 500 LINE",
"25 464 LINE",
"217 464 LINE",
"217 500 LINE"
);
}
);
width = 773;
}
);
leftKerningGroup = f;
leftMetricsKey = f;
rightMetricsKey = s;
unicode = 00DF;
},
{
color = 7;
glyphname = longs;
lastChange = "2018-10-29 15:11:46 +0000";
layers = (
{
layerId = "2CCCAF06-0AAA-44C6-8F00-0A68246BB68E";
leftMetricsKey = "=f";
rightMetricsKey = "=f";
paths = (
{
closed = 1;
nodes = (
"303 883 OFFCURVE",
"124 752 OFFCURVE",
"124 584 CURVE SMOOTH",
"124 0 LINE",
"324 0 LINE",
"324 656 LINE SMOOTH",
"324 719 OFFCURVE",
"350 753 OFFCURVE",
"390 753 CURVE SMOOTH",
"438 753 OFFCURVE",
"488 715 OFFCURVE",
"520 652 CURVE",
"598 652 LINE",
"598 846 LINE",
"568 864 OFFCURVE",
"487 883 OFFCURVE",
"434 883 CURVE SMOOTH"
);
},
{
closed = 1;
nodes = (
"35 71 LINE",
"35 0 LINE",
"444 0 LINE",
"484 80 LINE",
"141 164 LINE"
);
},
{
closed = 1;
nodes = (
"25 513 LINE",
"25 432 LINE",
"231 432 LINE",
"231 513 LINE"
);
}
);
width = 518;
},
{
layerId = "EED98765-8720-4D79-BBF2-40D7DAF3490F";
paths = (
{
closed = 1;
nodes = (
"295 883 OFFCURVE",
"147 752 OFFCURVE",
"147 591 CURVE SMOOTH",
"147 0 LINE",
"257 0 LINE",
"257 636 LINE SMOOTH",
"257 746 OFFCURVE",
"288 805 OFFCURVE",
"353 805 CURVE SMOOTH",
"402 805 OFFCURVE",
"454 772 OFFCURVE",
"487 720 CURVE",
"520 720 LINE",
"520 869 LINE",
"502 875 OFFCURVE",
"449 883 OFFCURVE",
"413 883 CURVE SMOOTH"
);
},
{
closed = 1;
nodes = (
"58 26 LINE",
"58 0 LINE",
"377 0 LINE",
"394 35 LINE",
"164 108 LINE"
);
},
{
closed = 1;
nodes = (
"25 500 LINE",
"25 464 LINE",
"200 464 LINE",
"200 500 LINE"
);
}
);
width = 429;
}
);
leftKerningGroup = f;
leftMetricsKey = f;
rightKerningGroup = f;
rightMetricsKey = f;
unicode = 017F;
},
{
glyphname = t;
lastChange = "2018-11-07 20:22:16 +0000";
layers = (
{
anchors = (
{
name = bottom;
position = "{292, 0}";
},
{
name = center;
position = "{258, 272}";
},
{
name = centre;
position = "{244, 376}";
},
{
name = top;
position = "{232, 672}";
},
{
name = topright;
position = "{348, 543}";
}
);
background = {
paths = (
{
closed = 1;
nodes = (
"108 168 LINE SMOOTH",
"108 47 OFFCURVE",
"168 -10 OFFCURVE",
"308 -10 CURVE SMOOTH",
"335 -10 OFFCURVE",
"368 -9 OFFCURVE",
"404 -2 CURVE",
"505 78 LINE",
"475 146 LINE",
"435 130 OFFCURVE",
"413 125 OFFCURVE",
"386 125 CURVE SMOOTH",
"336 125 OFFCURVE",
"308 143 OFFCURVE",
"308 186 CURVE SMOOTH",
"308 734 LINE",
"230 734 LINE",
"108 566 LINE"
);
},
{
closed = 1;
nodes = (
"488 543 LINE",
"209 543 LINE",
"230 734 LINE",
"0 523 LINE",
"0 462 LINE",
"488 462 LINE"
);
}
);
};
layerId = "2CCCAF06-0AAA-44C6-8F00-0A68246BB68E";
paths = (
{
closed = 1;
nodes = (
"108 168 LINE SMOOTH",
"108 47 OFFCURVE",
"168 -10 OFFCURVE",
"308 -10 CURVE SMOOTH",
"335 -10 OFFCURVE",
"368 -9 OFFCURVE",
"404 -2 CURVE",
"505 78 LINE",
"475 146 LINE",
"435 130 OFFCURVE",
"413 125 OFFCURVE",
"386 125 CURVE SMOOTH",
"336 125 OFFCURVE",
"308 143 OFFCURVE",
"308 186 CURVE SMOOTH",
"308 734 LINE",
"230 734 LINE",
"108 566 LINE"
);
},
{
closed = 1;
nodes = (
"488 513 LINE",
"209 513 LINE",
"230 734 LINE",
"0 493 LINE",
"0 432 LINE",
"488 432 LINE"
);
}
);
width = 515;
},
{
anchors = (
{
name = bottom;
position = "{257, 0}";
},
{
name = center;
position = "{225, 265}";
},
{
name = centre;
position = "{217, 376}";
},
{
name = top;
position = "{206, 668}";
},
{
name = topright;
position = "{321, 530}";
}
);
hints = (
{
horizontal = 1;
origin = "{1, 4}";
target = "{1, 3}";
type = Stem;
},
{
horizontal = 1;
origin = "{0, 3}";
target = "{0, 11}";
type = Stem;
},
{
horizontal = 1;
origin = "{0, 16}";
target = down;
type = TopGhost;
},
{
origin = "{0, 0}";
target = "{0, 14}";
type = Stem;
}
);
layerId = "EED98765-8720-4D79-BBF2-40D7DAF3490F";
paths = (
{
closed = 1;
nodes = (
"126 168 LINE SMOOTH",
"126 47 OFFCURVE",
"173 -10 OFFCURVE",
"281 -10 CURVE SMOOTH",
"295 -10 OFFCURVE",
"314 -9 OFFCURVE",
"332 -2 CURVE",
"433 78 LINE",
"403 112 LINE",
"363 78 OFFCURVE",
"341 69 OFFCURVE",
"314 69 CURVE SMOOTH",
"264 69 OFFCURVE",
"236 94 OFFCURVE",
"236 152 CURVE SMOOTH",
"236 721 LINE",
"203 721 LINE",
"126 566 LINE"
);
},
{
closed = 1;
nodes = (
"416 500 LINE",
"182 500 LINE",
"203 721 LINE",
"18 502 LINE",
"18 464 LINE",
"416 464 LINE"
);
}
);
width = 449;
}
);
leftKerningGroup = t;
rightKerningGroup = t;
unicode = 0074;
},
{
glyphname = u;
lastChange = "2018-11-07 20:22:25 +0000";
layers = (
{
anchors = (
{
name = bottom;
position = "{365, 0}";
},
{
name = ogonek;
position = "{685, 0}";
},
{
name = top;
position = "{375, 543}";
}
);
background = {
paths = (
{
closed = 1;
nodes = (
"313 -10 OFFCURVE",
"329 -9 OFFCURVE",
"347 -2 CURVE",
"514 138 LINE",
"484 161 LINE",
"419 104 OFFCURVE",
"379 95 OFFCURVE",
"342 95 CURVE SMOOTH",
"284 95 OFFCURVE",
"264 120 OFFCURVE",
"264 194 CURVE SMOOTH",
"264 531 LINE",
"144 480 LINE",
"144 144 LINE SMOOTH",
"144 50 OFFCURVE",
"201 -10 OFFCURVE",
"292 -10 CURVE SMOOTH"
);
},
{
closed = 1;
nodes = (
"594 0 LINE",
"594 531 LINE",
"474 481 LINE",
"474 0 LINE"
);
},
{
closed = 1;
nodes = (
"485 31 LINE",
"485 0 LINE",
"664 0 LINE",
"684 40 LINE",
"491 114 LINE"
);
},
{
closed = 1;
nodes = (
"55 466 LINE",
"55 435 LINE",
"227 335 LINE",
"264 399 LINE",
"264 550 LINE",
"226 550 LINE"
);
},
{
closed = 1;
nodes = (
"385 466 LINE",
"385 435 LINE",
"557 335 LINE",
"594 399 LINE",
"594 550 LINE",
"556 550 LINE"
);
}
);
};
layerId = "2CCCAF06-0AAA-44C6-8F00-0A68246BB68E";
paths = (
{
closed = 1;
nodes = (
"95 457 LINE",
"95 143 LINE SMOOTH",
"95 49 OFFCURVE",
"164 -11 OFFCURVE",
"273 -11 CURVE SMOOTH",
"298 -11 OFFCURVE",
"321 -8 OFFCURVE",
"338 -3 CURVE",
"475 107 LINE",
"445 180 LINE",
"410 160 OFFCURVE",
"376 154 OFFCURVE",
"351 154 CURVE SMOOTH",
"309 154 OFFCURVE",
"295 176 OFFCURVE",
"295 233 CURVE SMOOTH",
"295 553 LINE"
);
},
{
closed = 1;
nodes = (
"217 553 LINE",
"6 464 LINE",
"6 393 LINE",
"258 248 LINE",
"295 411 LINE",
"295 553 LINE"
);
},
{
closed = 1;
nodes = (
"446 81 LINE",
"446 0 LINE",
"685 0 LINE",
"725 80 LINE",
"452 164 LINE"
);
},
{
closed = 1;
nodes = (
"435 443 LINE",
"435 0 LINE",
"635 0 LINE",
"635 553 LINE"
);
},
{
closed = 1;
nodes = (
"557 553 LINE",
"346 464 LINE",
"346 393 LINE",
"598 248 LINE",
"635 413 LINE",
"635 553 LINE"
);
}
);
width = 730;
},
{
anchors = (
{
name = bottom;
position = "{348, 0}";
},
{
name = ogonek;
position = "{639, 0}";
},
{
name = top;
position = "{353, 530}";
}
);
layerId = "EED98765-8720-4D79-BBF2-40D7DAF3490F";
paths = (
{
closed = 1;
nodes = (
"128 483 LINE",
"128 144 LINE SMOOTH",
"128 50 OFFCURVE",
"183 -10 OFFCURVE",
"272 -10 CURVE SMOOTH",
"292 -10 OFFCURVE",
"308 -9 OFFCURVE",
"326 -2 CURVE",
"496 142 LINE",
"466 159 LINE",
"398 97 OFFCURVE",
"357 88 OFFCURVE",
"318 88 CURVE SMOOTH",
"258 88 OFFCURVE",
"238 113 OFFCURVE",
"238 189 CURVE SMOOTH",
"238 528 LINE"
);
},
{
closed = 1;
nodes = (
"205 550 LINE",
"39 466 LINE",
"39 440 LINE",
"201 346 LINE",
"238 398 LINE",
"238 550 LINE"
);
},
{
closed = 1;
nodes = (
"467 25 LINE",
"467 0 LINE",
"639 0 LINE",
"656 35 LINE",
"473 108 LINE"
);
},
{
closed = 1;
nodes = (
"456 486 LINE",
"456 0 LINE",
"566 0 LINE",
"566 528 LINE"
);
},
{
closed = 1;
nodes = (
"533 550 LINE",
"367 466 LINE",
"367 440 LINE",
"529 346 LINE",
"566 397 LINE",
"566 550 LINE"
);
}
);
width = 695;
}
);
leftKerningGroup = u;
rightKerningGroup = u;
unicode = 0075;
},
{
glyphname = umacron;
lastChange = "2018-11-19 17:10:59 +0000";
layers = (
{
anchors = (
{
name = _centre;
position = "{375, 816}";
}
);
components = (
{
name = u;
}
);
layerId = "2CCCAF06-0AAA-44C6-8F00-0A68246BB68E";
paths = (
{
closed = 1;
nodes = (
"624 814 LINE",
"126 814 LINE",
"126 733 LINE",
"624 733 LINE"
);
}
);
width = 730;
},
{
anchors = (
{
name = _centre;
position = "{353, 794}";
}
);
components = (
{
name = u;
}
);
layerId = "EED98765-8720-4D79-BBF2-40D7DAF3490F";
paths = (
{
closed = 1;
nodes = (
"557 792 LINE",
"149 792 LINE",
"149 751 LINE",
"557 751 LINE"
);
}
);
width = 695;
}
);
leftKerningGroup = u;
rightKerningGroup = u;
unicode = 016B;
},
{
glyphname = v;
lastChange = "2018-11-07 20:22:41 +0000";
layers = (
{
anchors = (
{
name = bottom;
position = "{332, 0}";
},
{
name = top;
position = "{328, 543}";
}
);
background = {
paths = (
{
closed = 1;
nodes = (
"46 458 LINE",
"234 0 LINE",
"390 0 LINE",
"649 472 LINE",
"649 543 LINE",
"380 543 LINE",
"340 463 LINE",
"523 345 LINE",
"548 478 LINE",
"340 87 LINE",
"403 113 LINE",
"279 411 LINE",
"241 562 LINE",
"-10 478 LINE",
"-10 407 LINE",
"162 307 LINE"
);
}
);
};
layerId = "2CCCAF06-0AAA-44C6-8F00-0A68246BB68E";
paths = (
{
closed = 1;
nodes = (
"46 458 LINE",
"234 0 LINE",
"390 0 LINE",
"649 472 LINE",
"649 543 LINE",
"380 543 LINE",
"340 463 LINE",
"523 345 LINE",
"548 478 LINE",
"340 87 LINE",
"403 113 LINE",
"279 411 LINE",
"241 562 LINE",
"-10 478 LINE",
"-10 407 LINE",
"162 307 LINE"
);
}
);
width = 669;
},
{
anchors = (
{
name = bottom;
position = "{304, 0}";
},
{
name = top;
position = "{300, 530}";
}
);
layerId = "EED98765-8720-4D79-BBF2-40D7DAF3490F";
paths = (
{
closed = 1;
nodes = (
"74 445 LINE",
"257 0 LINE",
"323 0 LINE",
"575 504 LINE",
"575 530 LINE",
"362 530 LINE",
"345 495 LINE",
"505 377 LINE",
"508 465 LINE",
"306 42 LINE",
"343 62 LINE",
"206 398 LINE",
"168 549 LINE",
"7 465 LINE",
"7 439 LINE",
"179 339 LINE"
);
}
);
width = 614;
}
);
leftKerningGroup = v;
rightKerningGroup = v;
unicode = 0076;
},
{
glyphname = w;
lastChange = "2018-11-07 20:22:47 +0000";
layers = (
{
anchors = (
{
name = bottom;
position = "{495, 0}";
},
{
name = top;
position = "{490, 543}";
}
);
background = {
paths = (
{
closed = 1;
nodes = (
"71 446 LINE",
"254 0 LINE",
"330 0 LINE",
"486 309 LINE",
"456 360 LINE",
"310 47 LINE",
"350 68 LINE",
"214 399 LINE",
"176 550 LINE",
"5 466 LINE",
"5 435 LINE",
"177 335 LINE"
);
},
{
closed = 1;
nodes = (
"380 446 LINE",
"563 0 LINE",
"639 0 LINE",
"862 500 LINE",
"862 531 LINE",
"643 531 LINE",
"623 491 LINE",
"786 373 LINE",
"795 466 LINE",
"615 47 LINE",
"659 68 LINE",
"523 399 LINE",
"485 550 LINE",
"314 466 LINE",
"314 435 LINE",
"486 335 LINE"
);
}
);
};
layerId = "2CCCAF06-0AAA-44C6-8F00-0A68246BB68E";
leftMetricsKey = "=v";
rightMetricsKey = "=v";
paths = (
{
closed = 1;
nodes = (
"330 478 LINE",
"330 407 LINE",
"502 307 LINE",
"386 458 LINE",
"574 0 LINE",
"730 0 LINE",
"969 472 LINE",
"969 543 LINE",
"700 543 LINE",
"660 463 LINE",
"843 345 LINE",
"868 478 LINE",
"680 87 LINE",
"743 113 LINE",
"619 411 LINE",
"581 562 LINE"
);
},
{
closed = 1;
nodes = (
"-10 478 LINE",
"-10 407 LINE",
"162 307 LINE",
"46 458 LINE",
"234 0 LINE",
"390 0 LINE",
"521 238 LINE",
"474 339 LINE",
"340 87 LINE",
"403 113 LINE",
"279 411 LINE",
"241 562 LINE"
);
}
);
width = 989;
},
{
anchors = (
{
name = bottom;
position = "{444, 0}";
},
{
name = top;
position = "{445, 530}";
}
);
layerId = "EED98765-8720-4D79-BBF2-40D7DAF3490F";
paths = (
{
closed = 1;
nodes = (
"312 465 LINE",
"312 439 LINE",
"484 339 LINE",
"379 445 LINE",
"562 0 LINE",
"628 0 LINE",
"849 504 LINE",
"849 530 LINE",
"636 530 LINE",
"618 495 LINE",
"779 377 LINE",
"786 465 LINE",
"607 42 LINE",
"649 62 LINE",
"511 398 LINE",
"473 549 LINE"
);
},
{
closed = 1;
nodes = (
"7 465 LINE",
"7 439 LINE",
"179 339 LINE",
"74 445 LINE",
"257 0 LINE",
"323 0 LINE",
"482 318 LINE",
"454 363 LINE",
"306 42 LINE",
"343 62 LINE",
"206 398 LINE",
"168 549 LINE"
);
}
);
width = 888;
}
);
leftKerningGroup = v;
leftMetricsKey = v;
rightKerningGroup = v;
rightMetricsKey = v;
unicode = 0077;
},
{
glyphname = x;
lastChange = "2018-11-07 20:22:55 +0000";
layers = (
{
anchors = (
{
name = bottom;
position = "{344, 0}";
},
{
name = top;
position = "{344, 543}";
}
);
background = {
paths = (
{
closed = 1;
nodes = (
"627 500 LINE",
"627 531 LINE",
"408 531 LINE",
"388 491 LINE",
"504 408 LINE",
"526 466 LINE",
"324 277 LINE",
"344 230 LINE"
);
},
{
closed = 1;
nodes = (
"54 30 LINE",
"54 -1 LINE",
"273 -1 LINE",
"293 39 LINE",
"176 124 LINE",
"155 64 LINE",
"357 253 LINE",
"337 300 LINE"
);
},
{
closed = 1;
nodes = (
"469 0 LINE",
"618 0 LINE",
"638 40 LINE",
"455 154 LINE",
"581 43 LINE",
"385 304 LINE",
"299 234 LINE"
);
},
{
closed = 1;
nodes = (
"219 531 LINE",
"70 531 LINE",
"50 491 LINE",
"233 377 LINE",
"107 488 LINE",
"303 227 LINE",
"389 297 LINE"
);
}
);
};
layerId = "2CCCAF06-0AAA-44C6-8F00-0A68246BB68E";
paths = (
{
closed = 1;
nodes = (
"667 472 LINE",
"667 543 LINE",
"428 543 LINE",
"388 463 LINE",
"524 400 LINE",
"536 478 LINE",
"344 303 LINE",
"394 236 LINE"
);
},
{
closed = 1;
nodes = (
"22 70 LINE",
"22 -1 LINE",
"261 -1 LINE",
"301 79 LINE",
"164 144 LINE",
"153 64 LINE",
"345 239 LINE",
"295 306 LINE"
);
},
{
closed = 1;
nodes = (
"419 0 LINE",
"638 0 LINE",
"678 80 LINE",
"475 194 LINE",
"641 43 LINE",
"435 310 LINE",
"249 240 LINE"
);
},
{
closed = 1;
nodes = (
"269 543 LINE",
"50 543 LINE",
"10 463 LINE",
"253 349 LINE",
"47 500 LINE",
"253 233 LINE",
"449 303 LINE"
);
}
);
width = 688;
},
{
anchors = (
{
name = bottom;
position = "{305, 0}";
},
{
name = top;
position = "{305, 530}";
}
);
layerId = "EED98765-8720-4D79-BBF2-40D7DAF3490F";
paths = (
{
closed = 1;
nodes = (
"583 504 LINE",
"583 530 LINE",
"366 530 LINE",
"349 495 LINE",
"462 409 LINE",
"485 465 LINE",
"282 274 LINE",
"298 229 LINE"
);
},
{
closed = 1;
nodes = (
"19 25 LINE",
"19 -1 LINE",
"235 -1 LINE",
"253 34 LINE",
"138 122 LINE",
"116 64 LINE",
"319 255 LINE",
"303 299 LINE"
);
},
{
closed = 1;
nodes = (
"436 0 LINE",
"576 0 LINE",
"594 35 LINE",
"413 149 LINE",
"543 43 LINE",
"343 303 LINE",
"260 233 LINE"
);
},
{
closed = 1;
nodes = (
"173 530 LINE",
"33 530 LINE",
"16 495 LINE",
"191 381 LINE",
"65 487 LINE",
"265 226 LINE",
"348 296 LINE"
);
}
);
width = 609;
}
);
leftKerningGroup = x;
rightKerningGroup = k;
unicode = 0078;
},
{
glyphname = y;
lastChange = "2018-11-07 20:23:46 +0000";
layers = (
{
anchors = (
{
name = bottom;
position = "{445, 0}";
},
{
name = top;
position = "{330, 543}";
}
);
background = {
paths = (
{
closed = 1;
nodes = (
"-10 478 LINE",
"-10 407 LINE",
"162 307 LINE",
"46 458 LINE",
"234 0 LINE",
"200 153 LINE",
"200 10 OFFCURVE",
"171 -66 OFFCURVE",
"61 -204 CURVE",
"139 -264 LINE",
"390 0 LINE",
"649 472 LINE",
"649 543 LINE",
"380 543 LINE",
"340 463 LINE",
"523 345 LINE",
"548 478 LINE",
"340 87 LINE",
"403 113 LINE",
"279 411 LINE",
"241 562 LINE"
);
}
);
};
layerId = "2CCCAF06-0AAA-44C6-8F00-0A68246BB68E";
leftMetricsKey = "=v";
rightMetricsKey = "=v";
paths = (
{
closed = 1;
nodes = (
"-10 478 LINE",
"-10 407 LINE",
"162 307 LINE",
"46 458 LINE",
"234 0 LINE",
"200 153 LINE",
"200 10 OFFCURVE",
"171 -66 OFFCURVE",
"61 -204 CURVE",
"139 -264 LINE",
"390 0 LINE",
"649 472 LINE",
"649 543 LINE",
"380 543 LINE",
"340 463 LINE",
"523 345 LINE",
"548 478 LINE",
"340 87 LINE",
"403 113 LINE",
"279 411 LINE",
"241 562 LINE"
);
}
);
width = 669;
},
{
anchors = (
{
name = bottom;
position = "{380, 0}";
},
{
name = top;
position = "{296, 530}";
}
);
layerId = "EED98765-8720-4D79-BBF2-40D7DAF3490F";
paths = (
{
closed = 1;
nodes = (
"7 465 LINE",
"7 439 LINE",
"179 339 LINE",
"74 445 LINE",
"242 38 LINE",
"226 104 LINE",
"232 -43 OFFCURVE",
"208 -109 OFFCURVE",
"87 -238 CURVE",
"120 -264 LINE",
"323 0 LINE",
"575 504 LINE",
"575 530 LINE",
"362 530 LINE",
"345 495 LINE",
"505 377 LINE",
"508 465 LINE",
"306 42 LINE",
"343 62 LINE",
"206 398 LINE",
"168 549 LINE"
);
}
);
width = 614;
}
);
leftKerningGroup = v;
leftMetricsKey = v;
rightKerningGroup = v;
rightMetricsKey = v;
unicode = 0079;
},
{
glyphname = z;
lastChange = "2018-11-07 20:23:52 +0000";
layers = (
{
anchors = (
{
name = bottom;
position = "{333, 0}";
},
{
name = top;
position = "{341, 543}";
}
);
background = {
paths = (
{
closed = 1;
nodes = (
"113 349 LINE",
"143 339 LINE",
"205 486 LINE",
"135 410 LINE",
"466 410 LINE",
"529 514 LINE",
"100 38 LINE",
"100 0 LINE",
"503 0 LINE",
"558 -18 LINE",
"558 192 LINE",
"528 202 LINE",
"468 49 LINE",
"546 121 LINE",
"205 121 LINE",
"153 26 LINE",
"571 493 LINE",
"571 531 LINE",
"168 531 LINE",
"113 549 LINE"
);
}
);
};
layerId = "2CCCAF06-0AAA-44C6-8F00-0A68246BB68E";
paths = (
{
closed = 1;
nodes = (
"68 281 LINE",
"138 261 LINE",
"210 418 LINE",
"130 343 LINE",
"411 343 LINE",
"539 526 LINE",
"60 78 LINE",
"60 0 LINE",
"503 0 LINE",
"598 -18 LINE",
"598 272 LINE",
"528 292 LINE",
"458 129 LINE",
"546 200 LINE",
"255 200 LINE",
"138 26 LINE",
"606 465 LINE",
"606 543 LINE",
"163 543 LINE",
"68 561 LINE"
);
}
);
width = 666;
},
{
anchors = (
{
name = bottom;
position = "{302, 0}";
},
{
name = top;
position = "{307, 530}";
}
);
layerId = "EED98765-8720-4D79-BBF2-40D7DAF3490F";
paths = (
{
closed = 1;
nodes = (
"85 358 LINE",
"110 349 LINE",
"193 495 LINE",
"102 420 LINE",
"439 420 LINE",
"494 513 LINE",
"71 33 LINE",
"71 0 LINE",
"469 0 LINE",
"519 -18 LINE",
"519 182 LINE",
"494 191 LINE",
"413 39 LINE",
"512 110 LINE",
"165 110 LINE",
"121 26 LINE",
"533 497 LINE",
"533 530 LINE",
"135 530 LINE",
"85 548 LINE"
);
}
);
width = 604;
}
);
leftKerningGroup = z;
rightKerningGroup = z;
unicode = 007A;
},
